<svg width="65" height="65" viewBox="0 0 65 65" fill="none" xmlns="http://www.w3.org/2000/svg">
<path d="M13.375 15H51.625C53.3158 15 54.9373 15.6497 56.1328 16.8062C57.3283 17.9626 58 19.5312 58 21.1667V48.9167C58 49.7344 57.6642 50.5187 57.0664 51.0969C56.4686 51.6752 55.6579 52 54.8125 52H48.4375C47.5921 52 46.7814 51.6752 46.1836 51.0969C45.5858 50.5187 45.25 49.7344 45.25 48.9167V42.75C45.25 39.479 43.9067 36.342 41.5156 34.029C39.1245 31.7161 35.8815 30.4167 32.5 30.4167C29.1185 30.4167 25.8755 31.7161 23.4844 34.029C21.0933 36.342 19.75 39.479 19.75 42.75V48.9167C19.75 49.7344 19.4142 50.5187 18.8164 51.0969C18.2186 51.6752 17.4079 52 16.5625 52H10.1875C9.34212 52 8.53137 51.6752 7.9336 51.0969C7.33583 50.5187 7 49.7344 7 48.9167V21.1667C7 19.5312 7.67165 17.9626 8.86719 16.8062C10.0627 15.6497 11.6842 15 13.375 15" stroke="#61C9C2" stroke-width="8"/>
</svg>
