<svg width="65" height="65" viewBox="0 0 65 65" fill="none" xmlns="http://www.w3.org/2000/svg">
<path d="M38.5879 11.5977L34.8422 24.1534C34.5938 24.9859 34.6805 25.8811 35.0831 26.642C35.4857 27.4029 36.1714 27.9673 36.9891 28.2109L49.3226 31.8848" stroke="#61C9C2" stroke-width="8"/>
<path d="M37.4323 55.6908L15.4094 49.1264C14.2412 48.7782 13.2628 47.9683 12.6894 46.8747C12.116 45.7811 11.9946 44.4935 12.3519 43.2951L21.7816 11.6662C22.1388 10.4679 22.9455 9.45693 24.0242 8.85577C25.1028 8.25462 26.3651 8.11251 27.5332 8.46071L42.9493 13.0558L50.593 27.634L43.1839 52.4853C42.8267 53.6837 42.02 54.6946 40.9413 55.2958C39.8627 55.8969 38.6004 56.039 37.4323 55.6908Z" stroke="#61C9C2" stroke-width="8"/>
</svg>
