<svg width="53" height="50" viewBox="0 0 53 50" fill="none" xmlns="http://www.w3.org/2000/svg">
<path d="M26.5208 44L7.78053 25.4432ZM7.78053 25.4432C6.54444 24.2406 5.57078 22.7952 4.92088 21.1978C4.27098 19.6005 3.95892 17.886 4.00433 16.1622C4.04975 14.4384 4.45166 12.7426 5.18477 11.1817C5.91788 9.62086 6.96629 8.22864 8.264 7.09276C9.5617 5.95689 11.0806 5.10195 12.725 4.58181C14.3694 4.06166 16.1037 3.88756 17.8187 4.07047C19.5338 4.25338 21.1923 4.78935 22.69 5.64461C24.1877 6.49988 25.492 7.65591 26.5208 9.03992C27.5541 7.66596 28.8599 6.52002 30.3566 5.67384C31.8532 4.82765 33.5084 4.29943 35.2186 4.12223C36.9288 3.94503 38.6572 4.12268 40.2956 4.64404C41.934 5.1654 43.4471 6.01926 44.7403 7.15218C46.0334 8.2851 47.0787 9.67269 47.8108 11.2281C48.5429 12.7835 48.9461 14.4733 48.9949 16.1916C49.0438 17.9099 48.7375 19.6199 48.095 21.2144C47.4525 22.8089 45.2611 25.4582 45.2611 25.4582" stroke="#61C9C2" stroke-width="8"/>
</svg>
