<svg width="80" height="80" viewBox="0 0 80 80" fill="none" xmlns="http://www.w3.org/2000/svg">
<path d="M40.0265 65.2308L16.9616 42.3917ZM16.9616 42.3917C15.4402 40.9115 14.2419 39.1325 13.442 37.1666C12.6421 35.2007 12.258 33.0905 12.3139 30.9688C12.3698 28.8472 12.8645 26.7602 13.7668 24.8391C14.6691 22.918 15.9594 21.2045 17.5566 19.8065C19.1538 18.4085 21.0232 17.3563 23.0471 16.7161C25.0709 16.0759 27.2055 15.8616 29.3163 16.0867C31.4271 16.3119 33.4684 16.9715 35.3117 18.0241C37.1549 19.0768 38.7603 20.4996 40.0265 22.203C41.2983 20.512 42.9055 19.1016 44.7475 18.0601C46.5895 17.0186 48.6267 16.3685 50.7315 16.1504C52.8364 15.9323 54.9636 16.151 56.9801 16.7927C58.9966 17.4343 60.8589 18.4852 62.4504 19.8796C64.042 21.274 65.3286 22.9818 66.2296 24.8961C67.1307 26.8105 67.6268 28.8902 67.687 31.005C67.7472 33.1199 67.3701 35.2244 66.5793 37.1869C65.7886 39.1494 63.0915 42.4101 63.0915 42.4101" stroke="#F3EC7E" stroke-width="8"/>
</svg>
