<svg width="30" height="32" viewBox="0 0 30 32" fill="none" xmlns="http://www.w3.org/2000/svg">
<path d="M14.9999 19.0758C17.7232 19.0758 19.9309 16.9119 19.9309 14.2425C19.9309 11.5731 17.7232 9.40918 14.9999 9.40918C12.2765 9.40918 10.0688 11.5731 10.0688 14.2425C10.0688 16.9119 12.2765 19.0758 14.9999 19.0758Z" stroke="#61C9C2" stroke-width="3"/>
<path d="M24.1926 22.9254L17.2977 29.5821C16.6884 30.1699 15.8622 30.5 15.0008 30.5C14.1394 30.5 13.3133 30.1699 12.7039 29.5821L5.80738 22.9254C3.98936 21.1701 2.7513 18.9338 2.24975 16.4992C1.74819 14.0646 2.00568 11.541 2.98964 9.24771C3.97359 6.95437 5.63984 4.99424 7.77766 3.61516C9.91548 2.23608 12.4289 1.5 15 1.5C17.5711 1.5 20.0845 2.23608 22.2223 3.61516C24.3602 4.99424 26.0264 6.95437 27.0104 9.24771C27.9943 11.541 28.2518 14.0646 27.7503 16.4992C27.2487 18.9338 26.0106 21.1701 24.1926 22.9254V22.9254Z" stroke="#61C9C2" stroke-width="3"/>
</svg>
