<svg width="300" height="300" viewBox="0 0 300 300" fill="none" xmlns="http://www.w3.org/2000/svg">
<path d="M134.849 41.05C204.667 45.8153 257.63 107.58 253.13 178.986C248.63 250.392 188.365 304.473 118.547 299.708C48.7297 294.942 -4.23286 233.178 0.266747 161.772C4.76635 90.3287 65.0316 36.2847 134.849 41.05Z" fill="#61C9C2"/>
<path d="M132.637 75.8849C183.644 79.3573 222.371 124.499 219.088 176.696C215.806 228.893 171.768 268.382 120.761 264.91C69.7158 261.4 31.0266 216.259 34.3091 164.062C37.5916 111.865 81.6287 72.3755 132.637 75.8849Z" fill="white"/>
<path d="M131.272 97.6058C170.551 100.303 200.389 135.064 197.844 175.255C195.299 215.446 161.405 245.885 122.088 243.189C82.7721 240.492 53.0083 205.731 55.5531 165.54C58.0611 125.311 91.9926 94.9092 131.272 97.6058Z" fill="#61C9C2"/>
<path d="M129.649 123.501C154.95 125.238 174.166 147.624 172.543 173.519C170.92 199.414 149.086 218.993 123.748 217.293C98.4467 215.557 79.2312 193.171 80.854 167.276C82.5137 141.344 104.348 121.765 129.649 123.501Z" fill="white"/>
<path d="M128.358 143.856C142.668 144.816 153.511 157.487 152.589 172.152C151.667 186.781 139.312 197.863 125.002 196.902C110.691 195.942 99.848 183.271 100.77 168.606C101.692 153.977 114.048 142.895 128.358 143.856Z" fill="#61C9C2"/>
<path d="M270.44 88.8213L270.44 29.6069L211.319 29.6069" stroke="#F3EC7E" stroke-width="20"/>
<path d="M229.878 129.447L229.878 70.2329L170.758 70.2329" stroke="#F3EC7E" stroke-width="20"/>
<path d="M266.182 32.2187L122.667 175.961" stroke="#F3EC7E" stroke-width="20"/>
</svg>
