<svg width="281" height="393" viewBox="0 0 281 393" fill="none" xmlns="http://www.w3.org/2000/svg">
<path d="M127.912 228.459L192.415 389.958C193.975 393.874 199.45 394.048 201.283 390.255L208.491 375.159C214.461 362.616 229.076 356.79 242.055 361.748L257.686 367.747C261.624 369.259 265.464 365.342 263.903 361.426L201.357 204.166L127.912 228.459Z" fill="#E85F62"/>
<path d="M152.196 228.459L87.668 389.958C86.1074 393.874 80.6331 394.048 78.8 390.255L71.5917 375.159C65.622 362.616 51.0072 356.79 38.0273 361.748L22.3969 367.747C18.4584 369.259 14.6189 365.342 16.1795 361.426L78.7257 204.166L152.196 228.459Z" fill="#E85F62"/>
<path d="M151.956 5.37296C156.737 11.1487 165.035 12.4625 171.377 8.44676C179.254 3.46423 189.707 6.86028 193.15 15.5363C195.9 22.502 203.405 26.3194 210.663 24.4603C219.705 22.1549 228.597 28.6248 229.192 37.9206C229.663 45.382 235.607 51.3561 243.088 51.8271C252.402 52.422 258.867 61.3212 256.539 70.369C254.681 77.6321 258.496 85.1183 265.456 87.8947C274.126 91.3403 277.52 101.801 272.541 109.684C268.528 116.005 269.841 124.334 275.612 129.118C282.796 135.068 282.796 146.074 275.612 152.048C269.841 156.832 268.528 165.136 272.541 171.482C277.52 179.365 274.126 189.826 265.456 193.272C258.496 196.023 254.681 203.534 256.539 210.797C258.843 219.845 252.377 228.744 243.088 229.339C235.632 229.81 229.663 235.76 229.192 243.246C228.597 252.566 219.705 259.036 210.663 256.706C203.405 254.847 195.925 258.664 193.15 265.63C189.707 274.306 179.254 277.702 171.377 272.72C165.06 268.704 156.737 270.018 151.956 275.793C146.012 282.982 135.013 282.982 129.044 275.793C124.263 270.018 115.965 268.704 109.623 272.72C101.746 277.702 91.2928 274.306 87.8497 265.63C85.1001 258.664 77.5945 254.847 70.3367 256.706C61.2953 259.011 52.4026 252.541 51.8081 243.246C51.3375 235.784 45.3925 229.81 37.9117 229.339C28.5979 228.744 22.1327 219.845 24.4612 210.797C26.319 203.534 22.5043 196.048 15.5437 193.272C6.8739 189.826 3.4803 179.365 8.45923 171.482C12.4721 165.161 11.1592 156.832 5.38765 152.048C-1.79588 146.099 -1.79588 135.092 5.38765 129.118C11.1592 124.334 12.4721 116.03 8.45923 109.684C3.4803 101.801 6.8739 91.3403 15.5437 87.8947C22.5043 85.1431 26.319 77.6321 24.4612 70.369C22.1575 61.3212 28.6227 52.422 37.9117 51.8271C45.3677 51.3561 51.3375 45.4068 51.8081 37.9206C52.4026 28.6 61.2953 22.1301 70.3367 24.4603C77.5945 26.3194 85.0753 22.502 87.8497 15.5363C91.2928 6.86028 101.746 3.46423 109.623 8.44676C115.94 12.4625 124.263 11.1487 129.044 5.37296C134.988 -1.79099 146.012 -1.79099 151.956 5.37296Z" fill="#61C9C2"/>
<path d="M140.512 242.824C196.931 242.824 242.667 197.055 242.667 140.595C242.667 84.1361 196.931 38.3667 140.512 38.3667C84.0937 38.3667 38.3574 84.1361 38.3574 140.595C38.3574 197.055 84.0937 242.824 140.512 242.824Z" fill="#F3EC7E"/>
<path d="M140.513 77.062L161.122 118.881L207.245 125.598L173.879 158.146L181.756 204.104L140.513 182.414L99.2445 204.104L107.122 158.146L73.7554 125.598L119.879 118.881L140.513 77.062Z" fill="#E85F62"/>
</svg>
