<svg width="350" height="350" viewBox="0 0 350 350" fill="none" xmlns="http://www.w3.org/2000/svg">
<path d="M229.876 98.3632C237.477 102.776 242.778 109.797 245.079 118.221C247.279 126.646 246.179 135.472 241.778 143.094C239.178 147.708 235.377 151.619 230.876 154.427L230.676 154.628L229.476 155.23C228.976 155.531 228.476 155.731 227.975 155.932C218.273 160.545 206.971 160.144 197.569 154.728L197.169 154.427C197.069 154.327 196.969 154.327 196.869 154.227C195.769 153.525 194.769 152.823 193.769 152.02L193.369 151.72C193.168 151.519 192.968 151.419 192.768 151.218L178.065 176.492L218.173 199.861L210.572 205.276C209.272 206.179 207.671 207.784 206.271 209.589C206.071 209.89 205.871 210.091 205.771 210.291C205.471 210.692 205.171 211.093 204.871 211.495C204.771 211.695 204.571 211.896 204.371 212.297C204.371 212.297 204.371 212.397 204.271 212.397C200.97 218.315 200.67 225.435 203.571 231.553L203.671 231.754C203.771 231.854 203.771 232.055 203.871 232.155L203.971 232.255L204.271 232.857C204.571 233.359 204.971 233.96 205.471 234.562L205.571 234.663C205.971 235.164 206.271 235.665 206.771 236.167C207.971 237.471 209.272 238.574 210.872 239.577L210.972 239.677C211.072 239.778 211.272 239.878 211.372 239.978L211.672 240.179C211.872 240.279 212.072 240.48 212.372 240.58L212.972 240.881C213.373 241.081 213.673 241.182 214.073 241.382C214.473 241.583 214.973 241.783 215.473 241.884C219.174 243.187 223.275 243.288 227.275 242.185L227.775 241.984C227.875 241.984 228.075 241.884 228.175 241.884L228.376 241.783C229.276 241.483 230.176 241.182 231.076 240.68C231.276 240.58 231.476 240.48 231.676 240.379L231.876 240.279C232.276 240.078 232.776 239.777 233.076 239.577C233.176 239.477 233.377 239.376 233.577 239.276L233.877 239.075C234.177 238.875 234.377 238.674 234.577 238.574C234.777 238.474 234.877 238.373 234.977 238.273C235.177 238.173 235.277 237.972 235.477 237.872L235.677 237.671C235.977 237.37 236.277 237.07 236.577 236.869C237.877 235.565 239.078 234.061 240.078 232.456C241.578 229.848 242.578 226.84 242.878 223.831L243.779 214.403L286.587 239.577L301.89 213.2L306.891 215.707C319.094 221.825 333.897 217.412 340.798 205.577C347.699 193.743 344.199 178.598 332.896 170.976L328.196 167.867L350 130.357L241.778 67.573L225.175 96.0564C226.775 96.7585 228.376 97.4606 229.876 98.3632Z" fill="#61C9C2"/>
<path d="M162.562 180.203L158.662 178.097L122.154 156.734L121.454 156.333L130.156 151.017C130.556 150.716 130.956 150.415 131.356 150.014C131.456 149.914 131.456 149.914 131.556 149.814L132.556 148.811C132.656 148.71 132.756 148.61 132.856 148.51C132.956 148.41 133.057 148.309 133.157 148.109C133.357 147.908 133.457 147.708 133.557 147.607C133.657 147.507 133.757 147.407 133.857 147.306C133.957 147.206 134.057 147.005 134.157 146.905L134.357 146.604C134.457 146.404 134.657 146.303 134.757 146.103C135.057 145.702 135.357 145.2 135.757 144.598L135.957 144.197C135.957 144.097 136.057 143.997 136.057 143.997C136.057 143.896 136.157 143.896 136.157 143.796C136.157 143.796 136.157 143.696 136.257 143.696L136.957 142.191C136.957 142.091 137.057 142.091 137.057 141.991C137.257 141.489 137.457 141.088 137.557 140.587C137.557 140.486 137.657 140.386 137.657 140.286C137.657 140.185 137.757 139.985 137.857 139.885C137.857 139.784 137.957 139.684 137.957 139.584V139.483V139.383C138.057 138.882 138.258 138.28 138.358 137.778C138.358 137.678 138.358 137.678 138.358 137.578C138.358 137.377 138.458 137.277 138.458 137.076L138.558 136.073C138.558 135.973 138.558 135.873 138.558 135.773V135.371C138.558 135.171 138.558 134.87 138.558 134.669V133.165C138.558 132.764 138.558 132.463 138.458 132.062L138.358 131.259C138.358 130.958 138.258 130.557 138.258 130.256L137.757 128.15C137.757 128.05 137.757 128.05 137.657 127.95L137.357 126.947C137.257 126.846 137.257 126.646 137.157 126.445C137.157 126.345 137.057 126.245 137.057 126.245L136.857 125.743C136.757 125.442 136.557 125.141 136.457 124.841C136.357 124.64 136.257 124.439 136.157 124.339L136.057 124.239L135.757 123.537C133.957 120.528 131.456 118.121 128.456 116.316C123.655 113.507 118.154 112.805 112.752 114.209C112.152 114.41 111.452 114.611 110.852 114.811L110.652 114.911C110.052 115.112 109.452 115.413 108.952 115.613H108.852L108.752 115.714L108.552 115.914L107.851 116.215C106.551 117.018 105.251 117.82 104.151 118.923L103.851 119.224C102.45 120.528 101.25 122.032 100.25 123.737C98.7496 126.345 97.7494 129.354 97.4494 132.363L96.5492 141.79L96.3491 141.69L58.6416 119.525L40.4379 150.716L34.9368 145.802C33.8366 144.799 32.6364 143.997 31.3361 143.194C26.5351 140.386 20.934 139.584 15.5329 141.088C10.1318 142.492 5.63094 145.902 2.83038 150.817C-2.97079 160.746 0.429894 173.583 10.4319 179.4C11.6321 180.102 13.0324 180.704 14.4327 181.206L21.4341 183.613L1.73015 218.314L102.85 281.6L105.951 276.284L115.253 260.638H115.053L113.853 260.037C113.653 259.936 113.453 259.836 113.253 259.736L112.952 259.635C112.852 259.535 112.652 259.535 112.552 259.435H112.452C112.352 259.335 112.152 259.335 112.052 259.234L111.452 258.933C111.152 258.833 110.952 258.632 110.652 258.532L110.552 258.432C110.252 258.231 109.952 258.131 109.652 257.93C109.452 257.83 109.252 257.73 109.152 257.63H109.052C108.852 257.529 108.752 257.429 108.552 257.329C108.352 257.228 108.152 257.128 107.951 256.928H107.451L105.951 255.423C105.751 255.323 105.651 255.122 105.451 255.022L105.151 254.821L104.551 254.22C104.351 254.119 104.251 253.919 104.151 253.818L102.85 252.515C102.75 252.414 102.65 252.214 102.45 252.113L101.85 251.411C101.65 251.211 101.55 251.11 101.45 250.91L100.65 249.907C100.65 249.807 100.55 249.807 100.55 249.706L100.35 249.506L100.15 249.205L99.9499 249.004L99.6498 248.503C99.4498 248.202 99.2497 247.901 99.0497 247.6C98.6496 246.898 98.1495 246.096 97.7494 245.293L97.4494 244.792C97.3493 244.591 97.2493 244.391 97.1493 244.19C96.7492 243.388 96.4492 242.485 96.0491 241.482C95.849 240.981 95.649 240.379 95.549 239.978L95.1489 238.774C94.8488 237.671 94.6488 236.768 94.5488 235.766C94.5488 235.665 94.5488 235.665 94.5488 235.565L94.4488 235.164C94.3487 234.562 94.2487 233.96 94.2487 233.258C94.2487 233.158 94.2487 232.957 94.2487 232.857V232.355C94.2487 232.055 94.2487 231.754 94.2487 231.553C94.2487 231.252 94.2487 231.052 94.2487 230.851V229.547C94.2487 229.347 94.2487 229.046 94.2487 228.845L94.3487 227.341C94.3487 227.14 94.3487 227.04 94.3487 226.94C94.3487 226.639 94.4488 226.438 94.4488 226.137C94.4488 225.937 94.5488 225.636 94.5488 225.235C94.5488 225.034 94.6488 224.733 94.7488 224.432V224.332C94.7488 224.131 94.8488 224.031 94.8488 223.831C94.8488 223.63 94.9489 223.329 95.0489 222.928L95.2489 222.126C95.2489 221.925 95.3489 221.724 95.3489 221.624L97.3493 216.509C97.4494 216.308 97.5494 216.008 97.7494 215.807L97.8494 215.606C98.0495 215.306 98.1495 214.904 98.4496 214.604C98.5496 214.403 98.6496 214.202 98.7496 214.002C99.2497 213.099 99.8498 212.297 100.25 211.595C100.45 211.294 100.65 211.093 100.85 210.792C100.95 210.692 101.05 210.592 101.05 210.491L101.65 209.689L101.95 209.388C101.95 209.388 101.95 209.288 102.05 209.288L102.45 208.786C102.55 208.686 102.65 208.586 102.75 208.385C102.95 208.185 103.05 207.984 103.251 207.884C103.451 207.683 103.551 207.583 103.751 207.382C104.051 207.081 104.351 206.781 104.751 206.48L105.151 206.179C105.151 206.179 105.251 206.179 105.251 206.079C105.451 205.978 105.551 205.778 105.651 205.677L106.151 205.276C106.551 204.875 107.051 204.574 107.551 204.173L107.651 204.073L109.652 202.669L111.752 201.565C111.852 201.565 111.852 201.465 111.952 201.465L113.153 200.863C113.353 200.763 113.753 200.663 114.153 200.462C114.253 200.462 114.353 200.362 114.553 200.362H114.653L115.853 199.86H116.053C116.753 199.66 117.453 199.359 118.254 199.158H118.454C118.554 199.158 118.654 199.058 118.754 199.058C119.554 198.857 120.554 198.657 121.554 198.556L122.154 198.456C122.554 198.356 122.954 198.356 123.355 198.356C123.555 198.356 123.755 198.356 123.955 198.356H124.455C124.855 198.356 125.155 198.356 125.455 198.356H126.255C127.355 198.356 128.456 198.356 129.456 198.456L130.556 198.556C130.656 198.556 130.756 198.556 130.956 198.556C131.056 198.556 131.256 198.556 131.356 198.657C131.556 198.657 131.856 198.757 132.056 198.757H132.156C132.356 198.757 132.656 198.857 132.856 198.857L133.357 198.958C134.557 199.259 135.757 199.559 136.957 199.961L137.757 200.261C138.057 200.362 138.358 200.462 138.658 200.663C138.958 200.763 139.358 200.964 139.658 201.064L139.758 201.164C139.958 201.264 140.158 201.365 140.358 201.465C141.058 201.766 141.858 202.167 142.758 202.669C142.858 202.669 142.958 202.769 142.958 202.769L143.659 203.07L143.959 203.371C144.959 203.972 145.859 204.674 146.659 205.276L146.959 205.577C147.159 205.677 147.359 205.878 147.559 206.079C147.559 206.079 147.559 206.079 147.659 206.179L159.962 184.816L162.562 180.203Z" fill="#F3EC7E"/>
<path d="M145.159 152.522L143.859 154.227C143.659 154.527 143.359 154.828 143.159 155.129L164.763 167.766L192.369 120.327L194.969 124.138L197.77 128.05L202.271 134.469C202.871 135.271 204.171 136.675 205.871 137.979L206.071 138.079C206.471 138.38 206.972 138.681 207.372 138.982L207.872 139.283C212.273 141.79 217.674 141.89 222.275 139.684L222.475 139.584C222.575 139.483 222.675 139.483 222.875 139.383L223.175 139.283C225.475 137.879 227.276 136.073 228.576 133.767L228.776 133.466C230.776 129.855 231.276 125.743 230.276 121.832C229.176 117.82 226.575 114.41 222.975 112.304C220.974 111.1 218.674 110.398 216.573 110.198L199.27 108.693L224.675 65.0654L188.868 44.104L197.57 38.8887C200.57 37.0834 203.071 34.5761 204.871 31.467C207.672 26.6529 208.472 21.0364 207.072 15.6205C205.671 10.2047 202.271 5.69144 197.37 2.88322C192.569 0.074988 186.968 -0.727363 181.566 0.676751C176.165 2.08086 171.664 5.49085 168.864 10.4053C167.064 13.4141 166.163 16.9244 166.063 20.4346L165.563 30.5643L124.855 6.69438L113.253 26.6529C121.454 37.1837 122.555 51.626 115.653 63.4607C108.752 75.2954 95.6492 81.4133 82.5466 79.5077L65.1431 109.496L87.9476 122.835C88.0477 122.634 88.0477 122.534 88.1477 122.333C88.2477 122.032 88.4477 121.631 88.6478 121.13C88.8478 120.628 89.0479 120.227 89.3479 119.726C89.648 119.124 89.948 118.522 90.2481 118.121C90.8482 117.118 91.4483 116.115 92.2485 115.012C92.3485 114.811 92.4485 114.711 92.5486 114.51L92.7486 114.209L92.9486 114.009C93.0487 113.808 93.2487 113.708 93.3487 113.507L93.5488 113.307C93.6488 113.206 93.7488 113.006 93.9488 112.906V113.006L94.3489 112.504C94.549 112.304 94.649 112.203 94.749 112.103L98.5498 108.593C98.7498 108.392 99.0499 108.192 99.2499 107.991C99.4499 107.791 99.65 107.69 99.9501 107.49L100.05 107.389C100.25 107.289 100.35 107.189 100.55 107.089C101.05 106.788 101.45 106.487 101.95 106.186C102.05 106.086 102.251 105.985 102.451 105.885H102.551C102.651 105.885 102.751 105.785 102.751 105.785C102.851 105.785 102.851 105.684 102.951 105.684L103.551 105.384C103.751 105.283 103.851 105.183 104.051 105.183C104.251 105.083 104.551 104.982 104.851 104.782C104.951 104.681 105.151 104.581 105.351 104.581C105.851 104.381 106.351 104.18 106.851 103.979C107.051 103.879 107.252 103.779 107.352 103.779C107.552 103.679 107.852 103.578 107.952 103.578C108.152 103.478 108.252 103.478 108.452 103.378C108.652 103.277 108.852 103.277 109.052 103.177C109.352 103.077 109.652 102.976 109.952 102.876C118.354 100.67 127.156 101.873 134.657 106.186C139.258 108.894 143.059 112.605 145.859 117.118L146.059 117.318L146.659 118.522C146.659 118.622 146.759 118.723 146.759 118.823C146.859 118.923 146.959 119.124 146.959 119.324C147.059 119.625 147.26 119.826 147.36 120.127L147.86 121.23C147.86 121.33 147.96 121.431 147.96 121.531C148.06 121.832 148.16 122.032 148.26 122.333L148.46 122.734L148.56 123.136C150.06 127.248 150.66 131.46 150.46 135.773V136.174V136.675C150.46 136.976 150.36 137.377 150.36 137.678C150.36 137.879 150.36 137.979 150.36 138.079V138.18L150.26 139.082C150.26 139.183 150.26 139.183 150.26 139.283C150.26 139.383 150.26 139.584 150.16 139.684L150.06 140.286C149.96 140.587 149.96 140.888 149.86 141.289C149.76 141.69 149.76 141.991 149.66 142.191V142.392C149.66 142.492 149.56 142.693 149.56 142.793C149.56 142.893 149.46 143.094 149.36 143.395C149.36 143.495 149.26 143.595 149.26 143.796C149.26 143.896 149.16 143.997 149.16 144.097C148.66 145.802 147.96 147.407 147.16 149.011C147.06 149.112 147.059 149.212 146.959 149.312C146.959 149.412 146.859 149.513 146.759 149.613C146.659 149.914 146.459 150.115 146.359 150.415C146.359 150.415 146.359 150.516 146.259 150.516L145.959 150.917C145.859 151.017 145.859 151.117 145.759 151.218C145.559 151.519 145.359 151.82 145.159 152.221C145.059 152.321 145.059 152.421 144.959 152.622V152.522H145.159Z" fill="#F5F3F3"/>
<path d="M152.46 221.423L149.46 226.638L145.859 221.423L143.058 217.612C142.958 217.512 142.858 217.411 142.858 217.311C142.658 217.01 142.258 216.709 141.858 216.308L141.458 215.907C141.358 215.807 141.258 215.706 141.058 215.606L140.558 215.105C140.458 215.004 140.358 215.004 140.358 214.904C140.258 214.804 140.158 214.804 140.158 214.704L139.758 214.403C139.658 214.302 139.458 214.202 139.358 214.102C138.757 213.701 138.157 213.199 137.357 212.798L136.757 212.397C136.357 212.196 135.957 211.996 135.457 211.695C135.257 211.594 135.057 211.494 134.857 211.394C134.657 211.294 134.557 211.294 134.357 211.193C134.157 211.093 133.957 210.993 133.756 210.993L133.356 210.892C132.556 210.591 131.856 210.391 130.956 210.291L130.556 210.19C130.456 210.19 130.256 210.19 130.156 210.09C130.056 210.09 129.856 210.09 129.756 209.99C129.656 209.99 129.456 209.99 129.356 209.889C129.256 209.889 129.156 209.889 129.056 209.889L128.555 209.789C127.955 209.689 127.355 209.689 126.555 209.689H125.255C125.155 209.689 125.055 209.689 125.055 209.689H124.855C124.655 209.689 124.555 209.689 124.355 209.689L123.554 209.789C122.954 209.889 122.454 209.99 122.054 210.09L121.854 210.19C121.754 210.19 121.654 210.291 121.554 210.291C121.054 210.391 120.554 210.591 120.254 210.692C119.954 210.792 119.654 210.892 119.454 210.993C119.354 210.993 119.354 210.993 119.254 211.093L118.653 211.294C118.653 211.294 118.553 211.294 118.453 211.394L117.953 211.594C117.753 211.695 117.553 211.795 117.353 211.895L117.253 211.996L116.153 212.999H115.553L115.353 213.099L114.353 213.801C114.253 213.901 114.253 213.901 114.153 214.001L113.552 214.503C113.452 214.603 113.352 214.704 113.152 214.804C113.052 214.904 113.052 214.904 112.952 215.004C112.752 215.205 112.552 215.406 112.352 215.606L112.152 215.807C112.052 215.907 112.052 215.907 111.952 216.007L111.452 216.609C111.452 216.609 111.452 216.609 111.452 216.709C111.352 216.81 111.352 216.81 111.352 216.91C111.252 217.01 111.152 217.111 111.052 217.311C110.952 217.411 110.952 217.512 110.852 217.612L110.452 218.214C110.152 218.715 109.752 219.217 109.452 219.718L108.651 221.223C108.551 221.423 108.451 221.524 108.351 221.724C108.351 221.824 108.251 221.925 108.251 221.925V222.025V222.125L108.151 222.426L108.051 222.627C107.951 222.827 107.851 223.028 107.851 223.229V223.329L107.651 223.931L107.451 224.833L107.251 225.736C107.251 226.037 107.151 226.237 107.151 226.538L106.951 227.742C106.951 227.842 106.951 227.942 106.951 228.043L106.851 228.945C106.851 229.046 106.851 229.246 106.851 229.346V230.55C106.851 230.851 106.851 231.051 106.851 231.252V231.653C106.851 231.753 106.851 231.753 106.851 231.854V232.255C106.851 232.456 106.951 232.756 106.951 233.158V233.258V233.559C107.051 234.161 107.151 234.662 107.351 235.364L107.651 236.467C107.751 236.668 107.751 236.868 107.851 237.069V237.169C108.051 237.871 108.351 238.373 108.551 238.874L108.651 238.975C108.651 239.075 108.751 239.175 108.751 239.276C108.851 239.476 108.951 239.576 108.951 239.777C109.252 240.278 109.552 240.78 109.752 241.281L109.852 241.382C109.852 241.482 109.952 241.482 109.952 241.582L110.252 241.883L110.652 242.686C110.752 242.786 110.852 242.986 110.952 243.087L111.152 243.388C111.252 243.488 111.252 243.588 111.352 243.588C111.552 243.789 111.652 243.889 111.752 243.989L111.952 244.19C112.052 244.29 112.152 244.39 112.252 244.591L112.552 244.892H112.752L114.253 246.396C114.253 246.396 114.253 246.396 114.353 246.497L115.053 246.998C115.153 247.098 115.353 247.199 115.553 247.299H115.653C115.753 247.399 115.953 247.5 116.053 247.5C116.253 247.6 116.453 247.7 116.653 247.8L117.353 248.202C117.553 248.302 117.653 248.402 117.853 248.503C117.953 248.503 118.053 248.603 118.053 248.603H118.153L119.154 249.104C119.354 249.205 119.554 249.205 119.654 249.305C119.954 249.405 120.154 249.505 120.454 249.606L120.754 249.706C120.854 249.706 120.954 249.806 121.054 249.806L121.954 250.107C122.854 250.408 123.754 250.508 124.755 250.709H125.055H135.257L129.856 259.836L116.353 282.402L113.052 287.918L164.163 319.912L215.673 350L228.976 327.233C220.174 316.702 218.674 301.558 225.775 289.422C232.876 277.287 246.779 271.069 260.182 273.676L273.685 250.408L256.181 240.178C256.181 240.178 256.181 240.178 256.181 240.278L256.081 240.479C251.08 249.205 242.878 255.423 233.176 258.03C223.474 260.638 213.272 259.234 204.571 254.219L204.471 254.119C199.37 251.11 194.969 246.898 191.868 241.983L191.768 241.883L190.968 240.579C190.468 239.777 190.068 238.975 189.668 238.172C189.668 238.172 189.668 238.172 189.668 238.072L189.168 237.069V236.969C185.167 227.641 184.967 217.211 188.667 207.984L188.167 207.683L190.368 204.072V203.27L191.368 202.267L170.464 190.031L152.46 221.423Z" fill="#F5F3F3"/>
</svg>
