<svg width="491" height="492" viewBox="0 0 491 492" fill="none" xmlns="http://www.w3.org/2000/svg">
<path d="M243.387 201.841L212.35 208.563L103.873 143.084L194.081 141.272C199.931 141.142 205.453 144.394 208.814 149.938L243.387 201.841Z" fill="#61C9C2"/>
<path d="M245.155 291.962L213.856 285.195L108.02 354.974L198.251 353.185C204.1 353.054 209.513 349.605 212.634 343.952L245.155 291.962Z" fill="#61C9C2"/>
<path d="M146.732 241.761L50.3688 212.055L66.7823 238.596L21.6671 254.464L57.7243 263.064L51.8749 288.557L147.016 255.01L146.732 241.761Z" fill="#E85F62"/>
<path d="M355.051 149.719C407.217 148.671 450.346 190.316 451.371 242.765C452.397 294.472 412.87 337.011 361.468 339.478C330.693 340.962 302.843 327.561 284.574 305.712C275.254 294.559 261.22 288.557 246.749 288.841C223.678 289.299 204.602 270.877 204.166 247.698C203.707 224.496 222.041 205.333 245.112 204.874C259.823 204.569 273.574 197.584 282.675 185.951C299.569 164.386 325.608 150.308 355.051 149.719Z" fill="#F3EC7E"/>
<path d="M155.663 247.742C156.012 265.29 170.44 279.237 187.923 278.91L186.679 215.329C169.196 215.657 155.314 230.193 155.663 247.742Z" fill="white"/>
<path d="M221.783 202.274L223.548 292.386L245.12 291.963L243.354 201.851L221.783 202.274Z" fill="white"/>
<path d="M201.078 202.702L202.843 292.815L224.415 292.392L222.649 202.28L201.078 202.702Z" fill="white"/>
</svg>
