<svg width="32" height="32" viewBox="0 0 32 32" fill="none" xmlns="http://www.w3.org/2000/svg">
<path d="M31.9984 20.1929C31.9998 17.2587 31.9998 14.3243 31.9984 11.3898C31.9984 11.3475 31.9984 11.3056 31.9964 11.2636C32.0056 10.577 31.9289 9.89422 31.9107 9.20886C31.8599 9.06208 31.8585 8.91067 31.862 8.75835C31.8523 8.1978 31.7343 7.65136 31.6447 7.10122C31.5867 6.88417 31.5221 6.66943 31.4637 6.45284C31.3069 5.73304 30.9804 5.08188 30.6509 4.43142C30.5329 4.21229 30.3738 4.01928 30.2584 3.7983C30.1265 3.61338 29.9977 3.42591 29.8372 3.26365C29.625 3.01562 29.4179 2.76297 29.1785 2.53968C29.0416 2.40723 28.9111 2.26785 28.7511 2.16128C28.728 2.14349 28.7061 2.12569 28.6818 2.10881C28.6065 2.04525 28.5354 1.97683 28.4521 1.92389C28.3938 1.8836 28.3382 1.83943 28.2858 1.79167C28.0868 1.63541 27.858 1.52562 27.649 1.38508C27.486 1.29909 27.3177 1.22327 27.1584 1.13081C26.8027 0.945992 26.4339 0.787462 26.0551 0.656489C25.8582 0.568883 25.6414 0.58437 25.4363 0.539064C25.2978 0.557094 25.1791 0.496301 25.0556 0.452613L24.1883 0.273933C23.9059 0.250818 23.6203 0.246426 23.3419 0.19904C22.7706 0.102188 22.1874 0.192568 21.6194 0.0760678L20.7099 0.0603495H20.2485C19.0192 -0.0270257 17.7881 0.0619676 16.5583 0.0208226C16.197 0.0393148 15.8361 0.0515658 15.4752 0.0143504C15.2037 0.0356163 14.9323 -0.0184731 14.6613 0.00695356C14.2473 0.0455558 13.83 0.0691333 13.4184 0.0326114C12.7079 -0.030493 12.0027 0.0603495 11.2941 0.0589626C9.99738 0.107967 8.70135 0.164137 7.41341 0.336344L6.94746 0.45192C6.82116 0.480583 6.70525 0.554089 6.56902 0.539064C6.43671 0.593616 6.29033 0.547154 6.15756 0.597314C6.06774 0.620429 5.97954 0.649554 5.89134 0.679142C5.78951 0.717282 5.6863 0.751723 5.58586 0.79333C5.18225 0.932021 4.79273 1.10261 4.42814 1.3266C4.0587 1.54712 3.70104 1.7822 3.37086 2.05819C3.26511 2.1636 3.13188 2.23502 3.02636 2.34043C2.80816 2.56071 2.59043 2.78146 2.36923 2.99875C2.26371 3.10346 2.19421 3.23845 2.08707 3.34154C1.81923 3.62193 1.64028 3.96565 1.42578 4.28279C1.17041 4.68384 0.978302 5.11494 0.822678 5.5636C0.781116 5.66461 0.745787 5.76771 0.708613 5.87034C0.679982 5.9591 0.650658 6.04763 0.62549 6.13755C0.593566 6.27532 0.553552 6.41109 0.505656 6.54415C0.477256 6.67151 0.443313 6.79841 0.407063 6.92277C0.358574 7.08828 0.349569 7.2628 0.294385 7.42645C0.205489 7.75006 0.217034 8.09009 0.149843 8.4174C0.0623325 9.35865 0.0300068 10.3029 0.00830243 11.2474C0.00830243 11.2881 0.00714964 11.3287 0.00714964 11.3692C0.000453618 11.6161 -0.00485702 11.8627 0.00714964 12.1089C0.010844 14.6942 0.010844 17.2799 0.00714964 19.8659C-0.00134078 19.989 -0.00134078 20.1126 0.00714964 20.2357C0.00368618 20.3959 -0.00185535 20.5561 0.00714964 20.7163C0.0274686 21.0154 -0.0180182 21.3159 0.0302394 21.6143C0.107359 21.8593 0.0690301 22.1113 0.0764188 22.3604C0.0995086 23.1653 0.174318 23.9644 0.332252 24.7549C0.376123 24.9826 0.407986 25.2124 0.490878 25.4306C0.55617 25.5632 0.598932 25.7058 0.61741 25.8524C0.736322 26.3106 0.954752 26.7269 1.15863 27.1492C1.21192 27.243 1.25696 27.3412 1.29325 27.4428C1.45834 27.7301 1.63105 28.0123 1.82038 28.2844C1.8686 28.3378 1.91341 28.3943 1.95454 28.4534C2.00787 28.5377 2.0783 28.6085 2.14064 28.6845C2.15819 28.7076 2.17504 28.7307 2.19328 28.7513C2.29534 28.9092 2.43549 29.0333 2.56272 29.1674C2.6754 29.2753 2.78607 29.3855 2.89475 29.4982C2.97603 29.5772 3.05638 29.6574 3.15243 29.7192C3.23763 29.7712 3.30575 29.8426 3.37479 29.9129C3.51979 30.0391 3.67495 30.1512 3.83242 30.2621C4.05201 30.3777 4.24804 30.5337 4.4637 30.6551C5.25613 31.0688 6.0749 31.414 6.95369 31.5993C7.14349 31.6326 7.33513 31.6564 7.52031 31.7114C7.95001 31.7794 8.37764 31.8642 8.81496 31.8675C9.63834 31.962 10.4661 31.9775 11.2934 31.9974C11.3347 31.9974 11.3765 31.9988 11.4181 31.999C14.3482 31.999 17.2786 31.999 20.2093 31.999C20.3728 31.9928 20.5362 32.0057 20.6997 31.9967C20.877 31.9886 21.0555 32.0032 21.2308 31.9713C21.4757 31.8964 21.7272 31.9387 21.9759 31.9292C22.6536 31.945 23.3313 31.8957 23.9997 31.7819C24.2618 31.7052 24.5416 31.7452 24.8009 31.6532C25.6127 31.4752 26.3999 31.2253 27.145 30.8518C27.3828 30.7304 27.6118 30.5936 27.8439 30.4621C28.0646 30.3555 28.2431 30.1877 28.4398 30.046C28.5632 29.9607 28.6791 29.8649 28.7862 29.7598C29.1242 29.4672 29.4646 29.1766 29.7506 28.8299C29.8696 28.6799 29.9815 28.5236 30.0998 28.3739C30.1709 28.277 30.2369 28.1764 30.3094 28.0805C30.5054 27.777 30.6816 27.4617 30.8516 27.1434C31.2009 26.4777 31.4191 25.7651 31.6029 25.04C31.6927 24.7078 31.6953 24.3606 31.7756 24.0266C31.868 23.463 31.9266 22.8965 31.9269 22.3244C31.9269 22.2867 31.9269 22.2488 31.9269 22.2109C31.9309 22.1358 31.9309 22.0606 31.9269 21.9855C31.9361 21.7255 31.8918 21.462 31.9714 21.2061C32.0017 21.0313 31.9869 20.8545 31.9945 20.6788C32.0044 20.5196 31.9977 20.3561 31.9984 20.1929Z" fill="white"/>
<path d="M6.3476 15.3078C12.5021 12.5433 20.4659 9.1729 21.5656 8.70631C24.4491 7.48544 25.334 7.71918 24.8929 10.4234C24.5759 12.3671 23.662 18.8014 22.9329 22.8066C22.5006 25.1818 21.5304 25.4632 20.0054 24.4356C19.272 23.9412 15.5696 21.441 14.7657 20.8539C14.0323 20.319 13.0206 19.6753 14.2894 18.4077C14.7411 17.9564 17.7003 15.0705 20.0063 12.8247C20.3083 12.5299 19.9288 12.0453 19.5801 12.2817C16.4721 14.3863 12.1631 17.3073 11.6145 17.6876C10.786 18.262 9.99008 18.5254 8.56197 18.1065C7.48252 17.79 6.4286 17.4125 6.0183 17.2686C4.43787 16.7148 4.81294 15.9974 6.3476 15.3078Z" fill="#0E2E93"/>
</svg>
