<svg width="60" height="60" viewBox="0 0 60 60" fill="none" xmlns="http://www.w3.org/2000/svg">
<path d="M59.9969 37.8609C59.9995 32.3602 59.9995 26.8586 59.9969 21.3561C59.9969 21.2772 59.9969 21.1988 59.993 21.1199C60.0103 19.8323 59.8661 18.5521 59.8324 17.2672C59.7371 16.9924 59.7341 16.7081 59.741 16.423C59.7228 15.3716 59.5016 14.3475 59.3336 13.3161C59.2245 12.9091 59.1037 12.5065 58.9942 12.1004C58.7002 10.7509 58.0876 9.52964 57.4702 8.31054C57.249 7.8997 56.9507 7.53783 56.7342 7.12309C56.487 6.77638 56.2455 6.42535 55.9441 6.12068C55.5467 5.6561 55.1579 5.18242 54.7094 4.76377C54.4527 4.51545 54.2076 4.25369 53.908 4.0539C53.8647 4.02096 53.8214 3.98716 53.7781 3.95596C53.637 3.83678 53.5036 3.70806 53.3452 3.60925C53.2359 3.53386 53.1317 3.45119 53.0335 3.36179C52.6603 3.06883 52.2312 2.86254 51.8394 2.59905C51.5338 2.43826 51.2181 2.29568 50.919 2.12233C50.2522 1.77581 49.561 1.47859 48.8508 1.23304C48.4815 1.06879 48.075 1.09739 47.6905 1.01245C47.4308 1.04669 47.2082 0.932707 46.9766 0.850799L45.3505 0.515797C44.821 0.472459 44.2855 0.463792 43.7633 0.375382C42.6922 0.193797 41.5986 0.362814 40.5336 0.144392L38.8347 0.113622H37.9667C35.6604 -0.0506286 33.352 0.117956 31.0457 0.0386474C30.3686 0.0733177 29.6919 0.0967201 29.0152 0.0269462C28.506 0.0663836 27.9973 -0.0345936 27.4891 0.013078C26.7128 0.0854522 25.9305 0.129223 25.1585 0.0607497C23.8264 -0.0575626 22.5042 0.112755 21.1755 0.110588C18.7463 0.204631 16.3153 0.307342 13.9008 0.631076L13.0271 0.847765C12.7903 0.901504 12.5729 1.03932 12.3171 1.01115C12.0694 1.11343 11.7949 1.02632 11.546 1.12036C11.3776 1.1637 11.2118 1.2183 11.0468 1.27378C10.8559 1.34485 10.6624 1.40986 10.474 1.48743C9.71726 1.74746 8.98689 2.06729 8.30284 2.48767C7.61013 2.90111 6.93994 3.34186 6.32084 3.85888C6.12255 4.0565 5.87274 4.19041 5.67489 4.38847C5.26576 4.80104 4.85749 5.21535 4.44274 5.62229C4.24488 5.81905 4.11457 6.07171 3.91325 6.26543C3.41147 6.79112 3.07594 7.43555 2.67374 8.02971C2.1949 8.78552 1.8347 9.59161 1.54289 10.4324C1.46497 10.6213 1.39873 10.815 1.32902 11.007C1.27534 11.1739 1.22035 11.3399 1.17316 11.5084C1.1133 11.7666 1.03827 12.021 0.948467 12.2703C0.895215 12.5095 0.831573 12.747 0.763601 12.9806C0.672683 13.2905 0.655798 13.6177 0.552325 13.9245C0.38521 14.5313 0.40729 15.1692 0.281304 15.7829C0.117219 17.548 0.0566077 19.3166 0.0159112 21.0891C0.0159112 21.1654 0.0159112 21.2417 0.0159112 21.3175C0.00335591 21.7799 -0.00660174 22.2428 0.0159112 22.7043C0.019952 27.5533 0.0186532 32.4013 0.0120147 37.2485C-0.00400491 37.4801 -0.00400491 37.7125 0.0120147 37.9441C0.00552061 38.2444 -0.00486998 38.5448 0.0120147 38.8451C0.0501136 39.4054 -0.0351759 39.9693 0.0553089 40.5283C0.199478 40.9877 0.128043 41.4605 0.141897 41.9277C0.185191 43.4367 0.325464 44.9349 0.621596 46.4171C0.703855 46.8435 0.763168 47.2747 0.918594 47.6838C1.04134 47.9324 1.12168 48.1997 1.15628 48.4748C1.37924 49.3333 1.78881 50.1138 2.17109 50.906C2.27109 51.0818 2.35555 51.2659 2.4235 51.4564C2.73305 51.9947 3.05689 52.5242 3.4119 53.0343C3.50231 53.1345 3.58632 53.2403 3.66344 53.3511C3.76345 53.5093 3.89507 53.6419 4.01239 53.7845C4.0453 53.8278 4.0769 53.8712 4.1111 53.9093C4.30246 54.2058 4.56526 54.4385 4.80381 54.6894C5.01508 54.8916 5.22261 55.0984 5.42638 55.3096C5.57877 55.4578 5.72944 55.6077 5.90954 55.7239C6.0693 55.8214 6.19701 55.9553 6.32646 56.087C6.60135 56.3195 6.88774 56.5379 7.18455 56.7415C7.59585 56.9603 7.96385 57.2511 8.36821 57.4782C9.85407 58.2539 11.3893 58.901 13.0371 59.249C13.3925 59.311 13.7523 59.356 14.0995 59.4592C14.9048 59.5866 15.707 59.7456 16.527 59.7517C18.0709 59.9285 19.623 59.958 21.1738 59.9953C21.2517 59.9953 21.33 59.9979 21.408 59.9983C26.902 59.9983 32.3966 59.9983 37.8918 59.9983C38.1983 59.9866 38.5048 60.0109 38.8113 59.9935C39.1438 59.9788 39.4785 60.0061 39.8071 59.9459C40.2665 59.8054 40.7379 59.8847 41.2038 59.867C42.4746 59.8969 43.7453 59.8046 44.9985 59.5913C45.4899 59.4475 46.0151 59.5224 46.5013 59.35C48.0235 59.0163 49.4994 58.5478 50.8965 57.8474C51.3424 57.6195 51.7719 57.3633 52.207 57.1168C52.6209 56.917 52.9555 56.6023 53.3244 56.3367C53.5558 56.1767 53.773 55.9972 53.9738 55.8002C54.6081 55.2515 55.2462 54.7067 55.7826 54.0567C56.0056 53.775 56.2156 53.482 56.4368 53.2016C56.5706 53.02 56.6944 52.8311 56.8304 52.6517C57.1979 52.0826 57.5283 51.4915 57.8469 50.8943C58.5015 49.6466 58.9111 48.3101 59.2553 46.9506C59.4241 46.3282 59.431 45.6773 59.5791 45.0511C59.7523 43.9945 59.8627 42.9318 59.8631 41.8597C59.8631 41.7886 59.8631 41.7175 59.8631 41.6464C59.8709 41.5058 59.8709 41.3649 59.8631 41.2243C59.8809 40.7364 59.7973 40.2427 59.9471 39.763C60.0038 39.4353 59.9761 39.1038 59.9904 38.7744C60.0082 38.4719 59.9956 38.1686 59.9969 37.8609Z" fill="white"/>
<path fill-rule="evenodd" clip-rule="evenodd" d="M23.1407 20.5732C23.6429 19.4711 24.5841 19.2232 25.5349 19.1132C27.4518 18.8966 29.3868 18.892 31.3047 19.0997C32.9468 19.2731 33.4577 19.8291 33.4729 21.4681C33.4893 23.3083 33.4261 25.1493 33.4075 26.9902C33.4019 27.5593 33.3967 28.1318 33.4482 28.6978C33.5045 29.3166 33.6365 29.9797 34.3032 30.199C34.9405 30.4087 35.3696 29.8908 35.732 29.4735C37.7334 27.1723 39.2223 24.549 40.2956 21.7117C40.7757 20.4423 41.4723 19.9782 42.8313 20.0484C44.7506 20.1489 46.6819 19.9973 48.6081 20.002C50.2576 20.0064 50.6468 20.6109 50.0147 22.1472C49.2415 24.0281 47.9989 25.6199 46.7979 27.2334C46.0663 28.2163 45.2956 29.1714 44.5761 30.163C43.2747 31.9568 43.3288 32.5189 44.9636 34.0738C46.265 35.312 47.6119 36.5055 48.7302 37.9188C49.1895 38.4995 49.6359 39.1045 49.9857 39.7532C50.6243 40.9329 50.2623 41.8404 48.9696 41.9414C46.7458 42.1214 44.5135 42.1743 42.2837 42.1C40.9727 42.0519 39.9722 41.1444 39.0851 40.2009C38.1556 39.2128 37.2784 38.164 36.271 37.2639C35.2635 36.3638 34.4799 36.6004 33.921 37.8464C33.5577 38.6568 33.44 39.5249 33.4374 40.4081C33.4374 41.3208 32.9741 41.7381 32.0727 41.814C26.6952 42.2673 22.1536 40.649 18.6516 36.4318C14.962 31.9845 12.3142 26.914 9.93644 21.6887C9.43293 20.5823 9.71434 20.0909 10.908 20.035C12.7874 19.9483 14.6746 19.9483 16.5544 19.9656C17.5441 19.9747 18.0987 20.5832 18.4663 21.4876C19.5231 24.0879 20.8518 26.5521 22.5454 28.7957C23.0736 29.4952 23.5975 30.5669 24.6586 30.2259C25.6141 29.9169 25.4855 28.8018 25.6011 27.948C25.7908 26.5491 25.6812 25.151 25.6262 23.7486C25.5609 22.09 25.0474 20.8332 23.1407 20.5732Z" fill="#0E2E93"/>
</svg>
