<svg width="50" height="50" viewBox="0 0 50 50" fill="none" xmlns="http://www.w3.org/2000/svg">
<path d="M49.9974 31.5507C49.9996 26.9668 49.9996 22.3821 49.9974 17.7967C49.9974 17.731 49.9974 17.6657 49.9942 17.5999C50.0086 16.5269 49.8885 15.4601 49.8603 14.3893C49.7809 14.1603 49.7784 13.9234 49.7842 13.6858C49.769 12.8096 49.5847 11.9563 49.4447 11.0967C49.3538 10.7576 49.2531 10.4221 49.1618 10.0837C48.9169 8.95908 48.4063 7.94136 47.8919 6.92545C47.7075 6.58308 47.4589 6.28152 47.2785 5.9359C47.0725 5.64698 46.8712 5.35445 46.6201 5.10057C46.2889 4.71342 45.9649 4.31868 45.5912 3.96981C45.3772 3.76287 45.173 3.54474 44.9233 3.37825C44.8873 3.3508 44.8512 3.32263 44.8151 3.29663C44.6975 3.19731 44.5864 3.09005 44.4543 3.00771C44.3632 2.94488 44.2764 2.87599 44.1946 2.80149C43.8836 2.55736 43.526 2.38545 43.1995 2.16587C42.9448 2.03189 42.6818 1.91307 42.4325 1.76861C41.8768 1.47985 41.3008 1.23216 40.709 1.02753C40.4013 0.890657 40.0625 0.914492 39.7421 0.843707C39.5256 0.872238 39.3402 0.777256 39.1472 0.708999L37.7921 0.429831C37.3508 0.393716 36.9045 0.386493 36.4694 0.312819C35.5769 0.161497 34.6655 0.302345 33.778 0.120326L32.3623 0.0946849H31.6389C29.717 -0.0421905 27.7933 0.0982964 25.8714 0.0322061C25.3071 0.061098 24.7432 0.0806001 24.1793 0.0224551C23.755 0.0553197 23.3311 -0.028828 22.9076 0.0108984C22.2607 0.0712102 21.6087 0.107686 20.9655 0.0506247C19.8553 -0.0479689 18.7535 0.0939626 17.6462 0.0921568C15.6219 0.170526 13.5961 0.256118 11.584 0.525896L10.8559 0.706471C10.6586 0.751253 10.4775 0.866098 10.2642 0.842624C10.0579 0.927855 9.82912 0.855264 9.62167 0.933633C9.48132 0.969748 9.34314 1.01525 9.20568 1.06148C9.04658 1.12071 8.88531 1.17488 8.72837 1.23953C8.09772 1.45622 7.48907 1.72274 6.91903 2.07306C6.34178 2.41759 5.78328 2.78488 5.26736 3.21573C5.10212 3.38042 4.89395 3.49201 4.72907 3.65706C4.38813 4.00087 4.04791 4.34613 3.70228 4.68525C3.5374 4.84921 3.42881 5.05976 3.26104 5.22119C2.84289 5.65926 2.56328 6.19629 2.22811 6.69143C1.82909 7.32127 1.52891 7.99301 1.28575 8.69363C1.2208 8.8511 1.1656 9.01253 1.10752 9.17252C1.06278 9.31156 1.01696 9.44988 0.977636 9.59037C0.927753 9.8055 0.865228 10.0175 0.790389 10.2253C0.746012 10.4246 0.692977 10.6225 0.636334 10.8172C0.560569 11.0754 0.546499 11.3481 0.460271 11.6038C0.321008 12.1094 0.339408 12.641 0.23442 13.1524C0.0976829 14.6233 0.0471731 16.0972 0.0132593 17.5743C0.0132593 17.6378 0.0132593 17.7014 0.0132593 17.7646C0.00279659 18.15 -0.00550145 18.5357 0.0132593 18.9203C0.0166267 22.9611 0.0155443 27.0011 0.0100123 31.0404C-0.00333743 31.2334 -0.00333743 31.4271 0.0100123 31.6201C0.00460051 31.8703 -0.00405831 32.1206 0.0100123 32.3709C0.0417613 32.8379 -0.0293132 33.3077 0.0460907 33.7736C0.166232 34.1564 0.106702 34.5504 0.118248 34.9398C0.154326 36.1973 0.27122 37.4458 0.517997 38.6809C0.586546 39.0363 0.635973 39.3956 0.765495 39.7365C0.867785 39.9436 0.934733 40.1664 0.963565 40.3956C1.14937 41.1111 1.49067 41.7615 1.80924 42.4217C1.89257 42.5681 1.96295 42.7216 2.01958 42.8803C2.27754 43.3289 2.54741 43.7702 2.84325 44.1953C2.91859 44.2788 2.9886 44.367 3.05287 44.4593C3.13621 44.5911 3.24589 44.7016 3.34366 44.8204C3.37108 44.8565 3.39742 44.8927 3.42592 44.9244C3.58539 45.1715 3.80438 45.3654 4.00317 45.5745C4.17924 45.743 4.35217 45.9153 4.52198 46.0913C4.64898 46.2148 4.77453 46.3398 4.92462 46.4366C5.05775 46.5178 5.16418 46.6294 5.27205 46.7392C5.50112 46.9329 5.73978 47.1149 5.98713 47.2845C6.32987 47.4669 6.63654 47.7093 6.97351 47.8985C8.21172 48.5449 9.49107 49.0841 10.8642 49.3741C11.1604 49.4258 11.4602 49.4633 11.7496 49.5493C12.4206 49.6555 13.0892 49.788 13.7725 49.7931C15.0591 49.9404 16.3525 49.965 17.6448 49.996C17.7097 49.996 17.775 49.9982 17.84 49.9986C22.4183 49.9986 26.9972 49.9986 31.5765 49.9986C31.8319 49.9888 32.0874 50.009 32.3428 49.9946C32.6199 49.9823 32.8988 50.0051 33.1726 49.9549C33.5554 49.8379 33.9483 49.904 34.3365 49.8891C35.3955 49.9141 36.4544 49.8371 37.4988 49.6595C37.9082 49.5396 38.3459 49.602 38.751 49.4583C40.0196 49.1802 41.2495 48.7898 42.4137 48.2062C42.7853 48.0162 43.1432 47.8028 43.5058 47.5973C43.8507 47.4308 44.1296 47.1686 44.437 46.9472C44.6298 46.8139 44.8109 46.6643 44.9782 46.5001C45.5067 46.0429 46.0385 45.5889 46.4855 45.0472C46.6713 44.8125 46.8463 44.5683 47.0307 44.3347C47.1422 44.1834 47.2453 44.0259 47.3586 43.8764C47.6649 43.4022 47.9402 42.9096 48.2058 42.4119C48.7513 41.3722 49.0926 40.2584 49.3794 39.1255C49.5201 38.6069 49.5259 38.0644 49.6493 37.5426C49.7936 36.6621 49.8856 35.7765 49.8859 34.8831C49.8859 34.8238 49.8859 34.7646 49.8859 34.7054C49.8924 34.5882 49.8924 34.4708 49.8859 34.3536C49.9007 33.947 49.8311 33.5356 49.9559 33.1358C50.0032 32.8628 49.9801 32.5865 49.992 32.312C50.0068 32.06 49.9963 31.8071 49.9974 31.5507Z" fill="#61C9C2"/>
<path fill-rule="evenodd" clip-rule="evenodd" d="M11.5825 32.6013C10.221 30.2531 9.50475 27.5888 9.50569 24.8598L9.50543 24.8593C9.50902 16.3213 16.4887 9.375 25.0654 9.375C29.2276 9.37679 33.1339 10.9896 36.0718 13.9164C39.0092 16.8432 40.6264 20.7339 40.625 24.8718C40.6214 33.4094 33.6404 40.3571 25.0654 40.3571H25.0588C22.4548 40.356 19.8962 39.7057 17.6235 38.4719L9.375 40.625L11.5825 32.6013ZM14.1096 31.7099L14.4175 32.1967L13.1103 36.9461L18.0053 35.6684L18.4778 35.9472C20.4629 37.1199 22.7391 37.7402 25.0601 37.7415H25.0651C32.1932 37.7415 37.9946 31.9673 37.9978 24.8706C37.9987 21.4316 36.6551 18.1977 34.2132 15.765C31.7711 13.3325 28.5245 11.9918 25.07 11.9904C17.9365 11.9904 12.1352 17.7642 12.1324 24.8605C12.1315 27.2922 12.8148 29.6606 14.1096 31.7099ZM20.3023 17.7163C20.5794 17.7277 20.8859 17.7406 21.1772 18.3851L21.1769 18.385C21.3757 18.8251 21.71 19.6451 21.9768 20.2993C22.1739 20.7827 22.3341 21.1757 22.3755 21.258C22.4726 21.4516 22.5375 21.6776 22.4077 21.9359C22.3883 21.9747 22.3703 22.0113 22.3531 22.0462C22.2558 22.244 22.1843 22.3894 22.0195 22.5814C21.9545 22.6569 21.8874 22.7382 21.8203 22.8194C21.6864 22.9816 21.5524 23.1437 21.4361 23.2592C21.2412 23.4522 21.0386 23.6619 21.2654 24.0489C21.4923 24.4364 22.2725 25.7033 23.4283 26.7292C24.6697 27.8311 25.7483 28.2972 26.2961 28.534C26.4037 28.5805 26.4909 28.6182 26.5548 28.6501C26.9435 28.8437 27.1704 28.8114 27.3972 28.5528C27.6241 28.2946 28.3686 27.4231 28.6278 27.036C28.8871 26.6485 29.1463 26.713 29.5028 26.842C29.8591 26.9712 31.7704 27.9076 32.1593 28.1012C32.235 28.1388 32.3057 28.1728 32.3713 28.2043C32.6429 28.3347 32.8263 28.4228 32.9046 28.5528C33.0017 28.7145 33.0017 29.4892 32.6777 30.3928C32.3538 31.2967 30.7664 32.1682 30.0536 32.2326C29.985 32.2388 29.9169 32.2468 29.8469 32.255C29.1881 32.3323 28.3567 32.4297 25.3882 31.2644C21.7368 29.8309 19.3289 26.2783 18.8309 25.5436C18.79 25.4832 18.762 25.4419 18.7472 25.4223L18.7426 25.4162C18.5322 25.1361 17.1598 23.3094 17.1598 21.4194C17.1598 19.6369 18.0398 18.7025 18.4447 18.2726C18.4724 18.2433 18.4978 18.2163 18.5206 18.1915C18.8768 17.8042 19.298 17.7073 19.5573 17.7073C19.5723 17.7073 19.5872 17.7073 19.6022 17.7073C19.8462 17.7073 20.0887 17.7073 20.3023 17.7163Z" fill="white"/>
</svg>
