<svg width="32" height="32" viewBox="0 0 32 32" fill="none" xmlns="http://www.w3.org/2000/svg">
<path d="M31.9983 20.1925C31.9997 17.2587 31.9997 14.3246 31.9983 11.3899C31.9983 11.3479 31.9983 11.306 31.9963 11.264C32.0055 10.5772 31.9286 9.89447 31.9106 9.20916C31.8598 9.06262 31.8582 8.91099 31.8619 8.75891C31.8522 8.19817 31.7342 7.652 31.6446 7.1019C31.5864 6.88486 31.522 6.67014 31.4636 6.45357C31.3068 5.73381 30.9801 5.08247 30.6508 4.43229C30.5328 4.21317 30.3737 4.02017 30.2583 3.79898C30.1264 3.61407 29.9976 3.42685 29.8369 3.26436C29.6249 3.01659 29.4176 2.76396 29.1783 2.54068C29.0414 2.40824 28.9107 2.26863 28.7509 2.16208C28.7278 2.14451 28.7048 2.12648 28.6817 2.10984C28.6064 2.04628 28.5353 1.97763 28.4508 1.92493C28.3925 1.88472 28.3369 1.84063 28.2845 1.79296C28.0855 1.63671 27.8567 1.52669 27.6477 1.38616C27.4847 1.30041 27.3163 1.22436 27.1568 1.13191C26.8012 0.947101 26.4325 0.788582 26.0538 0.65762C25.8568 0.57002 25.64 0.585275 25.435 0.539973C25.2964 0.558232 25.1777 0.497444 25.0542 0.453759L24.1869 0.275092C23.9045 0.251978 23.6189 0.247355 23.3404 0.200204C22.7692 0.103358 22.1859 0.193501 21.6179 0.0770089L20.7119 0.0605983H20.2489C19.0189 -0.0270019 17.7877 0.0629097 16.5577 0.0206119C16.1966 0.0391027 15.8357 0.051584 15.4748 0.0143713C15.2032 0.0354046 14.9319 -0.0184499 14.6608 0.00697496C14.2468 0.0455745 13.8296 0.0689192 13.4179 0.0323998C12.7074 -0.0307001 12.0022 0.060136 11.2936 0.0589804C9.998 0.109137 8.70148 0.163916 7.41374 0.336574L6.94778 0.452141C6.82148 0.480802 6.70557 0.554303 6.56911 0.539279C6.43703 0.593827 6.29064 0.547369 6.15787 0.597525C6.06805 0.620639 5.97961 0.649762 5.89164 0.679347C5.78981 0.717253 5.6866 0.751924 5.58615 0.793297C5.18254 0.931978 4.79301 1.10256 4.42818 1.32676C4.05874 1.54726 3.7013 1.78232 3.37111 2.05807C3.26536 2.16347 3.13213 2.23489 3.02661 2.34052C2.8084 2.56056 2.59066 2.78152 2.36946 2.99856C2.26394 3.10349 2.19444 3.23824 2.08707 3.34156C1.81945 3.62193 1.6405 3.96563 1.42599 4.28251C1.17062 4.68561 0.978505 5.11552 0.822877 5.56393C0.781315 5.6647 0.745987 5.76802 0.708812 5.87041C0.68018 5.9594 0.650855 6.04792 0.625687 6.13783C0.593762 6.27552 0.553746 6.4112 0.505849 6.54417C0.477448 6.67176 0.443505 6.79842 0.407254 6.923C0.358764 7.08826 0.349759 7.26277 0.294574 7.42641C0.205445 7.75 0.217221 8.09023 0.150029 8.41752C0.062517 9.35893 0.0301908 10.3022 0.00848598 11.2475C0.00848598 11.2882 0.00848598 11.3289 0.00848598 11.3693C0.00178982 11.616 -0.00352093 11.8628 0.00848598 12.109C0.0106411 14.6951 0.00994836 17.2807 0.00640786 19.8659C-0.00213595 19.9894 -0.00213595 20.1133 0.00640786 20.2368C0.00294433 20.397 -0.00259732 20.5572 0.00640786 20.7174C0.0267272 21.0162 -0.0187605 21.3169 0.0294981 21.6151C0.106388 21.8601 0.0682896 22.1123 0.0756785 22.3614C0.0987687 23.1663 0.173581 23.9653 0.331518 24.7558C0.375389 24.9832 0.407023 25.2132 0.489917 25.4314C0.555382 25.5639 0.598229 25.7065 0.616682 25.8532C0.735596 26.3111 0.95403 26.7274 1.15792 27.1499C1.21125 27.2436 1.25629 27.3418 1.29253 27.4434C1.45763 27.7305 1.63034 28.0129 1.81968 28.285C1.8679 28.3384 1.9127 28.3948 1.95384 28.4539C2.00717 28.5383 2.07737 28.609 2.13994 28.6851C2.15749 28.7082 2.17435 28.7313 2.19259 28.7516C2.29465 28.9097 2.4348 29.0339 2.56203 29.1677C2.67471 29.2755 2.78539 29.3858 2.89407 29.4984C2.97535 29.5775 3.0557 29.6575 3.15175 29.7194C3.23696 29.7714 3.30507 29.8428 3.37411 29.9131C3.52072 30.037 3.67346 30.1535 3.83176 30.2621C4.05112 30.3788 4.24739 30.5339 4.46305 30.655C5.2555 31.0688 6.07428 31.4139 6.95309 31.5995C7.14267 31.6325 7.33455 31.6565 7.51973 31.7116C7.94921 31.7795 8.37707 31.8643 8.8144 31.8676C9.63779 31.9619 10.4656 31.9776 11.2927 31.9975C11.3342 31.9975 11.376 31.9989 11.4176 31.9991C14.3477 31.9991 17.2782 31.9991 20.2089 31.9991C20.3724 31.9928 20.5359 32.0058 20.6994 31.9965C20.8767 31.9887 21.0552 32.0032 21.2305 31.9711C21.4754 31.8962 21.7269 31.9385 21.9753 31.9291C22.6531 31.945 23.3308 31.8958 23.9992 31.782C24.2613 31.7053 24.5414 31.7453 24.8007 31.6533C25.6125 31.4753 26.3997 31.2255 27.1448 30.852C27.3826 30.7304 27.6117 30.5938 27.8437 30.4623C28.0645 30.3557 28.243 30.1879 28.4397 30.0462C28.5631 29.9609 28.679 29.8652 28.786 29.7601C29.1243 29.4675 29.4647 29.1769 29.7507 28.8302C29.8697 28.68 29.9816 28.5237 30.0996 28.3742C30.171 28.2773 30.237 28.1766 30.3095 28.0809C30.5056 27.7774 30.6817 27.4621 30.8517 27.1436C31.2008 26.4782 31.4192 25.7654 31.6028 25.0403C31.6929 24.7084 31.6966 24.3612 31.7755 24.0272C31.8679 23.4637 31.9268 22.897 31.927 22.3252C31.927 22.2872 31.927 22.2493 31.927 22.2114C31.9312 22.1364 31.9312 22.0613 31.927 21.9863C31.9365 21.7261 31.8919 21.4628 31.9718 21.2069C32.002 21.0322 31.9873 20.8554 31.9949 20.6797C32.0043 20.5184 31.9977 20.3566 31.9983 20.1925Z" fill="white"/>
<path fill-rule="evenodd" clip-rule="evenodd" d="M7.41283 20.8648C6.54145 19.362 6.08304 17.6568 6.08364 15.9103L6.08348 15.91C6.08577 10.4456 10.5527 6 16.0419 6C18.7056 6.00114 21.2057 7.03332 23.0859 8.9065C24.9659 10.7797 26.0009 13.2697 26 15.918C25.9977 21.382 21.5299 25.8285 16.0419 25.8285H16.0376C14.3711 25.8278 12.7336 25.4117 11.279 24.622L6 26L7.41283 20.8648ZM9.03012 20.2943L9.22718 20.6059L8.39062 23.6455L11.5234 22.8278L11.8258 23.0062C13.0962 23.7568 14.553 24.1537 16.0384 24.1546H16.0417C20.6037 24.1546 24.3166 20.4591 24.3186 15.9172C24.3192 13.7162 23.4593 11.6465 21.8965 10.0896C20.3335 8.5328 18.2557 7.67474 16.0448 7.67389C11.4794 7.67389 7.76655 11.3691 7.76475 15.9107C7.76414 17.467 8.20148 18.9828 9.03012 20.2943ZM12.9935 11.3384C13.1708 11.3457 13.367 11.354 13.5534 11.7665L13.5532 11.7664C13.6805 12.0481 13.8944 12.5729 14.0651 12.9916C14.1913 13.301 14.2938 13.5524 14.3203 13.6051C14.3825 13.729 14.424 13.8737 14.341 14.039C14.3285 14.0638 14.317 14.0872 14.306 14.1096C14.2437 14.2362 14.198 14.3292 14.0925 14.4521C14.0509 14.5004 14.0079 14.5524 13.965 14.6044C13.8793 14.7082 13.7936 14.812 13.7191 14.8859C13.5943 15.0094 13.4647 15.1436 13.6098 15.3913C13.7551 15.6393 14.2544 16.4501 14.9941 17.1067C15.7886 17.8119 16.4789 18.1102 16.8295 18.2618C16.8984 18.2915 16.9542 18.3157 16.9951 18.3361C17.2439 18.46 17.3891 18.4393 17.5342 18.2738C17.6794 18.1085 18.1559 17.5508 18.3218 17.3031C18.4878 17.0551 18.6536 17.0963 18.8818 17.1789C19.1098 17.2615 20.3331 17.8609 20.582 17.9847C20.6304 18.0088 20.6757 18.0306 20.7176 18.0507C20.8914 18.1342 21.0089 18.1906 21.0589 18.2738C21.1211 18.3773 21.1211 18.8731 20.9137 19.4514C20.7065 20.0299 19.6905 20.5877 19.2343 20.6289C19.1904 20.6329 19.1468 20.638 19.102 20.6432C18.6804 20.6926 18.1483 20.755 16.2485 20.0092C13.9116 19.0918 12.3705 16.8181 12.0518 16.3479C12.0256 16.3093 12.0077 16.2828 11.9982 16.2703L11.9953 16.2664C11.8606 16.0871 10.9822 14.918 10.9822 13.7084C10.9822 12.5676 11.5455 11.9696 11.8046 11.6945C11.8223 11.6757 11.8386 11.6584 11.8532 11.6426C12.0811 11.3947 12.3507 11.3327 12.5167 11.3327C12.5262 11.3327 12.5358 11.3327 12.5454 11.3327C12.7015 11.3327 12.8568 11.3327 12.9935 11.3384Z" fill="#0E2E93"/>
</svg>
