<svg width="60" height="60" viewBox="0 0 60 60" fill="none" xmlns="http://www.w3.org/2000/svg">
<path d="M59.9971 37.8618C59.9997 32.3601 59.9997 26.8581 59.9971 21.3558C59.9971 21.2765 59.9971 21.1981 59.9932 21.1192C60.0105 19.832 59.8667 18.5517 59.8325 17.2666C59.7373 16.9914 59.7347 16.7075 59.7412 16.4219C59.723 15.3709 59.5018 14.3463 59.3338 13.3148C59.2251 12.9078 59.1039 12.5052 58.9944 12.0991C58.7004 10.7494 58.0883 9.52853 57.4705 8.30892C57.2492 7.89804 56.9509 7.53615 56.7345 7.12181C56.4873 6.77508 56.2457 6.42359 55.9448 6.11934C55.5469 5.65429 55.1586 5.18057 54.7097 4.7619C54.4529 4.51356 54.2083 4.25221 53.9083 4.05241C53.865 4.01904 53.8239 3.98566 53.7784 3.95402C53.6373 3.83484 53.5039 3.70655 53.3476 3.6073C53.2383 3.53175 53.1342 3.44893 53.0359 3.35939C52.6628 3.0664 52.2337 2.86053 51.8419 2.59702C51.5363 2.43579 51.2206 2.29364 50.9219 2.12027C50.255 1.77374 49.5636 1.47649 48.8534 1.23092C48.4841 1.06665 48.0776 1.09569 47.6931 1.01075C47.4334 1.04455 47.2108 0.930564 46.9792 0.84865L45.3531 0.513625C44.8236 0.470284 44.2881 0.462049 43.766 0.373201C42.6949 0.191602 41.6013 0.361065 40.5363 0.142627L38.831 0.113155H37.966C35.6611 -0.0506732 33.3527 0.116189 31.0469 0.0390425C30.3693 0.0737152 29.6926 0.0966858 29.016 0.026907C28.5068 0.0667806 27.9982 -0.034637 27.4899 0.0130379C26.7136 0.0854172 25.9313 0.129625 25.1594 0.0611463C23.8273 -0.0571743 22.5051 0.113155 21.1764 0.110555C18.7451 0.202438 16.315 0.307756 13.9001 0.630646L13.0265 0.84735C12.7897 0.901093 12.5723 1.03892 12.3169 1.01075C12.0688 1.11303 11.7944 1.02591 11.5454 1.11996C11.377 1.1633 11.2116 1.21791 11.0463 1.27339C10.8553 1.3449 10.6618 1.40948 10.4735 1.48749C9.71672 1.74754 8.98636 2.0674 8.30276 2.48737C7.61007 2.90084 6.93946 3.34162 6.32036 3.85911C6.12208 4.05674 5.87227 4.19067 5.67443 4.3883C5.2653 4.80134 4.85705 5.21524 4.4423 5.62265C4.24445 5.81898 4.11414 6.07209 3.91326 6.26539C3.41106 6.79112 3.07553 7.4356 2.67334 8.03023C2.19452 8.7822 1.83432 9.59051 1.54252 10.4318C1.46459 10.6212 1.39835 10.8145 1.32865 11.0069C1.27497 11.1733 1.21998 11.3393 1.17279 11.5079C1.11294 11.7662 1.03791 12.0208 0.948105 12.2703C0.894855 12.5091 0.831213 12.747 0.763242 12.9802C0.672326 13.2905 0.655442 13.6177 0.551971 13.9246C0.385292 14.5314 0.406938 15.1689 0.280955 15.7826C0.116873 17.5475 0.0562627 19.3179 0.0155671 21.0888C0.0155671 21.1651 0.0134056 21.2414 0.0134056 21.3172C0.000850533 21.7801 -0.00910691 22.2426 0.0134056 22.7042C0.0203325 27.5517 0.0203325 32.3998 0.0134056 37.2485C-0.00251397 37.4794 -0.00251397 37.7111 0.0134056 37.9419C0.00691159 38.2423 -0.00347879 38.5427 0.0134056 38.843C0.0515036 39.4038 -0.0337841 39.9673 0.0566988 40.5268C0.201298 40.9862 0.129431 41.4586 0.143285 41.9258C0.186579 43.435 0.326847 44.9333 0.622972 46.4155C0.70523 46.8424 0.764974 47.2732 0.920397 47.6824C1.04282 47.931 1.123 48.1983 1.15764 48.4733C1.3806 49.3324 1.79016 50.1129 2.17244 50.9048C2.27235 51.0806 2.3568 51.2647 2.42484 51.4552C2.73438 51.9939 3.05822 52.5231 3.41322 53.0332C3.50362 53.1335 3.58764 53.2393 3.66476 53.3501C3.76476 53.5083 3.89681 53.6409 4.0137 53.7835C4.0466 53.8268 4.07821 53.8702 4.11241 53.9087C4.30376 54.2047 4.56655 54.4375 4.8051 54.6889C5.01637 54.8911 5.22389 55.0979 5.42766 55.3091C5.58005 55.4573 5.73071 55.6077 5.91081 55.7234C6.07056 55.8209 6.19828 55.9548 6.32772 56.0866C6.59961 56.3232 6.89053 56.5335 7.18579 56.7415C7.59751 56.9582 7.96507 57.2507 8.36943 57.4783C9.85525 58.2541 11.3904 58.9012 13.0382 59.2488C13.394 59.3112 13.7534 59.3558 14.1006 59.459C14.9063 59.5864 15.7081 59.7454 16.528 59.7515C18.0719 59.9288 19.6239 59.9578 21.1751 59.9951C21.2526 59.9951 21.331 59.9977 21.4089 59.9981C26.9028 59.9981 32.3973 59.9981 37.8924 59.9981C38.1989 59.9864 38.5054 60.0107 38.8119 59.9938C39.1444 59.9786 39.4791 60.0059 39.8077 59.9461C40.267 59.8057 40.7385 59.885 41.2048 59.8672C42.4756 59.8969 43.7463 59.8045 44.9994 59.5911C45.4908 59.4473 46.0155 59.5222 46.5017 59.3497C48.0239 59.016 49.4997 58.5475 50.8968 57.8471C51.3427 57.6196 51.7722 57.363 52.2073 57.1164C52.6212 56.9166 52.9558 56.6019 53.3247 56.3363C53.5561 56.1763 53.7733 55.9968 53.9741 55.7997C54.6079 55.251 55.2461 54.7062 55.7825 54.0561C56.0054 53.7748 56.2154 53.4818 56.4371 53.201C56.5704 53.0194 56.6942 52.8308 56.8302 52.651C57.1977 52.0819 57.528 51.4907 57.8467 50.8939C58.5017 49.6457 58.9108 48.3095 59.2554 46.9499C59.4239 46.3271 59.4286 45.6761 59.5793 45.0499C59.7524 43.9932 59.8624 42.9309 59.8628 41.8582C59.8628 41.7876 59.8628 41.7165 59.8628 41.6454C59.8704 41.5047 59.8704 41.3636 59.8628 41.2229C59.8802 40.7353 59.797 40.2412 59.9464 39.7614C60.0031 39.4337 59.9754 39.1022 59.9897 38.7728C60.0083 38.4742 59.9958 38.1678 59.9971 37.8618Z" fill="white"/>
<path d="M47.2515 15.2705H14.6709C12.3226 15.2705 9.3667 16.621 9.3667 18.9545V40.2187C9.3667 42.5493 12.3226 44.2848 14.6709 44.2848H47.2515C47.8041 44.2861 48.3514 44.177 48.8611 43.9639C49.3708 43.7507 49.8326 43.4379 50.2194 43.0437C50.6062 42.6496 50.9101 42.1821 51.1132 41.6689C51.3163 41.1557 51.4145 40.6071 51.402 40.0554V18.7708C51.402 16.4373 49.6261 15.2705 47.2515 15.2705ZM25.2948 37.8195V22.2084L38.3012 30.0139L25.2948 37.8195Z" fill="#0E2E93"/>
</svg>
