<svg width="50" height="50" viewBox="0 0 50 50" fill="none" xmlns="http://www.w3.org/2000/svg">
<path d="M49.9976 31.5515C49.9997 26.9667 49.9997 22.3817 49.9976 17.7965C49.9976 17.7304 49.9975 17.6651 49.9943 17.5993C50.0087 16.5266 49.889 15.4597 49.8605 14.3888C49.7811 14.1595 49.7789 13.9229 49.7843 13.6849C49.7692 12.8091 49.5848 11.9553 49.4448 11.0957C49.3543 10.7565 49.2533 10.421 49.162 10.0826C48.917 8.95787 48.4069 7.94044 47.8921 6.9241C47.7077 6.5817 47.4591 6.28012 47.2787 5.93484C47.0727 5.6459 46.8714 5.35299 46.6207 5.09945C46.2891 4.71191 45.9655 4.31714 45.5914 3.96825C45.3774 3.7613 45.1736 3.54351 44.9236 3.37701C44.8875 3.3492 44.8532 3.32139 44.8153 3.29502C44.6977 3.1957 44.5866 3.08879 44.4564 3.00608C44.3653 2.94313 44.2785 2.87411 44.1966 2.79949C43.8856 2.55534 43.5281 2.38378 43.2016 2.16418C42.9469 2.02983 42.6839 1.91136 42.4349 1.76689C41.8792 1.47811 41.303 1.23041 40.7111 1.02576C40.4034 0.888879 40.0646 0.913078 39.7443 0.842288C39.5278 0.870459 39.3424 0.77547 39.1493 0.707208L37.7943 0.428021C37.353 0.391904 36.9067 0.385041 36.4716 0.311001C35.5791 0.159669 34.6678 0.300888 33.7803 0.118856L32.3592 0.0942961H31.6383C29.7175 -0.0422276 27.7939 0.0968244 25.8724 0.0325354C25.3078 0.0614293 24.7439 0.0805715 24.18 0.0224225C23.7557 0.0556505 23.3318 -0.0288642 22.9082 0.0108649C22.2614 0.071181 21.6094 0.108021 20.9662 0.0509553C19.8561 -0.0476453 18.7543 0.0942961 17.647 0.0921291C15.6209 0.168698 13.5959 0.256463 11.5835 0.525538L10.8554 0.706125C10.6581 0.750911 10.4769 0.865764 10.2641 0.842288C10.0574 0.927525 9.82863 0.854929 9.62119 0.933303C9.48085 0.969421 9.34303 1.01493 9.20521 1.06116C9.04611 1.12075 8.88484 1.17457 8.7279 1.23958C8.09727 1.45628 7.48863 1.72283 6.91897 2.07281C6.34172 2.41737 5.78288 2.78468 5.26697 3.21592C5.10173 3.38062 4.89356 3.49222 4.72869 3.65692C4.38775 4.00112 4.04754 4.34604 3.70192 4.68554C3.53704 4.84915 3.42845 5.06008 3.26105 5.22116C2.84255 5.65927 2.56294 6.19633 2.22778 6.69186C1.82876 7.3185 1.5286 7.99209 1.28543 8.69313C1.22049 8.85096 1.16529 9.01204 1.10721 9.17241C1.06247 9.3111 1.01665 9.44943 0.977329 9.58992C0.927447 9.80519 0.864926 10.0173 0.790088 10.2252C0.745712 10.4242 0.692677 10.6225 0.636035 10.8168C0.560272 11.0754 0.546201 11.3481 0.459976 11.6038C0.321077 12.1095 0.339115 12.6408 0.234129 13.1522C0.0973945 14.6229 0.0468856 16.0983 0.0129726 17.574C0.0129726 17.6376 0.0111713 17.7012 0.0111713 17.7644C0.000708778 18.1501 -0.00758909 18.5355 0.0111713 18.9201C0.0169437 22.9597 0.0169437 26.9998 0.0111713 31.0404C-0.00209498 31.2328 -0.00209498 31.4259 0.0111713 31.6183C0.00575966 31.8686 -0.00289899 32.1189 0.0111713 32.3692C0.0429197 32.8365 -0.0281534 33.3061 0.047249 33.7723C0.167749 34.1552 0.10786 34.5489 0.119404 34.9382C0.155482 36.1958 0.272372 37.4444 0.519144 38.6796C0.587691 39.0354 0.637478 39.3944 0.766997 39.7353C0.869015 39.9425 0.935832 40.1653 0.964702 40.3945C1.1505 41.1103 1.4918 41.7608 1.81037 42.4206C1.89363 42.5671 1.964 42.7206 2.0207 42.8793C2.27865 43.3283 2.54851 43.7693 2.84435 44.1944C2.91969 44.2779 2.9897 44.3661 3.05396 44.4584C3.1373 44.5902 3.24734 44.7007 3.34475 44.8196C3.37217 44.8557 3.3985 44.8918 3.42701 44.9239C3.58647 45.1706 3.80546 45.3646 4.00425 45.5741C4.18031 45.7426 4.35324 45.9149 4.52305 46.0909C4.65004 46.2144 4.77559 46.3397 4.92567 46.4362C5.0588 46.5174 5.16523 46.629 5.2731 46.7388C5.49967 46.936 5.74211 47.1112 5.98816 47.2846C6.33126 47.4652 6.63756 47.709 6.97452 47.8986C8.21271 48.5451 9.49203 49.0843 10.8651 49.374C11.1617 49.426 11.4611 49.4632 11.7505 49.5491C12.4219 49.6553 13.0901 49.7879 13.7734 49.7929C15.0599 49.9406 16.3533 49.9648 17.6459 49.9959C17.7105 49.9959 17.7758 49.9981 17.8408 49.9984C22.419 49.9984 26.9978 49.9984 31.577 49.9984C31.8324 49.9887 32.0879 50.0089 32.3433 49.9948C32.6204 49.9822 32.8992 50.0049 33.1731 49.9551C33.5559 49.8381 33.9487 49.9042 34.3373 49.8894C35.3963 49.9141 36.4552 49.8371 37.4995 49.6593C37.909 49.5394 38.3463 49.6019 38.7514 49.4581C40.0199 49.18 41.2498 48.7896 42.414 48.2059C42.7856 48.0163 43.1435 47.8025 43.5061 47.597C43.851 47.4305 44.1299 47.1683 44.4372 46.9469C44.6301 46.8136 44.8111 46.664 44.9784 46.4997C45.5066 46.0425 46.0384 45.5885 46.4854 45.0467C46.6712 44.8123 46.8462 44.5682 47.0309 44.3341C47.142 44.1828 47.2452 44.0257 47.3585 43.8758C47.6648 43.4016 47.94 42.9089 48.2056 42.4116C48.7514 41.3714 49.0924 40.2579 49.3795 39.1249C49.5199 38.6059 49.5238 38.0634 49.6494 37.5415C49.7937 36.661 49.8853 35.7758 49.8857 34.8819C49.8857 34.823 49.8857 34.7638 49.8857 34.7045C49.892 34.5872 49.892 34.4697 49.8857 34.3524C49.9001 33.9461 49.8309 33.5343 49.9553 33.1345C50.0026 32.8615 49.9795 32.5852 49.9914 32.3107C50.0069 32.0618 49.9965 31.8065 49.9976 31.5515Z" fill="white"/>
<path d="M39.3764 12.7256H12.2258C10.2689 12.7256 7.80566 13.851 7.80566 15.7956V33.5158C7.80566 35.4579 10.2689 36.9042 12.2258 36.9042H39.3764C39.8368 36.9053 40.2929 36.8143 40.7177 36.6367C41.1424 36.4591 41.5273 36.1984 41.8496 35.8699C42.1719 35.5415 42.4251 35.1519 42.5944 34.7243C42.7636 34.2966 42.8455 33.8394 42.8351 33.3796V15.6425C42.8351 13.6979 41.3552 12.7256 39.3764 12.7256ZM21.0791 31.5164V18.5071L31.9177 25.0118L21.0791 31.5164Z" fill="#0E2E93"/>
</svg>
