<svg width="62" height="62" viewBox="0 0 62 62" fill="none" xmlns="http://www.w3.org/2000/svg">
<circle cx="31" cy="31" r="31" fill="#F2F2F2"/>
<path d="M36.25 14.3433V21.2485C36.25 21.7063 36.4344 22.1454 36.7626 22.4691C37.0907 22.7929 37.5359 22.9748 38 22.9748H45" stroke="#0E2E93" stroke-width="2" stroke-linecap="round" stroke-linejoin="round"/>
<path d="M20.5 22.9748V17.7959C20.5 16.8802 20.8687 16.002 21.5251 15.3545C22.1815 14.707 23.0717 14.3433 24 14.3433H36.2499L44.9999 22.9748V41.964C44.9999 42.8797 44.6311 43.7579 43.9747 44.4054C43.3184 45.0529 42.4281 45.4166 41.4999 45.4166H32.7499" stroke="#0E2E93" stroke-width="2" stroke-linecap="round" stroke-linejoin="round"/>
<path d="M22.25 38.5113C25.1495 38.5113 27.4999 36.1926 27.4999 33.3324C27.4999 30.4722 25.1495 28.1535 22.25 28.1535C19.3505 28.1535 17 30.4722 17 33.3324C17 36.1926 19.3505 38.5113 22.25 38.5113Z" stroke="#0E2E93" stroke-width="2" stroke-linecap="round" stroke-linejoin="round"/>
<path d="M19.625 38.5114L17 47.1428L22.25 44.5534L27.4999 47.1428L24.875 38.5114" stroke="#0E2E93" stroke-width="2" stroke-linecap="round" stroke-linejoin="round"/>
</svg>
