<svg width="74" height="58" viewBox="0 0 74 58" fill="none" xmlns="http://www.w3.org/2000/svg">
<path d="M14.869 53.6053H9.48607L9.03148 51.7916H5.203L4.74842 53.6053H0.0478516L4.21754 39.9531H10.7184L14.869 53.6053ZM8.19755 48.3927L7.13685 44.0395L6.038 48.3927H8.19755Z" fill="#E85F62"/>
<path d="M58.3472 39.9648H54.6416L56.4366 44.6447L58.3472 39.9648Z" fill="white"/>
<path d="M24.3342 39.9531H12.6973V43.8484H15.9758V53.6053H21.0547V53.5775H24.3342V39.9649V39.9531Z" fill="white"/>
<path d="M73.9277 39.9648H66.1182L70.0229 45.9716L73.9277 39.9648Z" fill="white"/>
<path d="M31.214 44.9169V44.8401C31.214 44.0896 30.7658 43.7139 29.8683 43.7139H29.3564V46.12H29.8492C30.7594 46.12 31.214 45.7197 31.214 44.9169Z" fill="white"/>
<path d="M30.736 39.9648C32.5035 40.0364 33.7984 40.4516 34.6164 41.2127C35.5192 42.0529 35.9717 43.2559 35.9717 44.8219V44.8988C35.9717 46.3495 35.5076 47.4768 34.5783 48.2785C33.65 49.0802 32.263 49.4815 30.4181 49.4815H29.3574V53.5786H36.2684V39.9648H30.736Z" fill="white"/>
<path d="M41.2104 53.5773H44.702V46.9033L41.2104 53.5773Z" fill="white"/>
<path d="M44.8285 39.9648H41.3296V46.6548L44.8285 39.9648Z" fill="white"/>
<path d="M70.0386 53.5777H73.8649V47.0649L70.0386 53.5777Z" fill="white"/>
<path d="M57.2705 53.5776H61.899V42.3423L57.2705 53.5776Z" fill="white"/>
<path d="M66.1812 53.5777H70.0075L66.1812 47.0649V53.5777Z" fill="white"/>
<path d="M49.7441 40.5571V53.5773H52.6868L54.1734 50.0365C54.1713 50.0322 50.7572 42.7263 49.7441 40.5571Z" fill="white"/>
<path fill-rule="evenodd" clip-rule="evenodd" d="M56.3259 33.8149C56.1976 33.6473 56.0493 33.5481 56.115 33.3185C56.1404 33.2278 56.1934 33.1467 56.2167 33.057C56.2432 32.9577 56.1648 32.8553 56.1277 32.7688C56.079 32.6567 56.0578 32.3962 55.9041 32.3962C55.7134 32.3962 55.5237 32.2553 55.3425 32.2041C55.174 32.156 54.9981 32.1934 54.8265 32.1849C54.6771 32.1774 54.5308 32.1592 54.3814 32.1657C54.0667 32.1785 53.752 32.2233 53.4383 32.2543C53.4722 32.1358 53.1522 32.0034 53.0865 31.9703C52.8884 31.87 52.6765 31.8347 52.4953 31.7024C52.0481 31.3746 51.62 31.0181 51.1813 30.6786C50.661 30.2762 50.1301 29.8876 49.6099 29.4852C49.026 29.0336 48.4443 28.6493 47.7343 28.4262C47.641 28.3974 47.5467 28.3697 47.4503 28.3504V28.28C47.3359 28.2106 47.2214 28.1412 47.1059 28.0718C47.0837 28.0579 47.0784 27.995 47.0688 27.9704C47.0381 27.8893 46.9904 27.8103 46.9194 27.759C46.8188 27.6886 46.7096 27.7356 46.6026 27.6982C46.539 27.6758 46.521 27.6085 46.4638 27.5818C46.379 27.5423 46.2826 27.5818 46.2021 27.5157C46.1067 27.4356 46.1364 27.3118 46.0919 27.2104C46.0495 27.1143 45.9562 27.0449 45.8767 26.983C45.7538 26.8869 45.6298 26.794 45.5165 26.6862C45.2897 26.4685 45.1127 26.1856 44.8637 25.9924C44.6952 25.8621 44.3954 25.7991 44.1866 25.7927C44.051 25.7895 44.1495 25.8397 44.1432 25.9005C44.1432 25.8984 44.0902 25.8578 44.087 25.8557C43.9959 25.7757 43.9058 25.6945 43.8136 25.6177C43.607 25.4458 43.3792 25.306 43.1429 25.1789C43.0539 25.1309 42.8409 25.0615 42.8017 24.9548C42.7413 24.7872 42.5421 24.7594 42.4838 24.5758C42.4308 24.4103 42.2517 24.4295 42.1171 24.4915C42.0483 24.5235 42.0038 24.4157 41.9614 24.3794C41.9094 24.3356 41.8522 24.3239 41.7939 24.2972C41.7304 24.2694 41.6339 24.2299 41.6011 24.1627C41.5682 24.0954 41.6022 24.009 41.5704 23.9364C41.5354 23.8552 41.3033 23.7389 41.3192 23.6652C41.3796 23.4485 41.4146 23.2051 41.3743 22.981C41.3161 22.6618 41.0268 22.4024 40.8615 22.1366C40.7809 22.0063 40.7629 21.8996 40.7385 21.7512C40.7089 21.574 40.6411 21.4214 40.5881 21.2527C40.5489 21.1289 40.5383 21.0029 40.5372 20.8737C40.5351 20.5588 40.5605 20.2439 40.551 19.929C40.5468 19.8116 40.5383 19.7016 40.5648 19.5842C40.6283 19.3002 40.8901 19.1743 41.0882 18.9907C41.3796 18.7206 41.6488 18.4132 41.8787 18.0886C42.0525 17.8431 42.1924 17.5773 42.3471 17.319C42.4742 17.1055 42.6353 16.9539 42.8101 16.7799C42.9426 16.6475 43.1556 16.4703 43.1503 16.2675C43.1471 16.117 43.3771 15.9515 43.4767 15.8661C43.7712 15.6142 44.1093 15.4626 44.4462 15.2811C44.6698 15.1605 44.8976 15.0474 45.1244 14.9331V14.3652C45.4847 13.8518 46.0399 13.5208 46.4765 13.08C46.61 12.9444 46.7404 12.859 46.9014 12.7512C47.1653 12.5751 47.4069 12.3904 47.641 12.1758C47.9324 11.9079 48.2228 11.6378 48.5269 11.3837C48.7791 11.1734 49.0472 10.9802 49.2888 10.756C49.648 10.4209 50.038 10.1316 50.3389 9.73659C50.3749 9.68962 50.4385 9.54551 50.501 9.53697C50.7087 9.50922 50.909 9.39606 51.0923 9.29999C51.3858 9.14734 51.7101 8.98935 52.0396 8.93811C52.1742 8.91676 53.2614 8.92957 53.0738 8.5869C52.9912 8.43746 52.6192 8.55381 52.4942 8.56022C52.2929 8.57089 52.0894 8.56342 51.8891 8.54527V8.40329C52.1265 8.26452 52.3649 8.12148 52.5896 7.96135C52.7496 7.8482 52.9445 7.72224 53.0558 7.55571C53.1544 7.40839 53.0484 7.28777 52.8916 7.33367C52.7093 7.38704 52.544 7.52902 52.3798 7.62296C52.2155 7.7169 52.0523 7.8119 51.8881 7.90584C52.0746 7.7628 52.2611 7.62082 52.4476 7.47991C52.5398 7.41053 52.6309 7.34007 52.7241 7.27389C52.8227 7.2045 53.1067 6.90987 52.9011 6.78925C52.7824 6.71986 52.5588 6.88746 52.4645 6.94937C52.3374 7.0337 52.2134 7.12124 52.0894 7.20877C51.9686 7.2931 51.8489 7.3785 51.7291 7.4639C51.656 7.51621 51.6253 7.55144 51.5363 7.55144C51.673 7.35502 51.8107 7.15753 51.958 6.96859C52.0555 6.84369 52.1996 6.75722 52.2886 6.62806C52.348 6.54159 52.4158 6.26618 52.2388 6.27045C52.0534 6.27472 51.8828 6.49355 51.7641 6.61098C51.6136 6.76043 51.4579 6.9056 51.3106 7.05719C51.2004 7.17034 51.1145 7.33367 50.9832 7.42227C50.8274 7.52689 50.5868 7.5002 50.4088 7.47991C50.4088 7.3358 50.3834 7.17034 50.4152 7.02943C50.4438 6.90027 50.4396 6.75616 50.3834 6.63446C50.3368 6.53198 50.1354 6.29073 50.0221 6.45512C49.9489 6.5608 49.9627 6.75829 49.9479 6.88105C49.9267 7.05719 49.9044 7.23973 49.8451 7.40839C49.7402 7.70836 49.7911 8.02861 49.7126 8.33604C49.6745 8.48549 49.6501 8.59544 49.5569 8.7118C49.3979 8.90929 49.2347 9.10357 49.0641 9.29145C48.884 9.49 48.6975 9.69176 48.475 9.84334C48.1581 10.06 47.8434 10.281 47.5308 10.5041C47.2352 10.7144 46.9385 10.9247 46.6588 11.1574C46.4256 11.3517 46.1745 11.5599 45.9933 11.8075C45.8608 11.989 45.6712 12.0573 45.4815 12.1694C45.2791 12.289 45.0852 12.4288 44.9135 12.59C44.8722 12.5291 44.7726 12.558 44.7164 12.5772C44.4526 12.6669 44.2279 12.8633 43.9779 12.985C43.802 13.0704 43.643 13.1696 43.4735 13.2636C43.2923 13.3639 43.1662 13.5561 42.9415 13.5134L42.7307 13.3714C42.8441 13.2977 42.9013 13.1387 42.9415 13.017C42.9754 12.9145 43.0348 12.7736 43.0115 12.6626L42.8705 12.3786C42.9754 12.337 43.0793 12.2943 43.1842 12.2527C43.305 12.2036 43.518 12.2164 43.6473 12.2238C43.6568 12.2153 43.6642 12.2046 43.6706 12.194C43.6388 12.1256 43.572 12.0765 43.5031 12.0498L43.6462 11.9538L43.5996 11.7659C43.6642 11.7979 43.8232 11.7627 43.7956 11.6613C43.9503 11.5054 44.0785 11.3496 44.2099 11.1724C44.1803 11.1137 44.1856 11.0475 44.1453 10.992C44.1018 10.93 44.0658 10.882 44.0319 10.8137C44.2226 10.9898 44.4102 10.5714 44.1156 10.629L44.2099 10.534C44.2099 10.534 44.2099 10.3365 44.1464 10.2586C44.2714 10.1486 44.1665 10.0269 44.0266 10.0707C44.0065 10.0366 43.9853 10.0024 43.962 9.9693C44.0637 9.90419 44.0489 9.76648 43.9185 9.76648C43.9524 9.74086 43.9842 9.71311 44.0139 9.68215C44.0107 9.66934 44.0054 9.6576 43.998 9.64799C43.8867 9.64052 43.7712 9.65119 43.6589 9.65546C43.6494 9.64052 43.6377 9.63091 43.6239 9.62237C43.6239 9.62237 43.6239 9.62237 43.6239 9.6213C43.7066 9.60956 43.7893 9.56793 43.8475 9.50815C43.8486 9.49534 43.8475 9.48253 43.8444 9.46972C43.8041 9.43983 43.7575 9.42061 43.7087 9.40887C43.8115 9.38859 43.9153 9.35657 44.0203 9.35443C44.0298 9.34589 44.0372 9.33628 44.0446 9.32454C44.0192 9.24982 43.9482 9.20605 43.8761 9.18577C43.7564 9.15161 43.6536 9.2274 43.5466 9.20925C43.8772 9.10997 44.1983 8.97334 44.5257 8.86232C44.5299 8.84951 44.5299 8.8367 44.5236 8.82389C44.2332 8.78332 43.9471 8.8463 43.6706 8.93277C43.4989 8.98721 43.3272 9.04379 43.1524 9.08969C43.0231 9.12385 42.8324 9.19217 42.7074 9.13453C42.7084 9.13132 42.7095 9.12919 42.7095 9.12599C42.8345 9.11211 42.9998 9.05447 43.0443 8.92316C43.0358 8.91249 43.0263 8.90502 43.0147 8.89968C42.8451 8.98508 42.5791 8.91249 42.4001 8.89541C42.4085 8.87406 42.4138 8.85271 42.4149 8.82922C42.4064 8.81962 42.3979 8.81001 42.3884 8.80254C42.3831 8.80254 42.3778 8.80147 42.3725 8.80147C42.4742 8.75984 42.5431 8.65949 42.5357 8.54741C42.5272 8.5378 42.5187 8.52819 42.5092 8.52072C42.4711 8.51752 42.4297 8.52072 42.3937 8.5346C42.4742 8.41611 42.5113 8.25385 42.4488 8.11934C42.4361 8.11614 42.4234 8.11614 42.4107 8.11721C42.274 8.3179 42.1288 8.57089 41.9349 8.72141C41.9688 8.57089 41.9296 8.37661 41.8067 8.2752C41.7939 8.27733 41.7823 8.28053 41.7696 8.2848C41.7611 8.30188 41.7547 8.32003 41.7494 8.33818C41.7208 8.13108 41.5057 8.03394 41.35 7.93253C41.3372 7.9368 41.3277 7.94427 41.3203 7.95602C41.3722 8.08839 41.5778 8.24637 41.5333 8.39582C41.5153 8.40757 41.4994 8.42251 41.4845 8.43852C41.4814 8.23997 41.3595 8.1108 41.2927 7.9368C41.2345 7.78522 41.2514 7.65285 41.2557 7.49593C41.2461 7.48739 41.2345 7.48205 41.2217 7.47885C41.0098 7.68274 41.0204 7.94427 41.1698 8.17805C41.1232 8.13215 41.0734 8.08625 41.0342 8.06063C41.0384 7.88876 40.9642 7.69875 40.8297 7.5888C40.817 7.59093 40.8053 7.59414 40.7936 7.59947C40.782 7.63577 40.7756 7.6742 40.7735 7.71263C40.7555 7.59093 40.676 7.48739 40.5563 7.4575C40.5468 7.46604 40.5393 7.47671 40.534 7.48845C40.6029 7.6347 40.5595 7.79056 40.5531 7.94427C40.5309 7.91438 40.5044 7.8909 40.4726 7.87168C40.4895 7.85567 40.5097 7.83966 40.5256 7.82365C40.4779 7.80336 40.4302 7.76387 40.373 7.78735C40.303 7.8119 40.2702 7.89837 40.3624 7.91759C40.3603 7.9336 40.3581 7.95068 40.3581 7.96669C40.1314 7.83432 40.1271 7.69021 40.1716 7.4607C40.0434 7.40626 39.8114 7.46284 39.7224 7.33367C39.7086 7.3326 39.6969 7.33687 39.6863 7.34541C39.7012 7.50874 39.8686 7.50126 39.9587 7.59093C39.9587 7.59093 39.9597 7.59093 39.9587 7.592C39.8654 7.75213 39.9904 7.97843 40.1187 8.07664C40.0805 8.13642 40.0519 8.193 40.0519 8.193C40.0053 8.16418 39.9979 8.1076 39.9661 8.06277C39.9099 7.97843 39.8379 7.90905 39.7563 7.84927C39.6397 7.76921 39.5072 7.70729 39.3674 7.68487C39.3578 7.69341 39.3504 7.70409 39.3462 7.7169C39.4606 7.91011 39.6535 8.04142 39.8092 8.19727C39.7753 8.18232 39.7414 8.16631 39.7075 8.15137C39.6948 8.15457 39.6842 8.15991 39.6725 8.16631C39.6514 8.26452 39.7065 8.35953 39.7711 8.42892C39.7541 8.43532 39.7393 8.44386 39.7266 8.45667C39.6196 8.35526 39.4331 8.31363 39.3144 8.42037C39.3144 8.43318 39.3154 8.44599 39.3186 8.45774C39.3674 8.48869 39.4182 8.51645 39.4659 8.54847C39.396 8.5378 39.3229 8.5378 39.254 8.55595C39.2487 8.56769 39.2455 8.57943 39.2434 8.59224C39.2868 8.64882 39.3419 8.68832 39.3992 8.72995C39.2656 8.80254 39.1448 8.90608 39.0071 8.968C38.9297 9.00216 38.7867 8.92957 38.7136 8.90181L39.0654 9.25622C39.0145 9.34696 38.9615 9.44303 38.9308 9.54338C38.9001 9.64479 39.0103 9.74727 39.0654 9.82413L38.9954 10.1081L39.1364 10.1785C39.0866 10.328 39.0007 10.5169 38.9954 10.6749C38.9901 10.8372 39.0654 11.0048 39.0654 11.1713C38.7411 11.0827 38.6511 11.3997 38.6426 11.6677C38.5038 11.7552 38.2399 11.4051 38.1562 11.3261C38.0852 11.2588 38.0227 11.2524 37.9347 11.2215C37.8394 11.1884 37.7472 11.1446 37.6571 11.0998C37.7165 10.787 37.7684 10.4625 37.6762 10.1508C37.5554 9.74513 37.2576 9.38752 37.0234 9.04166C36.8465 8.95626 36.6335 8.93277 36.4597 9.04166C36.3209 9.08329 36.1959 8.73422 36.1651 8.65629C36.0401 8.33177 36.0486 7.95815 36.0178 7.61655C35.9532 6.88105 35.6533 6.18718 35.4478 5.48371C35.2623 4.84962 35.1733 4.19631 35.0122 3.55582C34.9699 3.38822 34.9095 3.23023 34.8353 3.07545C34.759 2.91852 34.6668 2.76054 34.6361 2.58653C34.6053 2.40933 34.6032 2.19797 34.6096 2.01756C34.6159 1.8521 34.653 1.69091 34.706 1.53506C34.7208 1.48915 34.8173 1.30021 34.7431 1.26605C34.5587 1.18385 34.3542 1.30021 34.3288 1.50196C34.262 1.05895 34.3182 0.601 34.2419 0.159059C34.1921 -0.125961 33.9791 0.103549 33.9304 0.273281C33.8837 0.435539 33.8922 0.61808 33.8742 0.785676C33.8625 0.900966 33.853 1.01625 33.8477 1.13154C33.7566 0.850793 33.6559 0.568976 33.5309 0.302103C33.498 0.232716 33.4143 0.00107026 33.3136 2.77287e-06C33.1229 -0.00106472 33.1303 0.306373 33.1589 0.428067C33.0985 0.326655 32.9046 0.117427 32.8686 0.35441C32.8474 0.495319 32.9142 0.634093 32.9629 0.762192C33.0562 1.01305 33.1515 1.26498 33.2458 1.51584C33.1134 1.42937 32.965 1.35251 32.841 1.25324C32.752 1.18278 32.6768 1.09205 32.5899 1.01732C32.4956 0.93726 32.4129 1.11873 32.4182 1.18812C32.431 1.37493 32.6503 1.51904 32.769 1.6418C32.8898 1.76563 33.0063 1.89053 33.0901 2.04318C33.1653 2.17982 33.2607 2.30258 33.3168 2.44883C33.3793 2.61109 33.3995 2.79043 33.4419 2.95909C33.4758 3.09146 33.5129 3.24197 33.5976 3.35193C33.6443 3.41277 33.7174 3.4544 33.7862 3.48429C33.8202 3.49817 33.9145 3.51205 33.9208 3.55902C33.9431 3.72235 33.9346 3.89848 33.9484 4.06394C34.0077 4.79197 34.0882 5.5168 34.1826 6.24162C34.2726 6.93549 34.3171 7.66886 34.5651 8.32857C34.6414 8.53139 34.6234 8.74062 34.671 8.95305C34.7558 9.32454 34.9222 9.66507 34.9932 10.0408C35.0207 10.1903 35.043 10.3408 35.0642 10.4913C35.0748 10.5607 35.0716 10.6888 35.1182 10.7464C35.1373 10.771 35.2263 10.7998 35.221 10.834C35.2146 10.8788 35.1638 10.913 35.1288 10.9333C35.026 10.9941 34.9105 11.0357 34.8183 11.1137C34.7187 11.198 34.7378 11.2802 34.8077 11.3784C34.919 11.5364 35.0578 11.672 35.1638 11.8342C35.2581 11.9794 35.3015 12.1513 35.3524 12.3157C35.4001 12.4736 35.4562 12.638 35.47 12.8035C35.4796 12.9177 35.5145 13.0266 35.5283 13.1408C35.5495 13.3202 35.5294 13.5006 35.5792 13.6756C35.6162 13.8059 35.6311 13.8656 35.54 13.9639C35.1924 14.3364 35.0557 14.8541 34.9667 15.3441C34.8512 15.9804 34.8703 16.5974 34.9593 17.2336C34.9964 17.4941 34.9624 17.7588 34.9254 18.0171C34.866 18.4196 34.7802 18.8273 34.6954 19.2245C34.6552 19.4102 34.5799 19.5831 34.5333 19.7667C34.4814 19.9717 34.4241 20.1745 34.3415 20.3709C34.28 20.5172 34.2027 20.6592 34.2027 20.8214C34.2027 21.0093 34.1338 21.1993 34.0978 21.3829C34.0268 21.7448 34.0607 22.1248 34.0162 22.4931C34.0056 22.5828 33.9738 22.665 34.0183 22.7472C34.0702 22.8443 34.137 22.9351 34.2027 23.0226C34.2493 23.1454 34.1624 23.251 34.1031 23.3492C34.0395 23.4539 34.0999 23.5489 34.0194 23.6503C33.9272 23.7666 33.8202 23.8734 33.747 24.0025C33.6951 24.0944 33.6506 24.1765 33.5923 24.2662C33.5107 24.3922 33.5584 24.5491 33.5955 24.6815C33.6209 24.7733 33.6941 24.9227 33.6347 25.0145C33.5658 25.1202 33.4069 25.1736 33.3168 25.2633C33.0911 25.4885 32.9894 25.7522 32.8622 26.0404C32.7997 26.1834 32.7287 26.3233 32.6355 26.4492C32.52 26.6062 32.3674 26.7065 32.2233 26.8314C31.969 27.0502 31.7411 27.3256 31.5981 27.632C31.5652 27.7014 31.5101 27.8082 31.5324 27.8871C31.5568 27.9736 31.6532 28.0195 31.7199 28.0686C31.8037 28.1305 31.6606 28.1284 31.6193 28.1305C31.4953 28.1348 31.3766 28.1273 31.2622 28.075C31.1732 28.0334 31.0545 27.9053 30.9771 28.0249C30.9104 28.1263 30.8765 28.2544 30.8394 28.3686C30.7747 28.5661 30.7249 28.7678 30.6963 28.9749C30.6688 29.1639 30.7006 29.4606 30.5755 29.6197C30.5268 29.6827 30.4335 29.7254 30.3551 29.7083C30.2831 29.6933 30.2608 29.624 30.2004 29.5973C30.1506 29.5759 30.1241 29.815 30.1209 29.8353C30.0902 30.02 30.051 30.2047 29.9853 30.3797C29.9503 30.4737 29.9058 30.5633 29.8582 30.6519C29.8274 30.7075 29.8317 30.748 29.8168 30.8003C29.7914 30.89 29.6219 30.9722 29.5583 31.0288C29.4237 31.1494 29.3135 31.2946 29.215 31.4451C29.127 31.5807 29.0592 31.6874 28.9394 31.792C28.753 31.9564 28.5908 32.1454 28.4467 32.3482C28.0674 32.8777 27.7654 33.4744 27.4326 34.0348C27.1137 34.5718 26.7926 35.1066 26.4811 35.6478C26.3486 35.8784 26.2321 36.126 26.0562 36.3278C25.911 36.4954 25.7446 36.6064 25.6334 36.8039C25.5613 36.9309 25.5115 37.0612 25.3897 37.1487C25.1714 37.3067 24.8906 37.4102 24.6458 37.5138C24.4116 37.6131 24.1626 37.7017 23.9062 37.7113C23.8023 37.7145 23.6529 37.6568 23.5565 37.6985C23.4336 37.7508 23.513 37.9781 23.5544 38.0571C23.7122 38.3603 24.028 38.5813 24.312 38.7563C24.3639 38.7884 24.4021 38.8364 24.4519 38.8738C24.6045 38.9869 24.7676 38.9976 24.951 38.9837C25.094 38.973 25.254 38.9378 25.3536 38.8257C25.4204 38.751 25.3907 38.6421 25.4935 38.5962C25.6408 38.5311 25.8135 38.5375 25.964 38.4735C26.1272 38.4051 26.2151 38.2813 26.2872 38.1233C26.3454 37.9952 26.3942 37.8564 26.4853 37.7465C26.5775 37.6344 26.7025 37.58 26.8255 37.5095C27.0586 37.375 27.1518 37.011 27.2504 36.7761C27.4093 36.3972 27.7071 36.0865 27.9964 35.8037C28.576 35.2358 29.1916 34.7191 29.6823 34.0679C29.9705 33.6858 30.2142 33.2876 30.4738 32.8862C30.5236 32.8745 30.5734 32.8478 30.62 32.8286C30.7832 32.7624 30.957 32.7037 31.0958 32.5926C31.1689 32.5339 31.2262 32.4816 31.3226 32.4667C31.49 32.4411 31.6532 32.4742 31.8143 32.519C31.988 32.567 32.1639 32.6129 32.3441 32.6193C32.4914 32.6247 32.6323 32.6076 32.7775 32.645C32.9354 32.6855 33.0498 32.757 33.1483 32.8862C33.2395 33.0058 33.3454 33.1029 33.5054 33.1082C33.6231 33.1125 33.6623 33.0196 33.693 32.9225C33.7343 32.7901 33.8297 32.7175 33.888 32.5969C33.9357 32.4998 33.9643 32.3589 34.0734 32.3151C34.1402 32.2884 34.1995 32.2318 34.2546 32.187C34.848 31.6949 35.3439 31.0907 35.8282 30.495C36.0581 30.2121 36.2891 29.9271 36.535 29.657C36.6547 29.5257 36.7713 29.3966 36.9302 29.3144C37.2322 29.1585 37.5077 28.9418 37.8383 28.85C37.9792 28.8105 38.0799 28.7625 38.152 28.6269C38.2018 28.534 38.2537 28.4412 38.2929 28.343C38.419 28.2554 38.7062 28.3419 38.8407 28.359C39.1999 28.4049 39.5846 28.438 39.9173 28.5928C40.195 28.723 40.2935 29.0176 40.5012 29.2226C40.6771 29.3955 40.8731 29.2781 41.0755 29.3549C41.35 29.4585 41.6096 29.5695 41.8586 29.7286C42.1415 29.909 42.4096 30.1118 42.6989 30.2805C42.8218 30.3531 42.9532 30.3979 43.0804 30.4598C43.2255 30.5303 43.3442 30.6327 43.4724 30.7288C43.571 30.8025 43.696 30.8292 43.784 30.9156C43.821 30.9519 43.9228 31.1313 43.9853 31.0587C44.0446 30.9893 44.0605 30.8783 44.0923 30.795C44.1453 30.653 44.2248 30.5249 44.3424 30.4288C44.4727 30.3221 44.6359 30.2666 44.7652 30.1566C44.8341 30.0979 44.8764 30.0221 44.9358 29.9549C45.1445 29.7179 45.3331 29.9314 45.5483 30.0157C45.7051 30.0776 45.8789 30.0937 46.042 30.0467C46.1533 30.0147 46.3207 29.9634 46.4341 30.0211C46.5719 30.0915 46.7594 30.0905 46.9141 30.1332C47.1801 30.2057 47.3666 30.3402 47.5722 30.5164C48.0628 30.938 48.6159 31.19 49.24 31.3362C49.9246 31.4963 50.5625 31.8144 51.1145 32.2521C51.336 32.4272 51.5352 32.6268 51.7514 32.8072C51.9326 32.9588 52.1541 33.0677 52.367 33.168C52.935 33.4349 53.5782 33.5545 54.1928 33.6612C54.338 33.6868 54.4842 33.7551 54.6251 33.8C54.9006 33.8875 55.1783 33.9751 55.4633 34.0295C55.7049 34.0754 55.9454 34.1192 56.1881 34.1619C56.1849 34.1693 56.5018 34.0455 56.3259 33.8149ZM33.0858 0.955408L33.0742 0.92872C33.0795 0.93726 33.0837 0.9458 33.089 0.95434L33.0858 0.955408ZM43.4216 9.40247C43.4205 9.40567 43.4205 9.40674 43.4205 9.40887C43.4067 9.4078 43.3919 9.40567 43.3781 9.4046C43.394 9.4014 43.4088 9.39713 43.4247 9.39179C43.4226 9.39606 43.4226 9.40033 43.4216 9.40247C43.4205 9.40567 43.4226 9.40033 43.4216 9.40247ZM44.0181 10.7326C44.0097 10.7475 44.0075 10.7528 44.0075 10.7699L43.998 10.7507L44.0203 10.7283C44.0203 10.7294 44.0192 10.7304 44.0181 10.7326C44.015 10.7379 44.0192 10.7304 44.0181 10.7326ZM41.7155 8.57516C41.7155 8.57089 41.7166 8.56555 41.7177 8.56128C41.7166 8.5773 41.7177 8.59224 41.7198 8.60825C41.7155 8.59544 41.7145 8.5869 41.7155 8.57516C41.7166 8.57089 41.7145 8.58584 41.7155 8.57516Z" fill="white"/>
<path d="M0.433393 55.2353V55.6996H0V55.2043C0 55.0335 0.0434453 54.8958 0.129276 54.7912C0.215107 54.6866 0.341204 54.6343 0.507568 54.6343H0.597637C0.787313 54.6343 0.924007 54.678 1.00772 54.7645C1.09143 54.851 1.13276 54.9812 1.13276 55.1541V55.642C1.13276 55.8416 1.05964 55.9708 0.91447 56.0316C1.08401 56.0839 1.16878 56.227 1.16878 56.4608V57.0863C1.16878 57.2379 1.12534 57.366 1.03951 57.4695C0.953676 57.5731 0.819102 57.6254 0.636844 57.6254H0.519224C0.358158 57.6254 0.231002 57.5742 0.138813 57.4717C0.0466242 57.3692 0 57.2528 0 57.1215V56.48H0.433393V57.0351C0.433393 57.1397 0.481077 57.192 0.577504 57.192C0.670752 57.192 0.718436 57.1397 0.718436 57.0351V56.4415C0.718436 56.3476 0.672872 56.2996 0.581743 56.2996H0.38253V55.8555H0.581743C0.64956 55.8555 0.683468 55.785 0.683468 55.6431V55.2374C0.683468 55.1189 0.642142 55.0602 0.558431 55.0602C0.475779 55.0581 0.433393 55.1168 0.433393 55.2353Z" fill="white"/>
<path d="M2.46512 57.5866L2.40684 57.0358H2.08259L2.02749 57.5866H1.6333L1.98828 54.6606H2.51174L2.89003 57.5877H2.46512V57.5866ZM2.24153 55.5178L2.12815 56.5992H2.35809L2.24153 55.5178Z" fill="white"/>
<path d="M3.36963 57.5866V54.6606H4.06475C4.23642 54.6606 4.35721 54.7012 4.42609 54.7823C4.49497 54.8635 4.52994 54.982 4.52994 55.1367V55.5851C4.52994 55.7997 4.45682 55.9352 4.31165 55.9907C4.48119 56.0559 4.56596 56.1989 4.56596 56.4199V57.0529C4.56596 57.2184 4.52782 57.3486 4.45046 57.4447C4.37417 57.5407 4.25549 57.5888 4.0976 57.5888H3.36963V57.5866ZM3.94395 55.0577H3.8115V55.8167H3.94395C4.04568 55.8167 4.09654 55.7484 4.09654 55.6118V55.2424C4.09654 55.1773 4.08595 55.1293 4.06369 55.1005C4.04144 55.0716 4.00117 55.0577 3.94395 55.0577ZM3.94395 56.2533H3.8115V57.1735H3.94395C4.01177 57.1735 4.05734 57.1575 4.08065 57.1265C4.10396 57.0956 4.11562 57.0454 4.11562 56.9771V56.4423C4.11562 56.3772 4.10396 56.3291 4.08065 56.2992C4.05734 56.2683 4.01177 56.2533 3.94395 56.2533Z" fill="white"/>
<path d="M6.30654 55.3012V56.9333C6.30654 57.3924 6.11898 57.6219 5.74387 57.6219H5.6697C5.28929 57.6219 5.09961 57.3924 5.09961 56.9333V55.3044C5.09961 54.856 5.28823 54.6318 5.66546 54.6318H5.73963C5.94308 54.6318 6.08825 54.6895 6.17514 54.8048C6.26204 54.9211 6.30654 55.0866 6.30654 55.3012ZM5.85725 56.9654V55.2819C5.85725 55.1325 5.80639 55.0578 5.70466 55.0578C5.60082 55.0578 5.5489 55.1325 5.5489 55.2819V56.9654C5.5489 57.1148 5.60188 57.1895 5.7089 57.1895C5.80745 57.1895 5.85725 57.1148 5.85725 56.9654Z" fill="white"/>
<path d="M7.94653 57.9998V57.5866H7.18147V57.9998H6.77881V57.1426H6.8763C6.9261 57.0401 6.96213 56.9173 6.98544 56.7732C7.02465 56.5106 7.04372 55.8071 7.04372 54.6606H8.15422V57.1426H8.3492V57.9998H7.94653ZM7.39976 56.785C7.38386 56.9131 7.35525 57.0326 7.31393 57.1426H7.71235V55.0855H7.45804C7.4591 55.9406 7.43896 56.5063 7.39976 56.785Z" fill="white"/>
<path d="M10.3979 56.9931V56.3121H10.8313V56.9889C10.8313 57.4116 10.6554 57.6219 10.3036 57.6219H10.2061C9.84371 57.6219 9.66357 57.4159 9.66357 57.0038V55.2179C9.66357 55.0503 9.7049 54.9104 9.78861 54.7994C9.87232 54.6884 10.0058 54.6318 10.1913 54.6318H10.293C10.4074 54.6318 10.5028 54.6489 10.5802 54.6831C10.6565 54.7172 10.7126 54.7674 10.7465 54.8325C10.7804 54.8976 10.8027 54.9617 10.8154 55.0236C10.8271 55.0855 10.8334 55.1581 10.8334 55.2414V55.7644H10.4V55.2488C10.4 55.1207 10.3502 55.0556 10.2517 55.0556C10.1998 55.0556 10.1637 55.0706 10.1447 55.1005C10.1256 55.1304 10.115 55.1795 10.115 55.2478V56.9867C10.115 57.1202 10.1616 57.1874 10.2559 57.1874C10.3502 57.1895 10.3979 57.1244 10.3979 56.9931Z" fill="white"/>
<path d="M11.3755 57.5866V54.6606H12.5273V57.5877H12.0865V55.0855H11.8174V57.5877H11.3755V57.5866Z" fill="white"/>
<path d="M14.3031 55.3012V56.9333C14.3031 57.3924 14.1156 57.6219 13.7405 57.6219H13.6663C13.2859 57.6219 13.0962 57.3924 13.0962 56.9333V55.3044C13.0962 54.856 13.2848 54.6318 13.662 54.6318H13.7362C13.9397 54.6318 14.0848 54.6895 14.1717 54.8048C14.2597 54.9211 14.3031 55.0866 14.3031 55.3012ZM13.8538 56.9654V55.2819C13.8538 55.1325 13.803 55.0578 13.7012 55.0578C13.5974 55.0578 13.5455 55.1325 13.5455 55.2819V56.9654C13.5455 57.1148 13.5985 57.1895 13.7055 57.1895C13.8051 57.1895 13.8538 57.1148 13.8538 56.9654Z" fill="white"/>
<path d="M15.5646 56.3718H15.306V57.5877H14.8652V54.6606H15.5646C15.7235 54.6606 15.839 54.698 15.91 54.7727C15.9821 54.8475 16.0171 54.9713 16.0171 55.1442V55.837C16.0171 56.1936 15.8655 56.3718 15.5646 56.3718ZM15.306 55.0577V55.9512H15.4194C15.4819 55.9512 15.5233 55.9331 15.5423 55.8979C15.5614 55.8626 15.572 55.8093 15.572 55.7388V55.2584C15.572 55.1933 15.5614 55.1432 15.5413 55.109C15.5201 55.0748 15.4798 55.0577 15.4205 55.0577H15.306Z" fill="white"/>
<path d="M16.5063 54.6606H17.6857V55.0855H17.3149V57.5877H16.8772V55.0855H16.5063V54.6606Z" fill="white"/>
<path d="M18.9543 57.5866V56.0014L18.6386 57.5866H18.1978V54.6606H18.6386V56.2459L18.9543 54.6606H19.3951V57.5877H18.9543V57.5866Z" fill="white"/>
<path d="M19.9771 57.5866V54.6606H20.6722C20.8438 54.6606 20.9646 54.7012 21.0335 54.7823C21.1024 54.8635 21.1374 54.982 21.1374 55.1367V55.5851C21.1374 55.7997 21.0642 55.9352 20.9191 55.9907C21.0886 56.0559 21.1734 56.1989 21.1734 56.4199V57.0529C21.1734 57.2184 21.1352 57.3486 21.0579 57.4447C20.9816 57.5407 20.8629 57.5888 20.705 57.5888H19.9771V57.5866ZM20.5503 55.0577H20.4179V55.8167H20.5503C20.652 55.8167 20.7029 55.7484 20.7029 55.6118V55.2424C20.7029 55.1773 20.6923 55.1293 20.6701 55.1005C20.6478 55.0716 20.6075 55.0577 20.5503 55.0577ZM20.5503 56.2533H20.4179V57.1735H20.5503C20.6181 57.1735 20.6637 57.1575 20.687 57.1265C20.7103 57.0956 20.722 57.0454 20.722 56.9771V56.4423C20.722 56.3772 20.7103 56.3291 20.687 56.2992C20.6637 56.2683 20.6181 56.2533 20.5503 56.2533Z" fill="white"/>
<path d="M22.1517 56.3003V57.5866H21.7109V54.6606H22.1517V55.8327H22.4527V54.6606H22.8935V57.5877H22.4527V56.3014H22.1517V56.3003Z" fill="white"/>
<path d="M24.6703 55.3012V56.9333C24.6703 57.3924 24.4828 57.6219 24.1076 57.6219H24.0335C23.6531 57.6219 23.4634 57.3924 23.4634 56.9333V55.3044C23.4634 54.856 23.652 54.6318 24.0292 54.6318H24.1034C24.3069 54.6318 24.452 54.6895 24.5389 54.8048C24.6269 54.9211 24.6703 55.0866 24.6703 55.3012ZM24.221 56.9654V55.2819C24.221 55.1325 24.1702 55.0578 24.0684 55.0578C23.9646 55.0578 23.9127 55.1325 23.9127 55.2819V56.9654C23.9127 57.1148 23.9656 57.1895 24.0727 57.1895C24.1712 57.1895 24.221 57.1148 24.221 56.9654Z" fill="white"/>
<path d="M25.2061 56.2227H25.7571V56.608H25.2061V56.2227Z" fill="white"/>
<path d="M27.0172 56.3718H26.7597V57.5877H26.3188V54.6606H27.0182C27.1772 54.6606 27.2927 54.698 27.3637 54.7727C27.4357 54.8475 27.4707 54.9713 27.4707 55.1442V55.837C27.4696 56.1936 27.3181 56.3718 27.0172 56.3718ZM26.7586 55.0577V55.9512H26.872C26.9345 55.9512 26.9758 55.9331 26.9949 55.8979C27.014 55.8626 27.0246 55.8093 27.0246 55.7388V55.2584C27.0246 55.1933 27.014 55.1432 26.9938 55.109C26.9726 55.0748 26.9324 55.0577 26.873 55.0577H26.7586Z" fill="white"/>
<path d="M28.7517 57.5867L28.6935 57.0359H28.3692L28.3141 57.5867H27.9199L28.2749 54.6597H28.7984L29.1767 57.5867H28.7517ZM28.5292 55.5179L28.4158 56.5993H28.6458L28.5292 55.5179Z" fill="white"/>
<path d="M30.0589 55.2348V55.6991H29.6255V55.2038C29.6255 55.033 29.6689 54.8953 29.7548 54.7907C29.8406 54.6861 29.9667 54.6338 30.1331 54.6338H30.2231C30.4128 54.6338 30.5495 54.6776 30.6332 54.764C30.7169 54.8505 30.7582 54.9807 30.7582 55.1537V55.6415C30.7582 55.8411 30.6851 55.9703 30.54 56.0311C30.7095 56.0834 30.7943 56.2265 30.7943 56.4603V57.0858C30.7943 57.2374 30.7508 57.3655 30.665 57.469C30.5792 57.5726 30.4446 57.6249 30.2623 57.6249H30.1447C29.9836 57.6249 29.8565 57.5737 29.7643 57.4712C29.6721 57.3687 29.6255 57.2523 29.6255 57.121V56.4795H30.0589V57.0346C30.0589 57.1392 30.1066 57.1915 30.203 57.1915C30.2962 57.1915 30.3439 57.1392 30.3439 57.0346V56.4411C30.3439 56.3471 30.2984 56.2991 30.2072 56.2991H30.008V55.855H30.2072C30.275 55.855 30.309 55.7845 30.309 55.6426V55.2369C30.309 55.1184 30.2676 55.0597 30.1839 55.0597C30.1002 55.0576 30.0589 55.1163 30.0589 55.2348Z" fill="white"/>
<path d="M31.3516 57.5866V54.6606H32.0467C32.2183 54.6606 32.3391 54.7012 32.408 54.7823C32.4769 54.8635 32.5119 54.982 32.5119 55.1367V55.5851C32.5119 55.7997 32.4388 55.9352 32.2936 55.9907C32.4631 56.0559 32.5479 56.1989 32.5479 56.4199V57.0529C32.5479 57.2184 32.5097 57.3486 32.4324 57.4447C32.3561 57.5407 32.2374 57.5888 32.0795 57.5888H31.3516V57.5866ZM31.9259 55.0577H31.7934V55.8167H31.9259C32.0276 55.8167 32.0785 55.7484 32.0785 55.6118V55.2424C32.0785 55.1773 32.0679 55.1293 32.0456 55.1005C32.0223 55.0716 31.9831 55.0577 31.9259 55.0577ZM31.9259 56.2533H31.7934V57.1735H31.9259C31.9937 57.1735 32.0393 57.1575 32.0626 57.1265C32.0859 57.0956 32.0975 57.0454 32.0975 56.9771V56.4423C32.0975 56.3772 32.0859 56.3291 32.0626 56.2992C32.0382 56.2683 31.9926 56.2533 31.9259 56.2533Z" fill="white"/>
<path d="M33.8897 57.5863V55.0841H33.6322C33.6322 56.1303 33.6194 56.8113 33.593 57.1262C33.5824 57.2832 33.5431 57.3995 33.4743 57.4742C33.4054 57.549 33.291 57.5863 33.1331 57.5863H33.0239V57.1337H33.0547C33.1045 57.1337 33.1384 57.1198 33.1564 57.0899C33.1744 57.0611 33.186 57.0099 33.1913 56.9362C33.2094 56.7601 33.2189 56.0011 33.2189 54.6582H34.3315V57.5853H33.8897V57.5863Z" fill="white"/>
<path d="M34.9131 54.6606H35.9166V55.0855H35.3539V55.853H35.7947V56.2971H35.3539V57.1426H35.9399V57.5866H34.9131V54.6606Z" fill="white"/>
<path d="M37.2635 57.5866L36.8969 56.3163V57.5866H36.4561V54.6606H36.8969V55.8327L37.2444 54.6606H37.6736L37.2635 56.0217L37.716 57.5877H37.2635V57.5866Z" fill="white"/>
<path d="M38.93 57.5867L38.8717 57.0359H38.5474L38.4923 57.5867H38.0981L38.4531 54.6597H38.9766L39.3549 57.5867H38.93ZM38.7074 55.5179L38.5941 56.5993H38.824L38.7074 55.5179Z" fill="white"/>
<path d="M39.5986 54.6606H40.778V55.0855H40.4071V57.5877H39.9695V55.0855H39.5986V54.6606Z" fill="white"/>
<path d="M41.2964 54.6606H42.2999V55.0855H41.7372V55.853H42.178V56.2971H41.7372V57.1426H42.3232V57.5866H41.2964V54.6606Z" fill="white"/>
<path d="M43.6436 57.5863V55.0841H43.3861C43.3861 56.1303 43.3733 56.8113 43.3469 57.1262C43.3363 57.2832 43.2971 57.3995 43.2282 57.4742C43.1593 57.549 43.0449 57.5863 42.887 57.5863H42.7778V57.1337H42.8086C42.8584 57.1337 42.8923 57.1198 42.9103 57.0899C42.9283 57.0611 42.94 57.0099 42.9453 56.9362C42.9633 56.7601 42.9728 56.0011 42.9728 54.6582H44.0854V57.5853H43.6436V57.5863Z" fill="white"/>
<path d="M45.1006 55.7933H45.3581C45.6601 55.7933 45.8105 55.9726 45.8105 56.3323V57.0753C45.8105 57.2514 45.7745 57.3806 45.7014 57.4628C45.6283 57.545 45.5138 57.5866 45.3581 57.5866H44.6587V54.6606H45.0995V55.7933H45.1006ZM45.1006 57.1618H45.2139C45.2733 57.1618 45.3146 57.1447 45.3347 57.1105C45.3559 57.0764 45.3655 57.0262 45.3655 56.9611V56.4305C45.3655 56.3601 45.3559 56.3067 45.3358 56.2715C45.3167 56.2363 45.2754 56.2181 45.2129 56.2181H45.0995V57.1618H45.1006Z" fill="white"/>
<path d="M46.7948 56.3003V57.5866H46.354V54.6606H46.7948V55.8327H47.0958V54.6606H47.5366V57.5877H47.0958V56.3014H46.7948V56.3003Z" fill="white"/>
<path d="M49.3134 55.3012V56.9333C49.3134 57.3924 49.1258 57.6219 48.7507 57.6219H48.6765C48.2961 57.6219 48.1064 57.3924 48.1064 56.9333V55.3044C48.1064 54.856 48.2951 54.6318 48.6723 54.6318H48.7465C48.9499 54.6318 49.0951 54.6895 49.182 54.8048C49.2699 54.9211 49.3134 55.0866 49.3134 55.3012ZM48.8641 56.9654V55.2819C48.8641 55.1325 48.8132 55.0578 48.7115 55.0578C48.6077 55.0578 48.5557 55.1325 48.5557 55.2819V56.9654C48.5557 57.1148 48.6087 57.1895 48.7157 57.1895C48.8143 57.1895 48.8641 57.1148 48.8641 56.9654Z" fill="white"/>
<path d="M49.8677 57.5866V54.6606H50.7535V55.0855H50.3085V57.5877H49.8677V57.5866Z" fill="white"/>
<path d="M52.4765 55.3012V56.9333C52.4765 57.3924 52.2889 57.6219 51.9138 57.6219H51.8396C51.4592 57.6219 51.2695 57.3924 51.2695 56.9333V55.3044C51.2695 54.856 51.4581 54.6318 51.8354 54.6318H51.9096C52.113 54.6318 52.2582 54.6895 52.3451 54.8048C52.432 54.9211 52.4765 55.0866 52.4765 55.3012ZM52.0272 56.9654V55.2819C52.0272 55.1325 51.9763 55.0578 51.8746 55.0578C51.7707 55.0578 51.7188 55.1325 51.7188 55.2819V56.9654C51.7188 57.1148 51.7718 57.1895 51.8788 57.1895C51.9774 57.1895 52.0272 57.1148 52.0272 56.9654Z" fill="white"/>
<path d="M55.0419 55.3012V56.9333C55.0419 57.3924 54.8543 57.6219 54.4792 57.6219H54.405C54.0246 57.6219 53.835 57.3924 53.835 56.9333V55.3044C53.835 54.856 54.0236 54.6318 54.4008 54.6318H54.475C54.6784 54.6318 54.8236 54.6895 54.9105 54.8048C54.9974 54.9211 55.0419 55.0866 55.0419 55.3012ZM54.5926 56.9654V55.2819C54.5926 55.1325 54.5417 55.0578 54.44 55.0578C54.3362 55.0578 54.2843 55.1325 54.2843 55.2819V56.9654C54.2843 57.1148 54.3372 57.1895 54.4443 57.1895C54.5428 57.1895 54.5926 57.1148 54.5926 56.9654Z" fill="white"/>
<path d="M55.5962 57.5866V54.6606H56.6622V55.0855H56.037V55.7933H56.2945C56.5965 55.7933 56.747 55.9726 56.747 56.3323V57.0753C56.747 57.2514 56.7109 57.3806 56.6378 57.4628C56.5647 57.545 56.4503 57.5866 56.2945 57.5866H55.5962ZM56.037 57.1618H56.1504C56.2097 57.1618 56.2511 57.1447 56.2712 57.1105C56.2924 57.0764 56.3019 57.0262 56.3019 56.9611V56.4305C56.3019 56.3601 56.2924 56.3067 56.2722 56.2715C56.2532 56.2363 56.2118 56.2181 56.1493 56.2181H56.0359V57.1618H56.037Z" fill="white"/>
<path d="M58.4975 55.3012V56.9333C58.4975 57.3924 58.3099 57.6219 57.9348 57.6219H57.8606C57.4802 57.6219 57.2905 57.3924 57.2905 56.9333V55.3044C57.2905 54.856 57.4791 54.6318 57.8564 54.6318H57.9305C58.134 54.6318 58.2792 54.6895 58.3661 54.8048C58.4529 54.9211 58.4975 55.0866 58.4975 55.3012ZM58.0482 56.9654V55.2819C58.0482 55.1325 57.9973 55.0578 57.8956 55.0578C57.7917 55.0578 57.7398 55.1325 57.7398 55.2819V56.9654C57.7398 57.1148 57.7928 57.1895 57.8998 57.1895C57.9984 57.1895 58.0482 57.1148 58.0482 56.9654Z" fill="white"/>
<path d="M59.7584 56.3718H59.5009V57.5877H59.0601V54.6606H59.7594C59.9184 54.6606 60.0339 54.698 60.1049 54.7727C60.1769 54.8475 60.2119 54.9713 60.2119 55.1442V55.837C60.2108 56.1936 60.0604 56.3718 59.7584 56.3718ZM59.5009 55.0577V55.9512H59.6143C59.6768 55.9512 59.7181 55.9331 59.7372 55.8979C59.7562 55.8626 59.7668 55.8093 59.7668 55.7388V55.2584C59.7668 55.1933 59.7562 55.1432 59.7361 55.109C59.7149 55.0748 59.6747 55.0577 59.6153 55.0577H59.5009Z" fill="white"/>
<path d="M61.8396 54.6606L61.4179 57.2023C61.3946 57.3465 61.3575 57.4468 61.3087 57.5034C61.2589 57.56 61.1784 57.5877 61.0671 57.5877H60.7821V57.1351H60.8838C60.9071 57.1351 60.9262 57.1308 60.94 57.1233C60.9538 57.1159 60.9644 57.1052 60.9697 57.0924C60.975 57.0796 60.9803 57.0625 60.9856 57.0411L60.9972 56.9504C61.0046 56.9034 60.9993 56.8244 60.9813 56.7145L60.6528 54.6606H61.1021L61.2664 55.9544L61.4221 54.6606H61.8396Z" fill="white"/>
<path d="M63.2693 57.9998V57.5866H62.5042V57.9998H62.1016V57.1426H62.1991C62.2489 57.0401 62.2849 56.9173 62.3082 56.7732C62.3474 56.5106 62.3665 55.8071 62.3665 54.6606H63.4759V57.1426H63.6709V57.9998H63.2693ZM62.7225 56.785C62.7066 56.9131 62.678 57.0326 62.6367 57.1426H63.0351V55.0855H62.7808C62.7808 55.9406 62.7617 56.5063 62.7225 56.785Z" fill="white"/>
<path d="M65.3847 55.3012V56.9333C65.3847 57.3924 65.1971 57.6219 64.822 57.6219H64.7478C64.3674 57.6219 64.1777 57.3924 64.1777 56.9333V55.3044C64.1777 54.856 64.3663 54.6318 64.7436 54.6318H64.8178C65.0212 54.6318 65.1664 54.6895 65.2533 54.8048C65.3412 54.9211 65.3847 55.0866 65.3847 55.3012ZM64.9354 56.9654V55.2819C64.9354 55.1325 64.8845 55.0578 64.7828 55.0578C64.6789 55.0578 64.627 55.1325 64.627 55.2819V56.9654C64.627 57.1148 64.68 57.1895 64.787 57.1895C64.8856 57.1895 64.9354 57.1148 64.9354 56.9654Z" fill="white"/>
<path d="M65.9478 57.5866V54.6606H66.6429C66.8145 54.6606 66.9353 54.7012 67.0042 54.7823C67.0731 54.8635 67.1081 54.982 67.1081 55.1367V55.5851C67.1081 55.7997 67.0349 55.9352 66.8898 55.9907C67.0593 56.0559 67.1441 56.1989 67.1441 56.4199V57.0529C67.1441 57.2184 67.1059 57.3486 67.0286 57.4447C66.9523 57.5407 66.8336 57.5888 66.6757 57.5888H65.9478V57.5866ZM66.521 55.0577H66.3886V55.8167H66.521C66.6227 55.8167 66.6736 55.7484 66.6736 55.6118V55.2424C66.6736 55.1773 66.663 55.1293 66.6408 55.1005C66.6185 55.0716 66.5782 55.0577 66.521 55.0577ZM66.521 56.2533H66.3886V57.1735H66.521C66.5888 57.1735 66.6344 57.1575 66.6577 57.1265C66.681 57.0956 66.6927 57.0454 66.6927 56.9771V56.4423C66.6927 56.3772 66.681 56.3291 66.6577 56.2992C66.6344 56.2683 66.5888 56.2533 66.521 56.2533Z" fill="white"/>
<path d="M68.4275 57.5867L68.3692 57.0359H68.045L67.9899 57.5867H67.5957L67.9507 54.6597H68.4741L68.8524 57.5867H68.4275ZM68.2039 55.5179L68.0906 56.5993H68.3205L68.2039 55.5179Z" fill="white"/>
<path d="M69.766 56.3003V57.5866H69.3252V54.6606H69.766V55.8327H70.0669V54.6606H70.5078V57.5877H70.0669V56.3014H69.766V56.3003Z" fill="white"/>
<path d="M71.8391 57.5866V56.0014L71.5233 57.5866H71.0825V54.6606H71.5233V56.2459L71.8391 54.6606H72.2799V57.5877H71.8391V57.5866Z" fill="white"/>
<path d="M73.558 56.3601H73.5072L73.1829 57.5877H72.7305L73.0823 56.2822C72.9212 56.2299 72.8407 56.1114 72.8407 55.9278V55.1133C72.8407 54.951 72.8767 54.8346 72.9498 54.7653C73.0229 54.6959 73.1342 54.6606 73.2857 54.6606H73.9999V57.5877H73.5591V56.3601H73.558ZM73.558 55.9352V55.0577H73.4404C73.3758 55.0577 73.3323 55.0727 73.3112 55.1015C73.29 55.1303 73.2804 55.1794 73.2804 55.2467V55.7271C73.2804 55.8658 73.3334 55.9352 73.4404 55.9352H73.558Z" fill="white"/>
<path d="M71.9514 37.2257C70.8367 37.2257 69.9307 36.3119 69.9307 35.19C69.9307 34.067 70.8377 33.1543 71.9514 33.1543C73.0661 33.1543 73.9721 34.0681 73.9721 35.19C73.9721 36.313 73.0661 37.2257 71.9514 37.2257ZM71.9514 33.5172C71.0359 33.5172 70.2909 34.2677 70.2909 35.19C70.2909 36.1123 71.0359 36.8628 71.9514 36.8628C72.8669 36.8628 73.6119 36.1123 73.6119 35.19C73.6119 34.2677 72.8669 33.5172 71.9514 33.5172Z" fill="white"/>
<path d="M72.3743 36.1305L71.9928 35.3459H71.7184V36.1305H71.3369V34.1631H72.103C72.5004 34.1631 72.7367 34.4364 72.7367 34.7651C72.7367 35.0416 72.5693 35.2124 72.3796 35.2818L72.8162 36.1305H72.3743ZM72.0787 34.5057H71.7194V35.0256H72.0787C72.2461 35.0256 72.3563 34.9178 72.3563 34.7662C72.3552 34.6136 72.2461 34.5057 72.0787 34.5057Z" fill="white"/>
</svg>
