<svg width="74" height="58" viewBox="0 0 74 58" fill="none" xmlns="http://www.w3.org/2000/svg">
<path d="M14.8693 53.6051H9.48631L9.03173 51.7915H5.20325L4.74866 53.6051H0.0480957L4.21778 39.953H10.7187L14.8693 53.6051ZM8.19779 48.3926L7.13709 44.0394L6.03824 48.3926H8.19779Z" fill="#E85F62"/>
<path d="M58.3476 39.9645H54.6421L56.4371 44.6444L58.3476 39.9645Z" fill="#0E2E93"/>
<path d="M24.3345 39.953H12.6975V43.8483H15.976V53.6051H21.0549V53.5774H24.3345V39.9647V39.953Z" fill="#0E2E93"/>
<path d="M73.928 39.9645H66.1184L70.0232 45.9713L73.928 39.9645Z" fill="#0E2E93"/>
<path d="M31.2145 44.9169V44.84C31.2145 44.0896 30.7663 43.7138 29.8687 43.7138H29.3569V46.1199H29.8497C30.7599 46.1199 31.2145 45.7196 31.2145 44.9169Z" fill="#0E2E93"/>
<path d="M30.7365 39.9645C32.504 40.036 33.7989 40.4513 34.6169 41.2124C35.5197 42.0525 35.9722 43.2556 35.9722 44.8216V44.8985C35.9722 46.3492 35.5081 47.4764 34.5788 48.2781C33.6505 49.0798 32.2634 49.4812 30.4186 49.4812H29.3579V53.5782H36.2689V39.9645H30.7365Z" fill="#0E2E93"/>
<path d="M41.2104 53.5774H44.702V46.9034L41.2104 53.5774Z" fill="#0E2E93"/>
<path d="M44.8288 39.9645H41.3298V46.6545L44.8288 39.9645Z" fill="#0E2E93"/>
<path d="M70.0391 53.5774H73.8654V47.0647L70.0391 53.5774Z" fill="#0E2E93"/>
<path d="M57.2708 53.5774H61.8993V42.3421L57.2708 53.5774Z" fill="#0E2E93"/>
<path d="M66.1812 53.5774H70.0075L66.1812 47.0647V53.5774Z" fill="#0E2E93"/>
<path d="M49.7441 40.5572V53.5774H52.6868L54.1734 50.0365C54.1713 50.0323 50.7572 42.7264 49.7441 40.5572Z" fill="#0E2E93"/>
<path fill-rule="evenodd" clip-rule="evenodd" d="M56.3259 33.8149C56.1976 33.6473 56.0493 33.5481 56.115 33.3185C56.1404 33.2278 56.1934 33.1467 56.2167 33.057C56.2432 32.9577 56.1648 32.8553 56.1277 32.7688C56.079 32.6567 56.0578 32.3962 55.9041 32.3962C55.7134 32.3962 55.5237 32.2553 55.3425 32.2041C55.174 32.156 54.9981 32.1934 54.8265 32.1849C54.6771 32.1774 54.5308 32.1592 54.3814 32.1657C54.0667 32.1785 53.752 32.2233 53.4383 32.2543C53.4722 32.1358 53.1522 32.0034 53.0865 31.9703C52.8884 31.87 52.6765 31.8347 52.4953 31.7024C52.0481 31.3746 51.62 31.0181 51.1813 30.6786C50.661 30.2762 50.1301 29.8876 49.6099 29.4852C49.026 29.0336 48.4443 28.6493 47.7343 28.4262C47.641 28.3974 47.5467 28.3697 47.4503 28.3504V28.28C47.3359 28.2106 47.2214 28.1412 47.1059 28.0718C47.0837 28.0579 47.0784 27.995 47.0688 27.9704C47.0381 27.8893 46.9904 27.8103 46.9194 27.759C46.8188 27.6886 46.7096 27.7356 46.6026 27.6982C46.539 27.6758 46.521 27.6085 46.4638 27.5818C46.379 27.5423 46.2826 27.5818 46.2021 27.5157C46.1067 27.4356 46.1364 27.3118 46.0919 27.2104C46.0495 27.1143 45.9562 27.0449 45.8767 26.983C45.7538 26.8869 45.6298 26.794 45.5165 26.6862C45.2897 26.4685 45.1127 26.1856 44.8637 25.9924C44.6952 25.8621 44.3954 25.7991 44.1866 25.7927C44.051 25.7895 44.1495 25.8397 44.1432 25.9005C44.1432 25.8984 44.0902 25.8578 44.087 25.8557C43.9959 25.7757 43.9058 25.6945 43.8136 25.6177C43.607 25.4458 43.3792 25.306 43.1429 25.1789C43.0539 25.1309 42.8409 25.0615 42.8017 24.9548C42.7413 24.7872 42.5421 24.7594 42.4838 24.5758C42.4308 24.4103 42.2517 24.4295 42.1171 24.4915C42.0483 24.5235 42.0038 24.4157 41.9614 24.3794C41.9094 24.3356 41.8522 24.3239 41.7939 24.2972C41.7304 24.2694 41.6339 24.2299 41.6011 24.1627C41.5682 24.0954 41.6022 24.009 41.5704 23.9364C41.5354 23.8552 41.3033 23.7389 41.3192 23.6652C41.3796 23.4485 41.4146 23.2051 41.3743 22.981C41.3161 22.6618 41.0268 22.4024 40.8615 22.1366C40.7809 22.0063 40.7629 21.8996 40.7385 21.7512C40.7089 21.574 40.6411 21.4214 40.5881 21.2527C40.5489 21.1289 40.5383 21.0029 40.5372 20.8737C40.5351 20.5588 40.5605 20.2439 40.551 19.929C40.5468 19.8116 40.5383 19.7016 40.5648 19.5842C40.6283 19.3002 40.8901 19.1743 41.0882 18.9907C41.3796 18.7206 41.6488 18.4132 41.8787 18.0886C42.0525 17.8431 42.1924 17.5773 42.3471 17.319C42.4742 17.1055 42.6353 16.9539 42.8101 16.7799C42.9426 16.6475 43.1556 16.4703 43.1503 16.2675C43.1471 16.117 43.3771 15.9515 43.4767 15.8661C43.7712 15.6142 44.1093 15.4626 44.4462 15.2811C44.6698 15.1605 44.8976 15.0474 45.1244 14.9331V14.3652C45.4847 13.8518 46.0399 13.5208 46.4765 13.08C46.61 12.9444 46.7404 12.859 46.9014 12.7512C47.1653 12.5751 47.4069 12.3904 47.641 12.1758C47.9324 11.9079 48.2228 11.6378 48.5269 11.3837C48.7791 11.1734 49.0472 10.9802 49.2888 10.756C49.648 10.4209 50.038 10.1316 50.3389 9.73659C50.3749 9.68962 50.4385 9.54551 50.501 9.53697C50.7087 9.50922 50.909 9.39606 51.0923 9.29999C51.3858 9.14734 51.7101 8.98935 52.0396 8.93811C52.1742 8.91676 53.2614 8.92957 53.0738 8.5869C52.9912 8.43746 52.6192 8.55381 52.4942 8.56022C52.2929 8.57089 52.0894 8.56342 51.8891 8.54527V8.40329C52.1265 8.26452 52.3649 8.12148 52.5896 7.96135C52.7496 7.8482 52.9445 7.72224 53.0558 7.55571C53.1544 7.40839 53.0484 7.28777 52.8916 7.33367C52.7093 7.38704 52.544 7.52902 52.3798 7.62296C52.2155 7.7169 52.0523 7.8119 51.8881 7.90584C52.0746 7.7628 52.2611 7.62082 52.4476 7.47991C52.5398 7.41053 52.6309 7.34007 52.7241 7.27389C52.8227 7.2045 53.1067 6.90987 52.9011 6.78925C52.7824 6.71986 52.5588 6.88746 52.4645 6.94937C52.3374 7.0337 52.2134 7.12124 52.0894 7.20877C51.9686 7.2931 51.8489 7.3785 51.7291 7.4639C51.656 7.51621 51.6253 7.55144 51.5363 7.55144C51.673 7.35502 51.8107 7.15753 51.958 6.96859C52.0555 6.84369 52.1996 6.75722 52.2886 6.62806C52.348 6.54159 52.4158 6.26618 52.2388 6.27045C52.0534 6.27472 51.8828 6.49355 51.7641 6.61098C51.6136 6.76043 51.4579 6.9056 51.3106 7.05719C51.2004 7.17034 51.1145 7.33367 50.9832 7.42227C50.8274 7.52689 50.5868 7.5002 50.4088 7.47991C50.4088 7.3358 50.3834 7.17034 50.4152 7.02943C50.4438 6.90027 50.4396 6.75616 50.3834 6.63446C50.3368 6.53198 50.1354 6.29073 50.0221 6.45512C49.9489 6.5608 49.9627 6.75829 49.9479 6.88105C49.9267 7.05719 49.9044 7.23973 49.8451 7.40839C49.7402 7.70836 49.7911 8.02861 49.7126 8.33604C49.6745 8.48549 49.6501 8.59544 49.5569 8.7118C49.3979 8.90929 49.2347 9.10357 49.0641 9.29145C48.884 9.49 48.6975 9.69176 48.475 9.84334C48.1581 10.06 47.8434 10.281 47.5308 10.5041C47.2352 10.7144 46.9385 10.9247 46.6588 11.1574C46.4256 11.3517 46.1745 11.5599 45.9933 11.8075C45.8608 11.989 45.6712 12.0573 45.4815 12.1694C45.2791 12.289 45.0852 12.4288 44.9135 12.59C44.8722 12.5291 44.7726 12.558 44.7164 12.5772C44.4526 12.6669 44.2279 12.8633 43.9779 12.985C43.802 13.0704 43.643 13.1696 43.4735 13.2636C43.2923 13.3639 43.1662 13.5561 42.9415 13.5134L42.7307 13.3714C42.8441 13.2977 42.9013 13.1387 42.9415 13.017C42.9754 12.9145 43.0348 12.7736 43.0115 12.6626L42.8705 12.3786C42.9754 12.337 43.0793 12.2943 43.1842 12.2527C43.305 12.2036 43.518 12.2164 43.6473 12.2238C43.6568 12.2153 43.6642 12.2046 43.6706 12.194C43.6388 12.1256 43.572 12.0765 43.5031 12.0498L43.6462 11.9538L43.5996 11.7659C43.6642 11.7979 43.8232 11.7627 43.7956 11.6613C43.9503 11.5054 44.0785 11.3496 44.2099 11.1724C44.1803 11.1137 44.1856 11.0475 44.1453 10.992C44.1018 10.93 44.0658 10.882 44.0319 10.8137C44.2226 10.9898 44.4102 10.5714 44.1156 10.629L44.2099 10.534C44.2099 10.534 44.2099 10.3365 44.1464 10.2586C44.2714 10.1486 44.1665 10.0269 44.0266 10.0707C44.0065 10.0366 43.9853 10.0024 43.962 9.9693C44.0637 9.90419 44.0489 9.76648 43.9185 9.76648C43.9524 9.74086 43.9842 9.71311 44.0139 9.68215C44.0107 9.66934 44.0054 9.6576 43.998 9.64799C43.8867 9.64052 43.7712 9.65119 43.6589 9.65546C43.6494 9.64052 43.6377 9.63091 43.6239 9.62237C43.6239 9.62237 43.6239 9.62237 43.6239 9.6213C43.7066 9.60956 43.7893 9.56793 43.8475 9.50815C43.8486 9.49534 43.8475 9.48253 43.8444 9.46972C43.8041 9.43983 43.7575 9.42061 43.7087 9.40887C43.8115 9.38859 43.9153 9.35657 44.0203 9.35443C44.0298 9.34589 44.0372 9.33628 44.0446 9.32454C44.0192 9.24982 43.9482 9.20605 43.8761 9.18577C43.7564 9.15161 43.6536 9.2274 43.5466 9.20925C43.8772 9.10997 44.1983 8.97334 44.5257 8.86232C44.5299 8.84951 44.5299 8.8367 44.5236 8.82389C44.2332 8.78332 43.9471 8.8463 43.6706 8.93277C43.4989 8.98721 43.3272 9.04379 43.1524 9.08969C43.0231 9.12385 42.8324 9.19217 42.7074 9.13453C42.7084 9.13132 42.7095 9.12919 42.7095 9.12599C42.8345 9.11211 42.9998 9.05447 43.0443 8.92316C43.0358 8.91249 43.0263 8.90502 43.0147 8.89968C42.8451 8.98508 42.5791 8.91249 42.4001 8.89541C42.4085 8.87406 42.4138 8.85271 42.4149 8.82922C42.4064 8.81962 42.3979 8.81001 42.3884 8.80254C42.3831 8.80254 42.3778 8.80147 42.3725 8.80147C42.4742 8.75984 42.5431 8.65949 42.5357 8.54741C42.5272 8.5378 42.5187 8.52819 42.5092 8.52072C42.4711 8.51752 42.4297 8.52072 42.3937 8.5346C42.4742 8.41611 42.5113 8.25385 42.4488 8.11934C42.4361 8.11614 42.4234 8.11614 42.4107 8.11721C42.274 8.3179 42.1288 8.57089 41.9349 8.72141C41.9688 8.57089 41.9296 8.37661 41.8067 8.2752C41.7939 8.27733 41.7823 8.28053 41.7696 8.2848C41.7611 8.30188 41.7547 8.32003 41.7494 8.33818C41.7208 8.13108 41.5057 8.03394 41.35 7.93253C41.3372 7.9368 41.3277 7.94427 41.3203 7.95602C41.3722 8.08839 41.5778 8.24637 41.5333 8.39582C41.5153 8.40757 41.4994 8.42251 41.4845 8.43852C41.4814 8.23997 41.3595 8.1108 41.2927 7.9368C41.2345 7.78522 41.2514 7.65285 41.2557 7.49593C41.2461 7.48739 41.2345 7.48205 41.2217 7.47885C41.0098 7.68274 41.0204 7.94427 41.1698 8.17805C41.1232 8.13215 41.0734 8.08625 41.0342 8.06063C41.0384 7.88876 40.9642 7.69875 40.8297 7.5888C40.817 7.59093 40.8053 7.59414 40.7936 7.59947C40.782 7.63577 40.7756 7.6742 40.7735 7.71263C40.7555 7.59093 40.676 7.48739 40.5563 7.4575C40.5468 7.46604 40.5393 7.47671 40.534 7.48845C40.6029 7.6347 40.5595 7.79056 40.5531 7.94427C40.5309 7.91438 40.5044 7.8909 40.4726 7.87168C40.4895 7.85567 40.5097 7.83966 40.5256 7.82365C40.4779 7.80336 40.4302 7.76387 40.373 7.78735C40.303 7.8119 40.2702 7.89837 40.3624 7.91759C40.3603 7.9336 40.3581 7.95068 40.3581 7.96669C40.1314 7.83432 40.1271 7.69021 40.1716 7.4607C40.0434 7.40626 39.8114 7.46284 39.7224 7.33367C39.7086 7.3326 39.6969 7.33687 39.6863 7.34541C39.7012 7.50874 39.8686 7.50126 39.9587 7.59093C39.9587 7.59093 39.9597 7.59093 39.9587 7.592C39.8654 7.75213 39.9904 7.97843 40.1187 8.07664C40.0805 8.13642 40.0519 8.193 40.0519 8.193C40.0053 8.16418 39.9979 8.1076 39.9661 8.06277C39.9099 7.97843 39.8379 7.90905 39.7563 7.84927C39.6397 7.76921 39.5072 7.70729 39.3674 7.68487C39.3578 7.69341 39.3504 7.70409 39.3462 7.7169C39.4606 7.91011 39.6535 8.04142 39.8092 8.19727C39.7753 8.18232 39.7414 8.16631 39.7075 8.15137C39.6948 8.15457 39.6842 8.15991 39.6725 8.16631C39.6514 8.26452 39.7065 8.35953 39.7711 8.42892C39.7541 8.43532 39.7393 8.44386 39.7266 8.45667C39.6196 8.35526 39.4331 8.31363 39.3144 8.42037C39.3144 8.43318 39.3154 8.44599 39.3186 8.45774C39.3674 8.48869 39.4182 8.51645 39.4659 8.54847C39.396 8.5378 39.3229 8.5378 39.254 8.55595C39.2487 8.56769 39.2455 8.57943 39.2434 8.59224C39.2868 8.64882 39.3419 8.68832 39.3992 8.72995C39.2656 8.80254 39.1448 8.90608 39.0071 8.968C38.9297 9.00216 38.7867 8.92957 38.7136 8.90181L39.0654 9.25622C39.0145 9.34696 38.9615 9.44303 38.9308 9.54338C38.9001 9.64479 39.0103 9.74727 39.0654 9.82413L38.9954 10.1081L39.1364 10.1785C39.0866 10.328 39.0007 10.5169 38.9954 10.6749C38.9901 10.8372 39.0654 11.0048 39.0654 11.1713C38.7411 11.0827 38.6511 11.3997 38.6426 11.6677C38.5038 11.7552 38.2399 11.4051 38.1562 11.3261C38.0852 11.2588 38.0227 11.2524 37.9347 11.2215C37.8394 11.1884 37.7472 11.1446 37.6571 11.0998C37.7165 10.787 37.7684 10.4625 37.6762 10.1508C37.5554 9.74513 37.2576 9.38752 37.0234 9.04166C36.8465 8.95626 36.6335 8.93277 36.4597 9.04166C36.3209 9.08329 36.1959 8.73422 36.1651 8.65629C36.0401 8.33177 36.0486 7.95815 36.0178 7.61655C35.9532 6.88105 35.6533 6.18718 35.4478 5.48371C35.2623 4.84962 35.1733 4.19631 35.0122 3.55582C34.9699 3.38822 34.9095 3.23023 34.8353 3.07545C34.759 2.91852 34.6668 2.76054 34.6361 2.58653C34.6053 2.40933 34.6032 2.19797 34.6096 2.01756C34.6159 1.8521 34.653 1.69091 34.706 1.53506C34.7208 1.48915 34.8173 1.30021 34.7431 1.26605C34.5587 1.18385 34.3542 1.30021 34.3288 1.50196C34.262 1.05895 34.3182 0.601 34.2419 0.159059C34.1921 -0.125961 33.9791 0.103549 33.9304 0.273281C33.8837 0.435539 33.8922 0.61808 33.8742 0.785676C33.8625 0.900966 33.853 1.01625 33.8477 1.13154C33.7566 0.850793 33.6559 0.568976 33.5309 0.302103C33.498 0.232716 33.4143 0.00107026 33.3136 2.77287e-06C33.1229 -0.00106472 33.1303 0.306373 33.1589 0.428067C33.0985 0.326655 32.9046 0.117427 32.8686 0.35441C32.8474 0.495319 32.9142 0.634093 32.9629 0.762192C33.0562 1.01305 33.1515 1.26498 33.2458 1.51584C33.1134 1.42937 32.965 1.35251 32.841 1.25324C32.752 1.18278 32.6768 1.09205 32.5899 1.01732C32.4956 0.93726 32.4129 1.11873 32.4182 1.18812C32.431 1.37493 32.6503 1.51904 32.769 1.6418C32.8898 1.76563 33.0063 1.89053 33.0901 2.04318C33.1653 2.17982 33.2607 2.30258 33.3168 2.44883C33.3793 2.61109 33.3995 2.79043 33.4419 2.95909C33.4758 3.09146 33.5129 3.24197 33.5976 3.35193C33.6443 3.41277 33.7174 3.4544 33.7862 3.48429C33.8202 3.49817 33.9145 3.51205 33.9208 3.55902C33.9431 3.72235 33.9346 3.89848 33.9484 4.06394C34.0077 4.79197 34.0882 5.5168 34.1826 6.24162C34.2726 6.93549 34.3171 7.66886 34.5651 8.32857C34.6414 8.53139 34.6234 8.74062 34.671 8.95305C34.7558 9.32454 34.9222 9.66507 34.9932 10.0408C35.0207 10.1903 35.043 10.3408 35.0642 10.4913C35.0748 10.5607 35.0716 10.6888 35.1182 10.7464C35.1373 10.771 35.2263 10.7998 35.221 10.834C35.2146 10.8788 35.1638 10.913 35.1288 10.9333C35.026 10.9941 34.9105 11.0357 34.8183 11.1137C34.7187 11.198 34.7378 11.2802 34.8077 11.3784C34.919 11.5364 35.0578 11.672 35.1638 11.8342C35.2581 11.9794 35.3015 12.1513 35.3524 12.3157C35.4001 12.4736 35.4562 12.638 35.47 12.8035C35.4796 12.9177 35.5145 13.0266 35.5283 13.1408C35.5495 13.3202 35.5294 13.5006 35.5792 13.6756C35.6162 13.8059 35.6311 13.8656 35.54 13.9639C35.1924 14.3364 35.0557 14.8541 34.9667 15.3441C34.8512 15.9804 34.8703 16.5974 34.9593 17.2336C34.9964 17.4941 34.9624 17.7588 34.9254 18.0171C34.866 18.4196 34.7802 18.8273 34.6954 19.2245C34.6552 19.4102 34.5799 19.5831 34.5333 19.7667C34.4814 19.9717 34.4241 20.1745 34.3415 20.3709C34.28 20.5172 34.2027 20.6592 34.2027 20.8214C34.2027 21.0093 34.1338 21.1993 34.0978 21.3829C34.0268 21.7448 34.0607 22.1248 34.0162 22.4931C34.0056 22.5828 33.9738 22.665 34.0183 22.7472C34.0702 22.8443 34.137 22.9351 34.2027 23.0226C34.2493 23.1454 34.1624 23.251 34.1031 23.3492C34.0395 23.4539 34.0999 23.5489 34.0194 23.6503C33.9272 23.7666 33.8202 23.8734 33.747 24.0025C33.6951 24.0944 33.6506 24.1765 33.5923 24.2662C33.5107 24.3922 33.5584 24.5491 33.5955 24.6815C33.6209 24.7733 33.6941 24.9227 33.6347 25.0145C33.5658 25.1202 33.4069 25.1736 33.3168 25.2633C33.0911 25.4885 32.9894 25.7522 32.8622 26.0404C32.7997 26.1834 32.7287 26.3233 32.6355 26.4492C32.52 26.6062 32.3674 26.7065 32.2233 26.8314C31.969 27.0502 31.7411 27.3256 31.5981 27.632C31.5652 27.7014 31.5101 27.8082 31.5324 27.8871C31.5568 27.9736 31.6532 28.0195 31.7199 28.0686C31.8037 28.1305 31.6606 28.1284 31.6193 28.1305C31.4953 28.1348 31.3766 28.1273 31.2622 28.075C31.1732 28.0334 31.0545 27.9053 30.9771 28.0249C30.9104 28.1263 30.8765 28.2544 30.8394 28.3686C30.7747 28.5661 30.7249 28.7678 30.6963 28.9749C30.6688 29.1639 30.7006 29.4606 30.5755 29.6197C30.5268 29.6827 30.4335 29.7254 30.3551 29.7083C30.2831 29.6933 30.2608 29.624 30.2004 29.5973C30.1506 29.5759 30.1241 29.815 30.1209 29.8353C30.0902 30.02 30.051 30.2047 29.9853 30.3797C29.9503 30.4737 29.9058 30.5633 29.8582 30.6519C29.8274 30.7075 29.8317 30.748 29.8168 30.8003C29.7914 30.89 29.6219 30.9722 29.5583 31.0288C29.4237 31.1494 29.3135 31.2946 29.215 31.4451C29.127 31.5807 29.0592 31.6874 28.9394 31.792C28.753 31.9564 28.5908 32.1454 28.4467 32.3482C28.0674 32.8777 27.7654 33.4744 27.4326 34.0348C27.1137 34.5718 26.7926 35.1066 26.4811 35.6478C26.3486 35.8784 26.2321 36.126 26.0562 36.3278C25.911 36.4954 25.7446 36.6064 25.6334 36.8039C25.5613 36.9309 25.5115 37.0612 25.3897 37.1487C25.1714 37.3067 24.8906 37.4102 24.6458 37.5138C24.4116 37.6131 24.1626 37.7017 23.9062 37.7113C23.8023 37.7145 23.6529 37.6568 23.5565 37.6985C23.4336 37.7508 23.513 37.9781 23.5544 38.0571C23.7122 38.3603 24.028 38.5813 24.312 38.7563C24.3639 38.7884 24.4021 38.8364 24.4519 38.8738C24.6045 38.9869 24.7676 38.9976 24.951 38.9837C25.094 38.973 25.254 38.9378 25.3536 38.8257C25.4204 38.751 25.3907 38.6421 25.4935 38.5962C25.6408 38.5311 25.8135 38.5375 25.964 38.4735C26.1272 38.4051 26.2151 38.2813 26.2872 38.1233C26.3454 37.9952 26.3942 37.8564 26.4853 37.7465C26.5775 37.6344 26.7025 37.58 26.8255 37.5095C27.0586 37.375 27.1518 37.011 27.2504 36.7761C27.4093 36.3972 27.7071 36.0865 27.9964 35.8037C28.576 35.2358 29.1916 34.7191 29.6823 34.0679C29.9705 33.6858 30.2142 33.2876 30.4738 32.8862C30.5236 32.8745 30.5734 32.8478 30.62 32.8286C30.7832 32.7624 30.957 32.7037 31.0958 32.5926C31.1689 32.5339 31.2262 32.4816 31.3226 32.4667C31.49 32.4411 31.6532 32.4742 31.8143 32.519C31.988 32.567 32.1639 32.6129 32.3441 32.6193C32.4914 32.6247 32.6323 32.6076 32.7775 32.645C32.9354 32.6855 33.0498 32.757 33.1483 32.8862C33.2395 33.0058 33.3454 33.1029 33.5054 33.1082C33.6231 33.1125 33.6623 33.0196 33.693 32.9225C33.7343 32.7901 33.8297 32.7175 33.888 32.5969C33.9357 32.4998 33.9643 32.3589 34.0734 32.3151C34.1402 32.2884 34.1995 32.2318 34.2546 32.187C34.848 31.6949 35.3439 31.0907 35.8282 30.495C36.0581 30.2121 36.2891 29.9271 36.535 29.657C36.6547 29.5257 36.7713 29.3966 36.9302 29.3144C37.2322 29.1585 37.5077 28.9418 37.8383 28.85C37.9792 28.8105 38.0799 28.7625 38.152 28.6269C38.2018 28.534 38.2537 28.4412 38.2929 28.343C38.419 28.2554 38.7062 28.3419 38.8407 28.359C39.1999 28.4049 39.5846 28.438 39.9173 28.5928C40.195 28.723 40.2935 29.0176 40.5012 29.2226C40.6771 29.3955 40.8731 29.2781 41.0755 29.3549C41.35 29.4585 41.6096 29.5695 41.8586 29.7286C42.1415 29.909 42.4096 30.1118 42.6989 30.2805C42.8218 30.3531 42.9532 30.3979 43.0804 30.4598C43.2255 30.5303 43.3442 30.6327 43.4724 30.7288C43.571 30.8025 43.696 30.8292 43.784 30.9156C43.821 30.9519 43.9228 31.1313 43.9853 31.0587C44.0446 30.9893 44.0605 30.8783 44.0923 30.795C44.1453 30.653 44.2248 30.5249 44.3424 30.4288C44.4727 30.3221 44.6359 30.2666 44.7652 30.1566C44.8341 30.0979 44.8764 30.0221 44.9358 29.9549C45.1445 29.7179 45.3331 29.9314 45.5483 30.0157C45.7051 30.0776 45.8789 30.0937 46.042 30.0467C46.1533 30.0147 46.3207 29.9634 46.4341 30.0211C46.5719 30.0915 46.7594 30.0905 46.9141 30.1332C47.1801 30.2057 47.3666 30.3402 47.5722 30.5164C48.0628 30.938 48.6159 31.19 49.24 31.3362C49.9246 31.4963 50.5625 31.8144 51.1145 32.2521C51.336 32.4272 51.5352 32.6268 51.7514 32.8072C51.9326 32.9588 52.1541 33.0677 52.367 33.168C52.935 33.4349 53.5782 33.5545 54.1928 33.6612C54.338 33.6868 54.4842 33.7551 54.6251 33.8C54.9006 33.8875 55.1783 33.9751 55.4633 34.0295C55.7049 34.0754 55.9454 34.1192 56.1881 34.1619C56.1849 34.1693 56.5018 34.0455 56.3259 33.8149ZM33.0858 0.955408L33.0742 0.92872C33.0795 0.93726 33.0837 0.9458 33.089 0.95434L33.0858 0.955408ZM43.4216 9.40247C43.4205 9.40567 43.4205 9.40674 43.4205 9.40887C43.4067 9.4078 43.3919 9.40567 43.3781 9.4046C43.394 9.4014 43.4088 9.39713 43.4247 9.39179C43.4226 9.39606 43.4226 9.40033 43.4216 9.40247C43.4205 9.40567 43.4226 9.40033 43.4216 9.40247ZM44.0181 10.7326C44.0097 10.7475 44.0075 10.7528 44.0075 10.7699L43.998 10.7507L44.0203 10.7283C44.0203 10.7294 44.0192 10.7304 44.0181 10.7326C44.015 10.7379 44.0192 10.7304 44.0181 10.7326ZM41.7155 8.57516C41.7155 8.57089 41.7166 8.56555 41.7177 8.56128C41.7166 8.5773 41.7177 8.59224 41.7198 8.60825C41.7155 8.59544 41.7145 8.5869 41.7155 8.57516C41.7166 8.57089 41.7145 8.58584 41.7155 8.57516Z" fill="#0E2E93"/>
<path d="M0.433393 55.2354V55.6997H0V55.2044C0 55.0336 0.0434453 54.8959 0.129276 54.7913C0.215107 54.6867 0.341204 54.6344 0.507568 54.6344H0.597637C0.787313 54.6344 0.924007 54.6781 1.00772 54.7646C1.09143 54.8511 1.13276 54.9813 1.13276 55.1542V55.6421C1.13276 55.8417 1.05964 55.9709 0.91447 56.0317C1.08401 56.084 1.16878 56.2271 1.16878 56.4608V57.0864C1.16878 57.238 1.12534 57.3661 1.03951 57.4696C0.953676 57.5732 0.819102 57.6255 0.636844 57.6255H0.519224C0.358158 57.6255 0.231002 57.5742 0.138813 57.4718C0.0466242 57.3693 0 57.2529 0 57.1216V56.4801H0.433393V57.0352C0.433393 57.1398 0.481077 57.1921 0.577504 57.1921C0.670752 57.1921 0.718436 57.1398 0.718436 57.0352V56.4416C0.718436 56.3477 0.672872 56.2997 0.581743 56.2997H0.38253V55.8556H0.581743C0.64956 55.8556 0.683468 55.7851 0.683468 55.6431V55.2375C0.683468 55.119 0.642142 55.0603 0.558431 55.0603C0.475779 55.0582 0.433393 55.1169 0.433393 55.2354Z" fill="#0E2E93"/>
<path d="M2.46512 57.5867L2.40684 57.0359H2.08259L2.02749 57.5867H1.6333L1.98828 54.6607H2.51174L2.89003 57.5878H2.46512V57.5867ZM2.24153 55.5179L2.12815 56.5993H2.35809L2.24153 55.5179Z" fill="#0E2E93"/>
<path d="M3.36987 57.5867V54.6607H4.065C4.23666 54.6607 4.35746 54.7013 4.42633 54.7824C4.49521 54.8636 4.53018 54.9821 4.53018 55.1368V55.5852C4.53018 55.7997 4.45706 55.9353 4.31189 55.9908C4.48144 56.0559 4.56621 56.199 4.56621 56.42V57.053C4.56621 57.2184 4.52806 57.3487 4.45071 57.4448C4.37441 57.5408 4.25573 57.5889 4.09785 57.5889H3.36987V57.5867ZM3.9442 55.0578H3.81174V55.8168H3.9442C4.04592 55.8168 4.09679 55.7485 4.09679 55.6119V55.2425C4.09679 55.1774 4.08619 55.1294 4.06394 55.1005C4.04169 55.0717 4.00142 55.0578 3.9442 55.0578ZM3.9442 56.2534H3.81174V57.1736H3.9442C4.01202 57.1736 4.05758 57.1576 4.08089 57.1266C4.1042 57.0957 4.11586 57.0455 4.11586 56.9772V56.4424C4.11586 56.3773 4.1042 56.3292 4.08089 56.2993C4.05758 56.2684 4.01202 56.2534 3.9442 56.2534Z" fill="#0E2E93"/>
<path d="M6.30654 55.3014V56.9336C6.30654 57.3926 6.11898 57.6221 5.74387 57.6221H5.6697C5.28929 57.6221 5.09961 57.3926 5.09961 56.9336V55.3046C5.09961 54.8562 5.28823 54.632 5.66546 54.632H5.73963C5.94308 54.632 6.08825 54.6897 6.17514 54.805C6.26204 54.9213 6.30654 55.0868 6.30654 55.3014ZM5.85725 56.9656V55.2822C5.85725 55.1327 5.80639 55.058 5.70466 55.058C5.60082 55.058 5.5489 55.1327 5.5489 55.2822V56.9656C5.5489 57.115 5.60188 57.1898 5.7089 57.1898C5.80745 57.1898 5.85725 57.115 5.85725 56.9656Z" fill="#0E2E93"/>
<path d="M7.94629 57.9999V57.5867H7.18123V57.9999H6.77856V57.1427H6.87605C6.92586 57.0402 6.96188 56.9174 6.98519 56.7733C7.0244 56.5107 7.04347 55.8072 7.04347 54.6607H8.15398V57.1427H8.34895V57.9999H7.94629ZM7.39951 56.785C7.38362 56.9131 7.35501 57.0327 7.31368 57.1427H7.71211V55.0856H7.45779C7.45885 55.9407 7.43872 56.5064 7.39951 56.785Z" fill="#0E2E93"/>
<path d="M10.3981 56.9933V56.3123H10.8315V56.9891C10.8315 57.4118 10.6556 57.6221 10.3038 57.6221H10.2064C9.84396 57.6221 9.66382 57.4161 9.66382 57.004V55.2181C9.66382 55.0505 9.70514 54.9107 9.78886 54.7996C9.87257 54.6886 10.0061 54.632 10.1915 54.632H10.2932C10.4077 54.632 10.5031 54.6491 10.5804 54.6833C10.6567 54.7175 10.7129 54.7676 10.7468 54.8327C10.7807 54.8979 10.8029 54.9619 10.8156 55.0238C10.8273 55.0857 10.8337 55.1583 10.8337 55.2416V55.7647H10.4003V55.2491C10.4003 55.121 10.3505 55.0558 10.2519 55.0558C10.2 55.0558 10.164 55.0708 10.1449 55.1007C10.1258 55.1306 10.1152 55.1797 10.1152 55.248V56.9869C10.1152 57.1204 10.1618 57.1876 10.2562 57.1876C10.3505 57.1898 10.3981 57.1246 10.3981 56.9933Z" fill="#0E2E93"/>
<path d="M11.3755 57.5867V54.6607H12.5273V57.5878H12.0865V55.0856H11.8174V57.5878H11.3755V57.5867Z" fill="#0E2E93"/>
<path d="M14.3034 55.3014V56.9336C14.3034 57.3926 14.1158 57.6221 13.7407 57.6221H13.6665C13.2861 57.6221 13.0964 57.3926 13.0964 56.9336V55.3046C13.0964 54.8562 13.2851 54.632 13.6623 54.632H13.7365C13.9399 54.632 14.0851 54.6897 14.172 54.805C14.2599 54.9213 14.3034 55.0868 14.3034 55.3014ZM13.8541 56.9656V55.2822C13.8541 55.1327 13.8032 55.058 13.7015 55.058C13.5976 55.058 13.5457 55.1327 13.5457 55.2822V56.9656C13.5457 57.115 13.5987 57.1898 13.7057 57.1898C13.8053 57.1898 13.8541 57.115 13.8541 56.9656Z" fill="#0E2E93"/>
<path d="M15.5648 56.3719H15.3063V57.5878H14.8655V54.6607H15.5648C15.7238 54.6607 15.8393 54.6981 15.9103 54.7728C15.9823 54.8475 16.0173 54.9714 16.0173 55.1443V55.8371C16.0173 56.1937 15.8658 56.3719 15.5648 56.3719ZM15.3063 55.0578V55.9513H15.4197C15.4822 55.9513 15.5235 55.9332 15.5426 55.898C15.5617 55.8627 15.5723 55.8094 15.5723 55.7389V55.2585C15.5723 55.1934 15.5617 55.1432 15.5415 55.1091C15.5203 55.0749 15.4801 55.0578 15.4207 55.0578H15.3063Z" fill="#0E2E93"/>
<path d="M16.5063 54.6607H17.6857V55.0856H17.3149V57.5878H16.8772V55.0856H16.5063V54.6607Z" fill="#0E2E93"/>
<path d="M18.9541 57.5867V56.0015L18.6383 57.5867H18.1975V54.6607H18.6383V56.246L18.9541 54.6607H19.3949V57.5878H18.9541V57.5867Z" fill="#0E2E93"/>
<path d="M19.9771 57.5867V54.6607H20.6722C20.8438 54.6607 20.9646 54.7013 21.0335 54.7824C21.1024 54.8636 21.1374 54.9821 21.1374 55.1368V55.5852C21.1374 55.7997 21.0642 55.9353 20.9191 55.9908C21.0886 56.0559 21.1734 56.199 21.1734 56.42V57.053C21.1734 57.2184 21.1352 57.3487 21.0579 57.4448C20.9816 57.5408 20.8629 57.5889 20.705 57.5889H19.9771V57.5867ZM20.5503 55.0578H20.4179V55.8168H20.5503C20.652 55.8168 20.7029 55.7485 20.7029 55.6119V55.2425C20.7029 55.1774 20.6923 55.1294 20.6701 55.1005C20.6478 55.0717 20.6075 55.0578 20.5503 55.0578ZM20.5503 56.2534H20.4179V57.1736H20.5503C20.6181 57.1736 20.6637 57.1576 20.687 57.1266C20.7103 57.0957 20.722 57.0455 20.722 56.9772V56.4424C20.722 56.3773 20.7103 56.3292 20.687 56.2993C20.6637 56.2684 20.6181 56.2534 20.5503 56.2534Z" fill="#0E2E93"/>
<path d="M22.1517 56.3004V57.5867H21.7109V54.6607H22.1517V55.8328H22.4527V54.6607H22.8935V57.5878H22.4527V56.3015H22.1517V56.3004Z" fill="#0E2E93"/>
<path d="M24.6706 55.3014V56.9336C24.6706 57.3926 24.483 57.6221 24.1079 57.6221H24.0337C23.6533 57.6221 23.4636 57.3926 23.4636 56.9336V55.3046C23.4636 54.8562 23.6522 54.632 24.0295 54.632H24.1036C24.3071 54.632 24.4523 54.6897 24.5392 54.805C24.6271 54.9213 24.6706 55.0868 24.6706 55.3014ZM24.2213 56.9656V55.2822C24.2213 55.1327 24.1704 55.058 24.0687 55.058C23.9648 55.058 23.9129 55.1327 23.9129 55.2822V56.9656C23.9129 57.115 23.9659 57.1898 24.0729 57.1898C24.1715 57.1898 24.2213 57.115 24.2213 56.9656Z" fill="#0E2E93"/>
<path d="M25.2058 56.2226H25.7568V56.608H25.2058V56.2226Z" fill="#0E2E93"/>
<path d="M27.0174 56.3719H26.7599V57.5878H26.3191V54.6607H27.0185C27.1774 54.6607 27.2929 54.6981 27.3639 54.7728C27.436 54.8475 27.4709 54.9714 27.4709 55.1443V55.8371C27.4699 56.1937 27.3183 56.3719 27.0174 56.3719ZM26.7588 55.0578V55.9513H26.8722C26.9347 55.9513 26.9761 55.9332 26.9951 55.898C27.0142 55.8627 27.0248 55.8094 27.0248 55.7389V55.2585C27.0248 55.1934 27.0142 55.1432 26.9941 55.1091C26.9729 55.0749 26.9326 55.0578 26.8733 55.0578H26.7588Z" fill="#0E2E93"/>
<path d="M28.7515 57.5868L28.6932 57.036H28.369L28.3139 57.5868H27.9197L28.2747 54.6597H28.7981L29.1764 57.5868H28.7515ZM28.529 55.518L28.4156 56.5994H28.6455L28.529 55.518Z" fill="#0E2E93"/>
<path d="M30.0589 55.2352V55.6995H29.6255V55.2042C29.6255 55.0334 29.6689 54.8957 29.7548 54.7911C29.8406 54.6865 29.9667 54.6342 30.1331 54.6342H30.2231C30.4128 54.6342 30.5495 54.6779 30.6332 54.7644C30.7169 54.8509 30.7582 54.9811 30.7582 55.154V55.6419C30.7582 55.8415 30.6851 55.9707 30.54 56.0315C30.7095 56.0838 30.7943 56.2269 30.7943 56.4606V57.0862C30.7943 57.2378 30.7508 57.3659 30.665 57.4694C30.5792 57.573 30.4446 57.6253 30.2623 57.6253H30.1447C29.9836 57.6253 29.8565 57.574 29.7643 57.4715C29.6721 57.3691 29.6255 57.2527 29.6255 57.1214V56.4798H30.0589V57.0349C30.0589 57.1396 30.1066 57.1919 30.203 57.1919C30.2962 57.1919 30.3439 57.1396 30.3439 57.0349V56.4414C30.3439 56.3475 30.2984 56.2994 30.2072 56.2994H30.008V55.8554H30.2072C30.275 55.8554 30.309 55.7849 30.309 55.6429V55.2373C30.309 55.1188 30.2676 55.0601 30.1839 55.0601C30.1002 55.0579 30.0589 55.1167 30.0589 55.2352Z" fill="#0E2E93"/>
<path d="M31.3513 57.5867V54.6607H32.0464C32.2181 54.6607 32.3389 54.7013 32.4078 54.7824C32.4767 54.8636 32.5116 54.9821 32.5116 55.1368V55.5852C32.5116 55.7997 32.4385 55.9353 32.2933 55.9908C32.4629 56.0559 32.5477 56.199 32.5477 56.42V57.053C32.5477 57.2184 32.5095 57.3487 32.4321 57.4448C32.3559 57.5408 32.2372 57.5889 32.0793 57.5889H31.3513V57.5867ZM31.9256 55.0578H31.7932V55.8168H31.9256C32.0274 55.8168 32.0782 55.7485 32.0782 55.6119V55.2425C32.0782 55.1774 32.0676 55.1294 32.0454 55.1005C32.0221 55.0717 31.9829 55.0578 31.9256 55.0578ZM31.9256 56.2534H31.7932V57.1736H31.9256C31.9935 57.1736 32.039 57.1576 32.0623 57.1266C32.0856 57.0957 32.0973 57.0455 32.0973 56.9772V56.4424C32.0973 56.3773 32.0856 56.3292 32.0623 56.2993C32.038 56.2684 31.9924 56.2534 31.9256 56.2534Z" fill="#0E2E93"/>
<path d="M33.8897 57.5868V55.0846H33.6322C33.6322 56.1307 33.6194 56.8118 33.593 57.1267C33.5824 57.2836 33.5431 57.3999 33.4743 57.4747C33.4054 57.5494 33.291 57.5868 33.1331 57.5868H33.0239V57.1341H33.0547C33.1045 57.1341 33.1384 57.1203 33.1564 57.0904C33.1744 57.0616 33.186 57.0103 33.1913 56.9367C33.2094 56.7605 33.2189 56.0015 33.2189 54.6586H34.3315V57.5857H33.8897V57.5868Z" fill="#0E2E93"/>
<path d="M34.9131 54.6607H35.9166V55.0856H35.3539V55.8531H35.7947V56.2972H35.3539V57.1427H35.9399V57.5867H34.9131V54.6607Z" fill="#0E2E93"/>
<path d="M37.2635 57.5867L36.8969 56.3164V57.5867H36.4561V54.6607H36.8969V55.8328L37.2444 54.6607H37.6736L37.2635 56.0218L37.716 57.5878H37.2635V57.5867Z" fill="#0E2E93"/>
<path d="M38.9302 57.5868L38.8719 57.036H38.5477L38.4926 57.5868H38.0984L38.4534 54.6597H38.9768L39.3551 57.5868H38.9302ZM38.7077 55.518L38.5943 56.5994H38.8242L38.7077 55.518Z" fill="#0E2E93"/>
<path d="M39.5986 54.6607H40.778V55.0856H40.4071V57.5878H39.9695V55.0856H39.5986V54.6607Z" fill="#0E2E93"/>
<path d="M41.2964 54.6607H42.2999V55.0856H41.7372V55.8531H42.178V56.2972H41.7372V57.1427H42.3232V57.5867H41.2964V54.6607Z" fill="#0E2E93"/>
<path d="M43.6436 57.5868V55.0846H43.3861C43.3861 56.1307 43.3733 56.8118 43.3469 57.1267C43.3363 57.2836 43.2971 57.3999 43.2282 57.4747C43.1593 57.5494 43.0449 57.5868 42.887 57.5868H42.7778V57.1341H42.8086C42.8584 57.1341 42.8923 57.1203 42.9103 57.0904C42.9283 57.0616 42.94 57.0103 42.9453 56.9367C42.9633 56.7605 42.9728 56.0015 42.9728 54.6586H44.0854V57.5857H43.6436V57.5868Z" fill="#0E2E93"/>
<path d="M45.1006 55.7933H45.3581C45.6601 55.7933 45.8105 55.9727 45.8105 56.3324V57.0754C45.8105 57.2515 45.7745 57.3807 45.7014 57.4629C45.6283 57.5451 45.5138 57.5867 45.3581 57.5867H44.6587V54.6607H45.0995V55.7933H45.1006ZM45.1006 57.1619H45.2139C45.2733 57.1619 45.3146 57.1448 45.3347 57.1106C45.3559 57.0765 45.3655 57.0263 45.3655 56.9612V56.4306C45.3655 56.3602 45.3559 56.3068 45.3358 56.2716C45.3167 56.2364 45.2754 56.2182 45.2129 56.2182H45.0995V57.1619H45.1006Z" fill="#0E2E93"/>
<path d="M46.7948 56.3004V57.5867H46.354V54.6607H46.7948V55.8328H47.0958V54.6607H47.5366V57.5878H47.0958V56.3015H46.7948V56.3004Z" fill="#0E2E93"/>
<path d="M49.3136 55.3014V56.9336C49.3136 57.3926 49.1261 57.6221 48.7509 57.6221H48.6768C48.2964 57.6221 48.1067 57.3926 48.1067 56.9336V55.3046C48.1067 54.8562 48.2953 54.632 48.6725 54.632H48.7467C48.9502 54.632 49.0953 54.6897 49.1822 54.805C49.2702 54.9213 49.3136 55.0868 49.3136 55.3014ZM48.8643 56.9656V55.2822C48.8643 55.1327 48.8135 55.058 48.7117 55.058C48.6079 55.058 48.556 55.1327 48.556 55.2822V56.9656C48.556 57.115 48.609 57.1898 48.716 57.1898C48.8145 57.1898 48.8643 57.115 48.8643 56.9656Z" fill="#0E2E93"/>
<path d="M49.8677 57.5867V54.6607H50.7535V55.0856H50.3085V57.5878H49.8677V57.5867Z" fill="#0E2E93"/>
<path d="M52.4765 55.3014V56.9336C52.4765 57.3926 52.2889 57.6221 51.9138 57.6221H51.8396C51.4592 57.6221 51.2695 57.3926 51.2695 56.9336V55.3046C51.2695 54.8562 51.4581 54.632 51.8354 54.632H51.9096C52.113 54.632 52.2582 54.6897 52.3451 54.805C52.432 54.9213 52.4765 55.0868 52.4765 55.3014ZM52.0272 56.9656V55.2822C52.0272 55.1327 51.9763 55.058 51.8746 55.058C51.7707 55.058 51.7188 55.1327 51.7188 55.2822V56.9656C51.7188 57.115 51.7718 57.1898 51.8788 57.1898C51.9774 57.1898 52.0272 57.115 52.0272 56.9656Z" fill="#0E2E93"/>
<path d="M55.0419 55.3014V56.9336C55.0419 57.3926 54.8543 57.6221 54.4792 57.6221H54.405C54.0246 57.6221 53.835 57.3926 53.835 56.9336V55.3046C53.835 54.8562 54.0236 54.632 54.4008 54.632H54.475C54.6784 54.632 54.8236 54.6897 54.9105 54.805C54.9974 54.9213 55.0419 55.0868 55.0419 55.3014ZM54.5926 56.9656V55.2822C54.5926 55.1327 54.5417 55.058 54.44 55.058C54.3362 55.058 54.2843 55.1327 54.2843 55.2822V56.9656C54.2843 57.115 54.3372 57.1898 54.4443 57.1898C54.5428 57.1898 54.5926 57.115 54.5926 56.9656Z" fill="#0E2E93"/>
<path d="M55.5959 57.5867V54.6607H56.662V55.0856H56.0368V55.7933H56.2943C56.5963 55.7933 56.7467 55.9727 56.7467 56.3324V57.0754C56.7467 57.2515 56.7107 57.3807 56.6376 57.4629C56.5645 57.5451 56.45 57.5867 56.2943 57.5867H55.5959ZM56.0368 57.1619H56.1501C56.2095 57.1619 56.2508 57.1448 56.2709 57.1106C56.2921 57.0765 56.3017 57.0263 56.3017 56.9612V56.4306C56.3017 56.3602 56.2921 56.3068 56.272 56.2716C56.2529 56.2364 56.2116 56.2182 56.1491 56.2182H56.0357V57.1619H56.0368Z" fill="#0E2E93"/>
<path d="M58.4972 55.3014V56.9336C58.4972 57.3926 58.3097 57.6221 57.9345 57.6221H57.8604C57.48 57.6221 57.2903 57.3926 57.2903 56.9336V55.3046C57.2903 54.8562 57.4789 54.632 57.8561 54.632H57.9303C58.1338 54.632 58.2789 54.6897 58.3658 54.805C58.4527 54.9213 58.4972 55.0868 58.4972 55.3014ZM58.0479 56.9656V55.2822C58.0479 55.1327 57.9971 55.058 57.8953 55.058C57.7915 55.058 57.7396 55.1327 57.7396 55.2822V56.9656C57.7396 57.115 57.7926 57.1898 57.8996 57.1898C57.9981 57.1898 58.0479 57.115 58.0479 56.9656Z" fill="#0E2E93"/>
<path d="M59.7581 56.3719H59.5006V57.5878H59.0598V54.6607H59.7592C59.9181 54.6607 60.0336 54.6981 60.1046 54.7728C60.1767 54.8475 60.2116 54.9714 60.2116 55.1443V55.8371C60.2106 56.1937 60.0601 56.3719 59.7581 56.3719ZM59.5006 55.0578V55.9513H59.614C59.6765 55.9513 59.7179 55.9332 59.7369 55.898C59.756 55.8627 59.7666 55.8094 59.7666 55.7389V55.2585C59.7666 55.1934 59.756 55.1432 59.7359 55.1091C59.7147 55.0749 59.6744 55.0578 59.6151 55.0578H59.5006Z" fill="#0E2E93"/>
<path d="M61.8394 54.6607L61.4176 57.2024C61.3943 57.3465 61.3572 57.4469 61.3085 57.5035C61.2587 57.56 61.1782 57.5878 61.0669 57.5878H60.7819V57.1352H60.8836C60.9069 57.1352 60.926 57.1309 60.9398 57.1234C60.9535 57.116 60.9641 57.1053 60.9694 57.0925C60.9747 57.0797 60.98 57.0626 60.9853 57.0412L60.997 56.9505C61.0044 56.9035 60.9991 56.8245 60.9811 56.7146L60.6526 54.6607H61.1019L61.2661 55.9545L61.4219 54.6607H61.8394Z" fill="#0E2E93"/>
<path d="M63.269 57.9999V57.5867H62.504V57.9999H62.1013V57.1427H62.1988C62.2486 57.0402 62.2846 56.9174 62.3079 56.7733C62.3472 56.5107 62.3662 55.8072 62.3662 54.6607H63.4757V57.1427H63.6706V57.9999H63.269ZM62.7223 56.785C62.7064 56.9131 62.6778 57.0327 62.6364 57.1427H63.0349V55.0856H62.7806C62.7806 55.9407 62.7615 56.5064 62.7223 56.785Z" fill="#0E2E93"/>
<path d="M65.3847 55.3014V56.9336C65.3847 57.3926 65.1971 57.6221 64.822 57.6221H64.7478C64.3674 57.6221 64.1777 57.3926 64.1777 56.9336V55.3046C64.1777 54.8562 64.3663 54.632 64.7436 54.632H64.8178C65.0212 54.632 65.1664 54.6897 65.2533 54.805C65.3412 54.9213 65.3847 55.0868 65.3847 55.3014ZM64.9354 56.9656V55.2822C64.9354 55.1327 64.8845 55.058 64.7828 55.058C64.6789 55.058 64.627 55.1327 64.627 55.2822V56.9656C64.627 57.115 64.68 57.1898 64.787 57.1898C64.8856 57.1898 64.9354 57.115 64.9354 56.9656Z" fill="#0E2E93"/>
<path d="M65.9478 57.5867V54.6607H66.6429C66.8145 54.6607 66.9353 54.7013 67.0042 54.7824C67.0731 54.8636 67.1081 54.9821 67.1081 55.1368V55.5852C67.1081 55.7997 67.0349 55.9353 66.8898 55.9908C67.0593 56.0559 67.1441 56.199 67.1441 56.42V57.053C67.1441 57.2184 67.1059 57.3487 67.0286 57.4448C66.9523 57.5408 66.8336 57.5889 66.6757 57.5889H65.9478V57.5867ZM66.521 55.0578H66.3886V55.8168H66.521C66.6227 55.8168 66.6736 55.7485 66.6736 55.6119V55.2425C66.6736 55.1774 66.663 55.1294 66.6408 55.1005C66.6185 55.0717 66.5782 55.0578 66.521 55.0578ZM66.521 56.2534H66.3886V57.1736H66.521C66.5888 57.1736 66.6344 57.1576 66.6577 57.1266C66.681 57.0957 66.6927 57.0455 66.6927 56.9772V56.4424C66.6927 56.3773 66.681 56.3292 66.6577 56.2993C66.6344 56.2684 66.5888 56.2534 66.521 56.2534Z" fill="#0E2E93"/>
<path d="M68.4275 57.5868L68.3692 57.036H68.045L67.9899 57.5868H67.5957L67.9507 54.6597H68.4741L68.8524 57.5868H68.4275ZM68.2039 55.518L68.0906 56.5994H68.3205L68.2039 55.518Z" fill="#0E2E93"/>
<path d="M69.7658 56.3004V57.5867H69.325V54.6607H69.7658V55.8328H70.0667V54.6607H70.5075V57.5878H70.0667V56.3015H69.7658V56.3004Z" fill="#0E2E93"/>
<path d="M71.8393 57.5867V56.0015L71.5236 57.5867H71.0828V54.6607H71.5236V56.246L71.8393 54.6607H72.2802V57.5878H71.8393V57.5867Z" fill="#0E2E93"/>
<path d="M73.558 56.3602H73.5072L73.1829 57.5878H72.7305L73.0823 56.2823C72.9212 56.2299 72.8407 56.1115 72.8407 55.9278V55.1134C72.8407 54.9511 72.8767 54.8347 72.9498 54.7653C73.0229 54.696 73.1342 54.6607 73.2857 54.6607H73.9999V57.5878H73.5591V56.3602H73.558ZM73.558 55.9353V55.0578H73.4404C73.3758 55.0578 73.3323 55.0728 73.3112 55.1016C73.29 55.1304 73.2804 55.1795 73.2804 55.2468V55.7272C73.2804 55.8659 73.3334 55.9353 73.4404 55.9353H73.558Z" fill="#0E2E93"/>
<path d="M71.9516 37.2256C70.8369 37.2256 69.9309 36.3118 69.9309 35.1899C69.9309 34.0669 70.838 33.1541 71.9516 33.1541C73.0664 33.1541 73.9724 34.0679 73.9724 35.1899C73.9724 36.3129 73.0664 37.2256 71.9516 37.2256ZM71.9516 33.5171C71.0361 33.5171 70.2912 34.2675 70.2912 35.1899C70.2912 36.1122 71.0361 36.8626 71.9516 36.8626C72.8672 36.8626 73.6121 36.1122 73.6121 35.1899C73.6121 34.2675 72.8672 33.5171 71.9516 33.5171Z" fill="#0E2E93"/>
<path d="M72.3748 36.1303L71.9933 35.3457H71.7189V36.1303H71.3374V34.1629H72.1035C72.5009 34.1629 72.7372 34.4362 72.7372 34.765C72.7372 35.0414 72.5698 35.2122 72.3801 35.2816L72.8167 36.1303H72.3748ZM72.0792 34.5056H71.7199V35.0254H72.0792C72.2466 35.0254 72.3568 34.9176 72.3568 34.766C72.3557 34.6134 72.2466 34.5056 72.0792 34.5056Z" fill="#0E2E93"/>
</svg>
